<svg xmlns="http://www.w3.org/2000/svg" viewBox="0 0 2000 2000">
    <defs>
        <style>
            .cls-1{fill:#fff;}.cls-2{fill:#50bfa5;}.cls-3{fill:#3c8f7c;}.cls-4{fill:#355389;}.cls-5{fill:#466eb6;}.cls-6{fill:#f7cc7f;}.cls-7{fill:#fae0b2;}.cls-8{fill:#96d9c9;}.cls-9{fill:#f48c7f;}.cls-10{fill:#b75742;}.cls-11{fill:#86b1f2;}.cls-12{fill:#f47458;}.cls-13{fill:#184655;}.cls-14{fill:#f7a491;}.cls-15{fill:#13375b;}.cls-16{fill:#9bc1f9;}
        </style>
    </defs>
    <title>Asset laptop</title>
    <g id="Layer_2">
        <g id="Layer_1-2">
            <rect class="cls-1" width="2000" height="2000"/>
            <polygon class="cls-2"
                     points="766.89 558.48 751.65 563.15 741.41 539.46 718.28 543.55 707.73 527.07 699.38 532.42 713.51 554.46 735.42 550.58 746.07 575.23 769.01 568.19 766.89 558.48"/>
            <polygon class="cls-2"
                     points="1744.33 1410.65 1729.09 1415.33 1718.85 1391.63 1695.72 1395.72 1685.16 1379.24 1676.82 1384.59 1690.94 1406.63 1712.86 1402.75 1723.51 1427.4 1746.44 1420.36 1744.33 1410.65"/>
            <path class="cls-2"
                  d="M673,1691.16s-81.33-275.67-87.86-336.48,39-42,39-42-38.25-115.87-10.59-143.37,52.62,23.76,52.62,23.76,8.38-140.66,37.87-140.71c54.94-.1,53.86,153.4,53.86,153.4s14-60.09,43.44-43.62C845.64,1187,782,1307.45,782,1307.45s56.53,0,76.38,28.55C894,1387.14,673,1691.16,673,1691.16Z"/>
            <path class="cls-2"
                  d="M699.57,1654.67s-234.47-39.21-285.47-80.75-.52-60.28-.52-60.28-117.79-60.38-116.42-101.44S357,1392,357,1392s-99.24-113.17-75.74-134.66c43.76-40,158.49,77.6,158.49,77.6s-34.07-55.94,1.81-64.8c54.11-13.35,94.05,124.6,94.05,124.6s-10.15-54.48,27.16-47.22C629.74,1360.56,699.57,1654.67,699.57,1654.67Z"/>
            <path class="cls-3"
                  d="M562.8,1347.54c-37.4-6.76-27.16,47.22-27.16,47.22s-39.94-138-94.05-124.6c-35.88,8.86-1.81,64.8-1.81,64.8s-114.73-117.64-158.49-77.6l417.49,397.38C691.34,1616.78,625.51,1358.88,562.8,1347.54Z"/>
            <path class="cls-4"
                  d="M766.27,1687S642.8,1561.44,580.61,1548.36s-51,31.17-51,31.17-123.37-107.89-152-81.75,2.33,51.38,2.33,51.38S277.23,1531,262.52,1564.67c-22.61,51.82,146.4,80,146.4,80s-70.82,4.91-54.4,37.4C379.29,1731.09,766.27,1687,766.27,1687Z"/>
            <path class="cls-5"
                  d="M262.52,1564.67C277.23,1531,380,1549.16,380,1549.16s-30.92-25.24-2.33-51.38,148.12,67.07,148.12,67.07-28.18-53.87,34-40.79,206.49,163,206.49,163Z"/>
            <path class="cls-6"
                  d="M962.85,391.93c-41.56,6.84-53.9,61.39-19.35,85.79a31.68,31.68,0,0,1,12.33,18.35l6.29,25.37a13.82,13.82,0,0,0,15.66,10.31l15.74-2.59a13.81,13.81,0,0,0,11.53-14.78c-2.18-26.2-4.89-35.7,3.63-47.39C1033.59,432.81,1004.43,385.09,962.85,391.93Z"/>
            <path class="cls-7"
                  d="M967.1,502.83c-2.71-22.44-6.51-46.14-7.8-52.86-23.83,1.31-14.77-23.8-3.78-13.59,3.14,2.91,4.62,6.86,5.59,11.18a61.54,61.54,0,0,0,22.7-6.61c-.38-5.53-.92-9.73.62-13.27,2.34-5.35,9.12-6.81,11.87-1.59a8.3,8.3,0,0,1,.47,6.53c-1.59,4.43-6.41,7.35-10.6,9.64,1.26,17.84,3,35.82,5.18,53.53l-2.25.28C987,478.65,985.23,461,984,443.4a63.91,63.91,0,0,1-22.41,6.4c1.63,8.59,5.24,31.69,7.78,52.76ZM948,444.68c2.12,2.28,5.67,3.28,10.84,3-.89-3.81-2.22-7.24-4.84-9.68C948.07,432.55,944.43,440.85,948,444.68Zm38.53-16.09c-1.3,3-.81,6.79-.51,11.17,3.4-1.94,7.36-4.36,8.64-7.91.9-2.49-.11-6-2.65-6.65C991.72,425.13,987.42,426.5,986.51,428.59Z"/>
            <path class="cls-8"
                  d="M955.65,495.44c.05.21.13.41.18.63l6.29,25.37a13.82,13.82,0,0,0,15.66,10.31l15.74-2.59a13.81,13.81,0,0,0,11.53-14.78c-1-11.66-2-20-2.19-26.71Z"/>
            <path class="cls-7" d="M932.05,373l-12.43-22.69a4.53,4.53,0,0,1,8-4.35L940,368.62a4.53,4.53,0,1,1-8,4.36Z"/>
            <path class="cls-7" d="M904.88,427.86l-27.09-2.37a4.53,4.53,0,1,1,.79-9l27.09,2.37a4.53,4.53,0,0,1-.79,9Z"/>
            <path class="cls-7"
                  d="M878,510.92a4.53,4.53,0,0,1,0-6.41,147.74,147.74,0,0,1,21.77-17.76,4.53,4.53,0,0,1,5,7.54A139.05,139.05,0,0,0,884.43,511,4.52,4.52,0,0,1,878,510.92Z"/>
            <path class="cls-7"
                  d="M999,371.75a4.53,4.53,0,0,1-3.21-5.54,172.62,172.62,0,0,0,5.59-35.2,4.53,4.53,0,1,1,9,.48,181.51,181.51,0,0,1-5.88,37.06A4.53,4.53,0,0,1,999,371.75Z"/>
            <path class="cls-7"
                  d="M1026.88,406.58a4.54,4.54,0,0,1,3-5.65l28.17-8.49a4.53,4.53,0,1,1,2.61,8.68l-28.16,8.49A4.54,4.54,0,0,1,1026.88,406.58Z"/>
            <path class="cls-7"
                  d="M1073.15,481.52a4.35,4.35,0,0,1-1.23-.17,142.09,142.09,0,0,1-28.21-11.3,4.54,4.54,0,0,1,4.26-8,133,133,0,0,0,26.4,10.59,4.53,4.53,0,0,1-1.22,8.89Z"/>
            <path class="cls-6"
                  d="M1485.68,681.92l-14.21-33.6L1435.73,641a5,5,0,0,1-2.27-8.7L1461,608.38,1457,572.12a5,5,0,0,1,7.57-4.85l31.24,18.83L1529,571a5,5,0,0,1,7,5.7l-8.25,35.53,24.59,27a5,5,0,0,1-3.27,8.37l-36.35,3.13-18,31.72A5,5,0,0,1,1485.68,681.92Z"/>
            <polygon class="cls-9"
                     points="1711.88 566.63 1706.04 590.15 1667.15 584.93 1654.37 618.27 1624.63 619.12 1625.06 634.18 1664.84 633.04 1676.95 601.44 1717.4 606.87 1726.19 571.47 1711.88 566.63"/>
            <path class="cls-10"
                  d="M1365.42,1694.24H681.85c-26.1,0-47.27-22-47.27-49v-29.16c0-27.08,21.17-49,47.27-49h683.57c-31.27,35.45-31.81,89.62-1.26,125.74Z"/>
            <path class="cls-7"
                  d="M1354.87,1581.59H975.72c-26.11,0-47.27,22-47.27,49h0c0,27.08,21.16,49,47.27,49H1354.9A97.27,97.27,0,0,1,1354.87,1581.59Z"/>
            <path class="cls-11"
                  d="M1125.27,1478.66c1-1.86-.51-4-2.81-4H760.76c-28.35,0-51.34,20.68-51.34,46.2h0c0,25.51,23,46.2,51.34,46.2h361.8c2.31,0,3.82-2.18,2.82-4h0A88.49,88.49,0,0,1,1125.27,1478.66Z"/>
            <path class="cls-6"
                  d="M1123,1483.24H943.73c-33.27,0-60.24,17.33-60.24,38.71s27,38.71,60.24,38.71h180.44A88.33,88.33,0,0,1,1123,1483.24Z"/>
            <path class="cls-10" d="M1076.7,1501.59h-23.35c-5,0-9.09,1.69-9.09,3.76v.34h32.44Z"/>
            <path class="cls-12"
                  d="M1096.61,1511c0-5.21-6.1-9.44-13.62-9.44h-30c5.71,0,10.33,3.2,10.33,7.16l-.14,101.22,16.55-13,16.88,13Z"/>
            <path class="cls-7"
                  d="M1058.77,1471.31H848.32c-18.66,0-33.79-18-33.79-40.11h0c0-22.15,15.13-40.11,33.79-40.11h210.45c-16.08,22.24-16.71,54.85-1.5,77.94Z"/>
            <path class="cls-5"
                  d="M814.55,1431.2h0c0-22.15,15.48-40.11,34.59-40.11h213.64a2,2,0,0,0,1.8-2.09h0a2,2,0,0,0-1.8-2.06H723.86c-21.08,0-38.17,19.81-38.17,44.26h0c0,24.45,17.09,44.26,38.17,44.26h338.92a2,2,0,0,0,1.8-2.06h0a2,2,0,0,0-1.8-2.09H849.14C830,1471.31,814.55,1453.35,814.55,1431.2Z"/>
            <path class="cls-13" d="M1022,1410.8H998.68c-5,0-9.09,1.66-9.09,3.7v.33H1022Z"/>
            <path class="cls-3"
                  d="M1041.94,1420.06c0-5.11-6.1-9.26-13.62-9.26h-30c5.71,0,10.33,3.15,10.33,7l-.14,99.26,16.55-12.77,16.87,12.77Z"/>
            <path class="cls-13"
                  d="M1394.09,797.67l31.07-8.18-21.06,280.86-37.27,1.25,18.8-263.73A11.39,11.39,0,0,1,1394.09,797.67Z"/>
            <path class="cls-6"
                  d="M1406.89,1078.36a9.5,9.5,0,0,1-2.13,0c-6.17-.73-10.74-6.86-10.2-13.71l20.68-264.09c.53-6.84,6-11.8,12.14-11.07s10.74,6.87,10.2,13.71l-20.68,264.09C1416.43,1073.31,1412.13,1077.88,1406.89,1078.36Z"/>
            <path class="cls-6"
                  d="M1121,1092.43c0,.19,0,.39,0,.58h0c1,10.75,9.29,18.78,18.59,18L1402,1087.48c9.3-.84,16-10.22,15.07-21,0-.45-.1-.9-.17-1.34Z"/>
            <path class="cls-14"
                  d="M1303.66,1376.1c-17.19,9.53-69.7-7.18-69.7-8.69-.76,14.36-58.81,154.84-58.81,154.84l0,43.22s119.62,5.7,117.9-4.87-8.16-3.69-32-23.66c-2.12-1.77-35.62-9.54-26.55-29.38C1252.78,1467.62,1291.57,1401,1303.66,1376.1Z"/>
            <path class="cls-3"
                  d="M1171.26,1567l131,0c4.72-.48,5.83-4.32,4.16-6.66-3.44-4.81-28.53-16.16-45.4-23.69-29.39,3.43-81-7.87-85.76-14.57C1162.77,1538.79,1168.63,1566.47,1171.26,1567Z"/>
            <path class="cls-4"
                  d="M1142.54,1275.24c-1.77-5.32,112.74-53.91,117.86-48.36,9.07,9.83-62,194.17-62,194.17l81.6,24.94s84.83-213,81.28-251.94-46-83.22-138.11-54.89S1142.54,1275.24,1142.54,1275.24Z"/>
            <path class="cls-14"
                  d="M1379.63,1400.33c-19.33-3.52-44.39-4.52-64.44-4.87,2.36,17.86,13.84,109.43,11.74,115.06a68.71,68.71,0,0,1-27.36,33.46s88.92,80.22,94.29,71-4-8-9.77-38.6c-.52-2.71-13.37-45.38-14.17-68.39C1368.4,1464.06,1379,1424.7,1379.63,1400.33Z"/>
            <path class="cls-5"
                  d="M1351.1,1100.76c-12.41-6.62-44.61-6.85-80-4.55A812.39,812.39,0,0,0,1068.24,1136l-43.94,14.55.14-45s-139.79-23.39-144.65,11.26c-7.33,52.17,1.76,158.1,48.34,181.74,144.67,73.43,347.41-117,348.14-92.08,1,33.46,29.2,158,36.41,212.48,20,.35,54.51.34,69.46-3.09C1385,1309,1386.41,1119.6,1351.1,1100.76Z"/>
            <path class="cls-3"
                  d="M1296.86,1545.86l100,79.84c4,2.62,7.25.35,7.44-2.52.39-5.9-11.83-30.58-20.11-47.1-24.9-16-57.74-57.61-57.15-65.78C1316.46,1519.19,1295.17,1543.76,1296.86,1545.86Z"/>
            <path class="cls-15"
                  d="M1070.63,665.28c-3.36-30.69-6.89-61.49-32.34-84-20.59-18.21-46.76-21.29-72.65-11.55-73.34,27.6-35.55,92.73-129.07,158.41-29.06,20.4-61.09,34.37-83,61.85-30.62,38.46-19.06,84.72,8.85,115.61,133.54,147.8,282.64-51.8,293.34-99.72C1063.75,770.25,1072.79,685,1070.63,665.28Z"/>
            <path class="cls-2"
                  d="M1043.51,837.87a407.48,407.48,0,0,0-22.15-36.07c-11.31-20.11-40.54-30.28-40.54-30.28s-9.78.19-21,.74a8.69,8.69,0,0,1-2.12,3.73c-4.22,3.17-28.4-.92-44,9.69-52.35,44.87-37.87,262.39-33.75,331.1l159.44,1.51s-20.1-147.83,12.29-185.81C1074.21,906,1059.69,867.7,1043.51,837.87Z"/>
            <path class="cls-14"
                  d="M971.64,697.93s-8.76,62.59-14.88,77.8,33.65,47.74,66.75,57.61-10.11-33.6-8.74-49.86,7.39-93.24,7.39-93.24Z"/>
            <path class="cls-12"
                  d="M1020.48,712.32l1.68-22.08-50.52,7.69s-1.27,7.35-2.68,17.75C989.44,727.56,1007.85,723.81,1020.48,712.32Z"/>
            <path class="cls-14"
                  d="M987.48,583.6a57.38,57.38,0,0,0-32.2,23.25c-12.29,18.76-20.73,74,19.76,99.77s72-10.68,72.5-46.25S1040.44,577.33,987.48,583.6Z"/>
            <path class="cls-14"
                  d="M1056.81,649.23c-3.45,8.59-10.31,13.91-15.31,11.9s-6.25-10.6-2.79-19.18S1049,628,1054,630.05,1060.27,640.65,1056.81,649.23Z"/>
            <path class="cls-15"
                  d="M993.46,582.44s-25.39,56.93-47.69,62-22,33.73-22,33.73.5-66.16,21.4-81.33S993.46,582.44,993.46,582.44Z"/>
            <path class="cls-14"
                  d="M954.63,656.29c2.94,9.25.25,18.35-6,20.33s-13.69-3.9-16.63-13.14-.25-18.36,6-20.34S951.7,647,954.63,656.29Z"/>
            <path class="cls-14"
                  d="M1239.82,1067.33c-9.57-3.45-23.81-3.88-23.57-5.15,1-5.11,43.22,11.28,37.51,3.83-3.17-4.15-34.8-18.87-42.49-16.44-7.46,2.36-56.44,16.1-56.44,16.1L1021,1034.3s-33.79-76.78-37.09-142.74c-27.93,3.77-46.94,10.67-71.22,24.15,11.71,63.08,40.16,165.34,71.61,184.53,13.23,8.07,171.22-9.67,171.22-9.67s34.82-2.45,40.51-4.64c4.31-1.66,15.42-7.92,21.47-9.63,13.73-3.89,38.2,5.87,38.28,3.19C1255.81,1077.53,1249.6,1070.87,1239.82,1067.33Z"/>
            <path class="cls-8"
                  d="M984.7,821.07c-1.29-20.29-9-39.89-30.57-46.2-13.39-3.91-28.41-.17-39.1,8.57-12.73,10.39-16.28,27.06-16.22,42.84.13,35.83,2.57,73,9.12,108.26,24.28-13.47,52.61-21.57,80.54-25.34C988.46,909,986.4,847.9,984.7,821.07Z"/>
            <path class="cls-6"
                  d="M570,859.37,362.42,820.73a7.67,7.67,0,0,1-6.14-9l26-139.61a7.68,7.68,0,0,1,9-6.15l207.53,38.65a7.67,7.67,0,0,1,6.14,9l-26,139.61A7.66,7.66,0,0,1,570,859.37Z"/>
            <path class="cls-6"
                  d="M471.16,699.77,408,688a7.69,7.69,0,0,1-6.14-9l4-21.25a7.66,7.66,0,0,1,8.95-6.14l63.17,11.76a7.68,7.68,0,0,1,6.14,9l-3.95,21.24A7.68,7.68,0,0,1,471.16,699.77Z"/>
            <path class="cls-7"
                  d="M579.4,854a7.68,7.68,0,0,1-8.79,5.46L361.72,820.6a7.68,7.68,0,0,1-6.24-8.22l10.93-125.14a7.66,7.66,0,0,1,9-6.88l232.06,43.21a7.69,7.69,0,0,1,6,9.63Z"/>
            <polygon class="cls-2"
                     points="1531.27 396.76 1495.73 406.47 1488.08 363.4 1499.71 361.33 1505.1 391.67 1528.16 385.37 1531.27 396.76"/>
            <path class="cls-4"
                  d="M399.09,988.2c8.89-.72,22.56,3.2,28.69,7.35.92.86,8,3.67,15.29,15.8l-1.65,1.14c-7.73-8.08-12.93-9.9-19.12-11.75-10.2-2.63-20.48-.66-21.33-.21Z"/>
            <path class="cls-12"
                  d="M442.24,1011.92S388,1021,393.07,1063.33s62.26,75.32,113.32,49.12c68.68-35.25,41.55-124.85-7.33-131.78S442.24,1011.92,442.24,1011.92Z"/>
            <path class="cls-9"
                  d="M465.25,993.27s14.14-14.52,45.14-1.31,33.24,74.83,5.59,71.25S443.14,1002.16,465.25,993.27Z"/>
            <path class="cls-11"
                  d="M838.27,430.51l-223,79.56a13.82,13.82,0,0,1-17.65-8.37L556.43,386.3a13.83,13.83,0,0,1,8.37-17.66l223-79.56a13.82,13.82,0,0,1,17.66,8.38l41.16,115.39A13.81,13.81,0,0,1,838.27,430.51Z"/>
            <path class="cls-1" d="M690.45,400.85A44.19,44.19,0,1,1,634,374.07,44.2,44.2,0,0,1,690.45,400.85Z"/>
            <path class="cls-11" d="M655.16,394.67a13,13,0,1,1-16.66-7.9A13,13,0,0,1,655.16,394.67Z"/>
            <path class="cls-11"
                  d="M648,418.47h10.77a15.44,15.44,0,0,1,15.44,15.44v4.67a0,0,0,0,1,0,0H632.58a0,0,0,0,1,0,0v-4.68A15.44,15.44,0,0,1,648,418.47Z"
                  transform="translate(-105.99 244.44) rotate(-19.63)"/>
            <path class="cls-1"
                  d="M696,376.73a5.64,5.64,0,0,1-1.9-11L791.54,331a5.63,5.63,0,1,1,3.79,10.61L697.84,376.4A5.57,5.57,0,0,1,696,376.73Z"/>
            <path class="cls-1"
                  d="M722.26,401a5.64,5.64,0,0,1-1.89-10.95l76.14-27.16a5.83,5.83,0,0,1,1.9-.32,5.63,5.63,0,0,1,1.89,10.94L724.16,400.7A5.59,5.59,0,0,1,722.26,401Z"/>
            <path class="cls-12"
                  d="M1184.79,1300.93H646.29A30.28,30.28,0,0,0,616,1331.2v25.47A30.28,30.28,0,0,0,646.29,1387h538.5l-.28-.29A61.65,61.65,0,0,1,1184.79,1300.93Z"/>
            <path class="cls-7"
                  d="M1175.26,1313.66H887.38a30.28,30.28,0,0,0-30.28,30.28h0a30.28,30.28,0,0,0,30.28,30.28h287.87A61.74,61.74,0,0,1,1175.26,1313.66Z"/>
            <path class="cls-7"
                  d="M1625.52,1303.4,1584.7,1201a10,10,0,0,1,5.61-13l146.89-58.55a10,10,0,0,1,13,5.61l40.82,102.41a10,10,0,0,1-5.61,13L1638.57,1309A10,10,0,0,1,1625.52,1303.4Z"/>
            <path class="cls-5"
                  d="M1764.08,1244.19l-36.68-92a2.89,2.89,0,0,1,1.61-3.75h0a2.9,2.9,0,0,1,3.75,1.61l36.68,92a2.88,2.88,0,0,1-1.61,3.74h0A2.89,2.89,0,0,1,1764.08,1244.19Z"/>
            <path class="cls-5"
                  d="M1746.61,1232.06l-30.12-75.55a2.89,2.89,0,0,1,1.61-3.75h0a2.88,2.88,0,0,1,3.74,1.61l30.12,75.56a2.87,2.87,0,0,1-1.61,3.74h0A2.88,2.88,0,0,1,1746.61,1232.06Z"/>
            <path class="cls-5"
                  d="M1742.26,1252.88l-36.68-92a2.89,2.89,0,0,1,1.61-3.75h0a2.88,2.88,0,0,1,3.74,1.61l36.68,92a2.88,2.88,0,0,1-1.61,3.74h0A2.88,2.88,0,0,1,1742.26,1252.88Z"/>
            <path class="cls-5"
                  d="M1723,1236.23l-28.31-71a2.89,2.89,0,0,1,1.61-3.75h0a2.88,2.88,0,0,1,3.74,1.61l28.31,71a2.88,2.88,0,0,1-1.61,3.74h0A2.88,2.88,0,0,1,1723,1236.23Z"/>
            <path class="cls-4"
                  d="M1763.1,1142.35l-.74-1.86a1.29,1.29,0,0,0-1.66-.77l-13.94,5.56a1.28,1.28,0,0,0-.67,1.69l.74,1.86a1.3,1.3,0,0,0,1.66.77l13.94-5.56A1.28,1.28,0,0,0,1763.1,1142.35Z"/>
            <path class="cls-4"
                  d="M1766.26,1150.27l-.74-1.85a1.29,1.29,0,0,0-1.66-.77l-13.94,5.55a1.3,1.3,0,0,0-.67,1.7l.74,1.85a1.3,1.3,0,0,0,1.66.78l13.94-5.56A1.3,1.3,0,0,0,1766.26,1150.27Z"/>
            <path class="cls-4"
                  d="M1769.41,1158.2l-.73-1.86a1.3,1.3,0,0,0-1.66-.77l-13.94,5.56a1.3,1.3,0,0,0-.67,1.7l.74,1.85a1.29,1.29,0,0,0,1.66.77l13.94-5.55A1.29,1.29,0,0,0,1769.41,1158.2Z"/>
            <path class="cls-4"
                  d="M1772.57,1166.12l-.73-1.85a1.3,1.3,0,0,0-1.66-.77l-13.94,5.56a1.28,1.28,0,0,0-.67,1.69l.74,1.86a1.28,1.28,0,0,0,1.65.77l13.94-5.56A1.28,1.28,0,0,0,1772.57,1166.12Z"/>
            <path class="cls-4"
                  d="M1775.73,1174.05l-.73-1.85a1.29,1.29,0,0,0-1.66-.77L1759.4,1177a1.3,1.3,0,0,0-.67,1.7l.74,1.85a1.29,1.29,0,0,0,1.65.78l13.94-5.56A1.28,1.28,0,0,0,1775.73,1174.05Z"/>
            <path class="cls-4"
                  d="M1778.89,1182l-.74-1.86a1.29,1.29,0,0,0-1.65-.77l-13.94,5.56a1.29,1.29,0,0,0-.67,1.7l.74,1.85a1.28,1.28,0,0,0,1.65.77l13.94-5.55A1.29,1.29,0,0,0,1778.89,1182Z"/>
            <path class="cls-4"
                  d="M1782.05,1189.9l-.74-1.85a1.28,1.28,0,0,0-1.65-.77l-13.94,5.55a1.3,1.3,0,0,0-.67,1.7l.74,1.86a1.29,1.29,0,0,0,1.65.77l13.94-5.56A1.29,1.29,0,0,0,1782.05,1189.9Z"/>
            <path class="cls-4"
                  d="M1785.21,1197.83l-.74-1.85a1.29,1.29,0,0,0-1.65-.78l-13.94,5.56a1.3,1.3,0,0,0-.67,1.7l.74,1.85a1.28,1.28,0,0,0,1.65.77l13.94-5.55A1.3,1.3,0,0,0,1785.21,1197.83Z"/>
            <path class="cls-4"
                  d="M1788.37,1205.75l-.74-1.85a1.29,1.29,0,0,0-1.65-.77l-13.94,5.56a1.29,1.29,0,0,0-.67,1.7l.74,1.85a1.28,1.28,0,0,0,1.65.77l13.94-5.56A1.29,1.29,0,0,0,1788.37,1205.75Z"/>
            <path class="cls-4"
                  d="M1791.53,1213.68l-.74-1.85a1.28,1.28,0,0,0-1.65-.77l-13.94,5.55a1.3,1.3,0,0,0-.67,1.7l.74,1.85a1.29,1.29,0,0,0,1.65.78l13.94-5.56A1.3,1.3,0,0,0,1791.53,1213.68Z"/>
            <path class="cls-4"
                  d="M1794.69,1221.61l-.74-1.86a1.29,1.29,0,0,0-1.65-.77l-13.94,5.56a1.28,1.28,0,0,0-.67,1.7l.73,1.85a1.3,1.3,0,0,0,1.66.77l13.94-5.55A1.3,1.3,0,0,0,1794.69,1221.61Z"/>
            <path class="cls-4"
                  d="M1797.85,1229.53l-.74-1.85a1.28,1.28,0,0,0-1.65-.77l-13.94,5.56a1.27,1.27,0,0,0-.67,1.69l.73,1.86a1.3,1.3,0,0,0,1.66.77l13.94-5.56A1.29,1.29,0,0,0,1797.85,1229.53Z"/>
            <path class="cls-10"
                  d="M1836.36,1221.38l-58.29,83a2,2,0,0,0-.31.6l-5.94,18.24a2.28,2.28,0,0,0,3.55,2.53L1791,1314a2.2,2.2,0,0,0,.5-.51l58.44-83.22a2.28,2.28,0,0,0-.64-3.24l-9.81-6.27A2.3,2.3,0,0,0,1836.36,1221.38Z"/>
            <path class="cls-6"
                  d="M1791.4,1313.58l-.14.21-15.06,11.34-4.1-2.74,5.63-17.29C1782.14,1307.51,1787.42,1310,1791.4,1313.58Z"/>
            <path class="cls-5"
                  d="M1245.77,322.71c8.39,6.7,23,28.25,41.61,43.38,10.9,8.85,19.29,6.6,33.2,8.28,66,8,48.1,21.46,56,22.79-2.24,5.17-22.8,48.87-26.64,57.7-3.55,8.15-9.67,11.79-18.55,10.56-13.64-1.88-27.41-3.29-40.85-6.2-34.43-7.47-53.59-24.69-78.27-45.61-6.55-5.55-8.16-12.47-4.77-20.31C1223.31,356.79,1244.05,326.07,1245.77,322.71Z"/>
            <path class="cls-11"
                  d="M1383.74,449.72c-.3,14.38.81,17.27-5.37,15.09a88.09,88.09,0,0,1-10.83-4.84c-2.48-1.28-2.57-3-.56-5,2.93-2.95,5.94-5.81,8.87-8.67a12.72,12.72,0,0,1,5.59-15.29c1.07-.63.29.71,9.47-20.44-30.38-3.75-51.82-6.26-88.9-10.82a49.84,49.84,0,0,1-26.39-11.49q-39.72-33.22-79.42-66.49c-3.59-3-4-7.41-1.19-10.81,2.18-2.59,5.07-2.71,8.17-2.33,8.47,1.06,91.42,11.37,99.84,12.36a54.55,54.55,0,0,1,29.37,12.62q39,32.69,78.14,65.24c3.58,3,4.54,5.72,3.29,9-1.38,3.64-4.39,5.38-8.94,4.4-3.29-.71-4.75.28-5.88,3.32-5.11,13.76-8.67,16.8-7.44,21.82C1392.51,441.33,1387.91,448,1383.74,449.72Z"/>
            <path class="cls-5"
                  d="M1521.36,1426.54l15.12,14.41a401.92,401.92,0,0,1,86,119.2l2.32,4.91s39.59,3.49,45.12-32.3h0A597.68,597.68,0,0,1,1583,1405.1l-7.16-16.73Z"/>
            <path class="cls-11"
                  d="M1575.83,1388.32c1.94,2.78-8.68,13.55-23.72,24s-28.88,16.86-30.82,14.08,8.74-13.68,23.78-24.17S1573.88,1385.53,1575.83,1388.32Z"/>
            <path class="cls-4"
                  d="M1575.89,1388.42l-.05-.06s-30.14,25.51-42.56,28.12l3.84,5.22a160.77,160.77,0,0,0,15-9.34C1567,1402,1577.52,1391.35,1575.89,1388.42Z"/>
            <path class="cls-10"
                  d="M1616.15,1462.48c0,4.4-1.63,23.37-33.21,31.3q3.12,4.23,6.13,8.56c20-5.91,29-16.17,33-24,.64-1.24,1.41-2.9,1.93-4.18Q1620,1468.38,1616.15,1462.48Z"/>
            <polygon class="cls-10"
                     points="1585.78 1488.16 1539.31 1486.5 1550.32 1495.85 1543.74 1507.79 1587.72 1496.58 1585.78 1488.16"/>
            <polygon class="cls-10"
                     points="1590.01 1498.97 1573.5 1527.73 1585.11 1523.31 1589.59 1532.45 1597.35 1502.2 1590.01 1498.97"/>
            <path class="cls-12" d="M1596.32,1506.77a15.27,15.27,0,1,1,13.7-16.27A15,15,0,0,1,1596.32,1506.77Z"/>
            <path class="cls-16"
                  d="M1695,854.17l-97.86-87.33c-6.36-5.67-3.72-17.35,5.06-22.31l78.1-44.23c5-2.83,10.63-2.57,14.26.67l97.86,87.33c6.36,5.67,3.71,17.35-5.06,22.31l-78.1,44.23C1704.22,857.67,1698.58,857.41,1695,854.17Z"/>
            <path class="cls-1"
                  d="M1690.32,784.7l-8.16-67.09a6,6,0,0,1,4.18-6.13c2.62-.82,5,.6,5.31,3.17l7.51,61.74,74.21,18c2.42.58,3.54,3.19,2.49,5.82s-3.86,4.3-6.28,3.71Z"/>
            <path class="cls-13"
                  d="M38.2,1693.44c-5.24,0-9.48,4.91-9.48,11s4.24,11,10.61,3.61H1966.8c2.47,0,4.47-3.24,4.48-7.24h0c0-4-2-7.34-4.48-7.34Z"/>
            <polygon class="cls-6"
                     points="412.39 477.38 422.5 497.39 445.36 496.65 455.11 519.89 479.21 511.59 491.4 537.38 514.53 532.48 530.31 555.38 521.64 561.35 509.85 544.23 485.44 549.4 473.72 524.61 449.22 533.04 438.46 507.41 416.14 508.13 406.76 489.58 392.21 493.12 389.72 482.89 412.39 477.38"/>
            <polygon class="cls-2"
                     points="1636.27 989.29 1657.04 997.73 1673.78 982.15 1696.4 993.27 1709.12 971.18 1735.25 982.62 1749.47 963.73 1776.41 970.62 1773.8 980.82 1753.66 975.66 1738.65 995.6 1713.53 984.61 1700.6 1007.06 1675.64 994.8 1659.29 1010 1640.04 1002.18 1631.39 1014.41 1622.8 1008.33 1636.27 989.29"/>
        </g>
    </g>
</svg>