<svg xmlns="http://www.w3.org/2000/svg" xmlns:xlink="http://www.w3.org/1999/xlink" viewBox="0 0 500 500"><defs><style>.cls-1,.cls-14,.cls-15,.cls-18,.cls-20,.cls-26,.cls-28,.cls-30,.cls-42,.cls-43,.cls-49,.cls-53,.cls-55,.cls-6,.cls-61{fill:none;}.cls-2{isolation:isolate;}.cls-3{fill:#bcdae5;}.cls-37,.cls-4{fill:#03093e;}.cls-4{opacity:0.09;}.cls-37,.cls-4,.cls-8{mix-blend-mode:multiply;}.cls-5{fill:#fff;}.cls-6{stroke:#173040;}.cls-14,.cls-15,.cls-18,.cls-20,.cls-26,.cls-28,.cls-30,.cls-34,.cls-42,.cls-43,.cls-49,.cls-55,.cls-6,.cls-61{stroke-linecap:round;}.cls-14,.cls-15,.cls-18,.cls-20,.cls-26,.cls-28,.cls-30,.cls-34,.cls-42,.cls-43,.cls-49,.cls-53,.cls-55,.cls-6,.cls-61{stroke-linejoin:round;}.cls-7{fill:#79a3b3;}.cls-8{fill:#03203e;}.cls-37,.cls-8{opacity:0.15;}.cls-9{fill:#8fb8c7;}.cls-10,.cls-62{fill:#f8da84;}.cls-11{clip-path:url(#clip-path);}.cls-12{fill:#a84da7;}.cls-13{fill:#b861b7;}.cls-14{stroke:#d47dd3;}.cls-15{stroke:#b861b7;}.cls-16{fill:#00af66;}.cls-17{clip-path:url(#clip-path-2);}.cls-18,.cls-34{stroke:#009c5b;}.cls-19{clip-path:url(#clip-path-3);}.cls-20{stroke:#00c774;}.cls-21{clip-path:url(#clip-path-4);}.cls-22{clip-path:url(#clip-path-5);}.cls-23,.cls-63,.cls-64{fill:#173040;}.cls-24{fill:#543730;}.cls-25{clip-path:url(#clip-path-6);}.cls-26{stroke:#7a5046;}.cls-27{clip-path:url(#clip-path-7);}.cls-28{stroke:#bcdae5;}.cls-29{clip-path:url(#clip-path-8);}.cls-30{stroke:#fff;}.cls-31{clip-path:url(#clip-path-9);}.cls-32{clip-path:url(#clip-path-10);}.cls-33{clip-path:url(#clip-path-11);}.cls-34{fill:#009c5b;}.cls-35{clip-path:url(#clip-path-12);}.cls-36{clip-path:url(#clip-path-13);}.cls-38{clip-path:url(#clip-path-14);}.cls-39{clip-path:url(#clip-path-15);}.cls-40{fill:#f67d4e;}.cls-41{fill:#e66635;}.cls-42{stroke:#e66635;}.cls-43{stroke:#f67d4e;}.cls-44{clip-path:url(#clip-path-16);}.cls-45{clip-path:url(#clip-path-17);}.cls-46{clip-path:url(#clip-path-18);}.cls-47{fill:#de3c14;}.cls-48{clip-path:url(#clip-path-19);}.cls-49{stroke:#e65f3e;}.cls-50{clip-path:url(#clip-path-20);}.cls-51{clip-path:url(#clip-path-21);}.cls-52{fill:#cf9669;}.cls-53{stroke:#ba7d4c;}.cls-54{fill:#e1b592;}.cls-55{stroke:#cf9669;}.cls-56{clip-path:url(#clip-path-22);}.cls-57{clip-path:url(#clip-path-23);}.cls-58{clip-path:url(#clip-path-24);}.cls-59{clip-path:url(#clip-path-25);}.cls-60{fill:#ccdbde;}.cls-61{stroke:#c1cfd6;}.cls-62{opacity:0.3;}.cls-63{font-size:21px;font-family:Caveat-Bold, Caveat;font-weight:700;letter-spacing:-0.03em;}.cls-64{font-size:12px;font-family:Caveat-Regular, Caveat;}.cls-65{letter-spacing:-0.02em;}.cls-66{letter-spacing:0.02em;}.cls-67{letter-spacing:0.01em;}.cls-68{letter-spacing:0.05em;}.cls-69{letter-spacing:-0.01em;}</style><clipPath id="clip-path"><path class="cls-1" d="M127.09,219.09,114,237.23,57.26,295.8s-39.66-1.08-41.45-2.12S6.9,43.9,6.9,43.9,132.19,24.42,259.83,22.44s222,27.38,222,27.38L495.08,238l-29.29,76.1-95.76-97a29.61,29.61,0,0,1-6.48,18.22c-6,7.61-14.8,12.36-23.58,16.25-59.4,26.32-129.55,21.4-188.43-6.11-5.67-2.65-11.33-5.55-15.95-9.83s-8.16-10.13-8.5-16.51c0-.36,0-.71,0-1.07"/></clipPath><clipPath id="clip-path-2"><path class="cls-1" d="M434.24,129.69a145.38,145.38,0,0,0,8.81-69.22,11.41,11.41,0,0,1,8,1.07,162.35,162.35,0,0,1-9.88,71.4A28.25,28.25,0,0,1,434.24,129.69Z"/></clipPath><clipPath id="clip-path-3"><path class="cls-1" d="M441.93,116.89A195.77,195.77,0,0,1,469,56.67s5.88,4.44,5.83,5.32a203.37,203.37,0,0,0-27.28,56.9C445.86,118.44,444.3,117.54,441.93,116.89Z"/></clipPath><clipPath id="clip-path-4"><path class="cls-1" d="M481.83,83.37l-3.66-6.58C464.47,86,453.31,99.62,446.33,117a11.25,11.25,0,0,0,4.91,3.83C457.73,106.47,467.91,93.89,481.83,83.37Z"/></clipPath><clipPath id="clip-path-5"><path class="cls-1" d="M444.48,109.43c-10.22-5.06-22.33-7.49-33.1-3.74S392,120.56,393.75,131.83c1.33,8.6,7.87,15.31,12.15,22.88,6.46,11.43,7.74,25.66,5.72,39.72,1.91-9.21,11.55-14.62,20.64-17s18.94-3.22,26.7-8.53c9.71-6.65,14-19.67,11.69-31.21S459.82,117,444.48,109.43Z"/></clipPath><clipPath id="clip-path-6"><path class="cls-1" d="M478.57,229.85a6.8,6.8,0,0,0-.16-1c-1.16-4.72-6.22-7.3-10.9-8.63-15.13-4.31-31.49-1.94-46.35,3.23a24.06,24.06,0,0,0-7.82,4,10,10,0,0,0-3.51,5.86,28.3,28.3,0,0,0,8.84,4.41c17.1,5.76,36.77,5.48,52.82-2.54A19.4,19.4,0,0,0,478.57,229.85Z"/></clipPath><clipPath id="clip-path-7"><path class="cls-1" d="M239.66,214.59c-1.22,5.14-7.34,7.58-12.63,7.36s-10.38-2.24-15.66-2.37c-9.79-.25-19.12,6.49-22.84,15.56s-2.1,19.87,3.29,28.05,14.24,13.77,23.73,16.2c8.46,2.16,17.81,1.84,25.48-2.34s13.22-12.65,12.59-21.36c-.53-7.27-5-13.55-8.66-19.84S238.22,222,239.66,214.59Z"/></clipPath><clipPath id="clip-path-8"><path class="cls-1" d="M289,262.19a21.53,21.53,0,0,0-6.5-12.37,32.64,32.64,0,0,0-10-6.49,150.74,150.74,0,0,0-13.71,36.47,24.69,24.69,0,0,0,8.75,1c6.22-.15,13-1.06,17.36-5.47A15.8,15.8,0,0,0,289,262.19Z"/></clipPath><clipPath id="clip-path-9"><path class="cls-1" d="M196.68,192.91A21.57,21.57,0,0,0,188,203.83,32.76,32.76,0,0,0,186,215.62a150.57,150.57,0,0,0,38.91-2.06,24.89,24.89,0,0,0-2.62-8.4c-2.64-5.64-6.17-11.46-12-13.71A15.81,15.81,0,0,0,196.68,192.91Z"/></clipPath><clipPath id="clip-path-10"><path class="cls-1" d="M249.15,202.51a88.42,88.42,0,0,0,7.07,34.85,31,31,0,0,0,16-14.32c1.63-3.13,2.73-6.79,1.78-10.19s-4-6.15-7.2-7.87A26.28,26.28,0,0,0,249.15,202.51Z"/></clipPath><clipPath id="clip-path-11"><path class="cls-1" d="M353.38,226.11c-6.51-9.57-13.07-19.24-17.44-30-1-2.39-1.6-5.63.5-7.11a4.1,4.1,0,0,1,4.59.34c1.33,1,2.2,2.39,4.05,3.88a51.48,51.48,0,0,1-5.91-22,14.16,14.16,0,0,1,.86-6.37,5.9,5.9,0,0,1,4.9-3.7c2.16-.07,4.32,1.93,5.11,4.43a58.16,58.16,0,0,1-.83-16.54,29,29,0,0,1,6.09-15.2c1.83-2.21,4.41-4.18,7.27-4,3.3.25,5.7,3.3,7,6.36,3.72,9.07,1.09,19.36.15,29.49.39-1.78,2.66-2.7,4.36-2a5.18,5.18,0,0,1,3,4.27,13.07,13.07,0,0,1-.76,5.38c-1.84,6-4.7,11.57-7.35,17.69a3.1,3.1,0,0,1,4-1.69,4.78,4.78,0,0,1,2.72,3.81,11.27,11.27,0,0,1-.58,4.84C371.65,209.74,362.82,219,353.38,226.11Z"/></clipPath><clipPath id="clip-path-12"><path class="cls-1" d="M325.46,253a52,52,0,0,1-25.3-19.27c-1.36-2-2.56-4.73-1-6.58s4.32-1.24,7.78.37a50,50,0,0,1-12.81-26.64,10.14,10.14,0,0,1,0-4,4.07,4.07,0,0,1,2.46-2.93c1.26-.42,2.88.19,4.72,1.82a44.5,44.5,0,0,1,1.92-29.43,16.45,16.45,0,0,1,4.19-6.28,7.46,7.46,0,0,1,7.09-1.65c2.33.83,3.88,3.08,4.83,5.38,3,7.28,1.53,15.56.33,26.14,1.24-1.65,3-3.5,5-2.94a3.48,3.48,0,0,1,2.22,2.49A9.8,9.8,0,0,1,327,193c-.7,9.33-2,18.61-2.89,28.65a11.3,11.3,0,0,1,2.76-3,3.82,3.82,0,0,1,3.86-.36c1.42.8,1.85,2.62,2,4.24C333.89,232.84,330.08,242.92,325.46,253Z"/></clipPath><clipPath id="clip-path-13"><path class="cls-1" d="M27.72,48.87c.54,3.06,1.1,6.13,1.65,9.19a72.67,72.67,0,0,1-4.58-8c-.73.33-1.46.7-2.2,1.06a151.57,151.57,0,0,0,50.78,61.54,3.14,3.14,0,0,0,1.47-3.06c-.23-1.9-2-3.95-3.57-5.52-.37-.34-.73-.7-1.09-1.06A178.59,178.59,0,0,1,32.3,48.25,11.83,11.83,0,0,0,27.72,48.87Z"/></clipPath><clipPath id="clip-path-14"><path class="cls-1" d="M75.46,110.29s-10-10.75-14.77-30S44.13,53.66,44.13,53.66l1.73-2.1,6,5.12-4.5-7.09,2.29-2.13L53.36,52l-2.58-5.28.85-.49s12.59,12.7,14.56,28.55,6.62,26.38,12.41,32.53Z"/></clipPath><clipPath id="clip-path-15"><path class="cls-1" d="M77,62.1c-.57,3-1.11,6.12-1.55,9.57q2.2-3.9,4.38-7.8c1.17.75,2.43,1.54,4,2.52C77.8,78,78.59,92.81,84,104.79a16.2,16.2,0,0,1-4.64,2c-7.82-14-9.44-31.29-4-45.64C75.91,61.46,76.47,61.78,77,62.1Z"/></clipPath><clipPath id="clip-path-16"><path class="cls-1" d="M168.06,70c-4.71,8-5.72,17.17-7.25,26a119.72,119.72,0,0,1-4.11,18.09,2.69,2.69,0,0,1-2.68-.79c-.73-8.37-1.44-16.78-1-25.16s2.24-16.8,6.21-24.21c0,0,1.62.87,3.48,2a22.9,22.9,0,0,0-1.86,5.79c-.67,3.22-1.09,6.54-2.18,10.37,2.41-3.79,3.71-8.16,5.68-12.19.37-.73.76-1.47,1.19-2.18C167,68.65,168,69.51,168.06,70Z"/></clipPath><clipPath id="clip-path-17"><path class="cls-1" d="M151.6,114.27c0,.07.1.12-4.62-1-1.24-10-5.27-19.38-8-29.07s-4-20.36,0-29.57c0,0,1.14.31,2.63.8a25.84,25.84,0,0,0-.56,10.43,57,57,0,0,1,4.08-9.09c1.67.73,3.12,1.58,3.39,2.41-3.62,8.6-2.2,18.42-.15,27.52S153.08,105.1,151.6,114.27Z"/></clipPath><clipPath id="clip-path-18"><path class="cls-1" d="M117.8,80.15c2.44,1.13,5,2.29,7.72,3.53A82.88,82.88,0,0,0,120,77.09a22.33,22.33,0,0,1,3.61-3.26,65.64,65.64,0,0,1,22.89,40.49c-1.6.44-3.2.88-4.26,1.19-3.41-13.81-13.08-25.94-26.06-31.77A20.69,20.69,0,0,1,117.8,80.15Z"/></clipPath><clipPath id="clip-path-19"><path class="cls-1" d="M28.6,237.65a24.35,24.35,0,0,1,25.9.88,23.83,23.83,0,0,1,9.37,24.09A23.36,23.36,0,0,1,45,280.21a22.91,22.91,0,0,1-23-11.52C17.74,260.63,15.36,245.6,28.6,237.65Z"/></clipPath><clipPath id="clip-path-20"><path class="cls-1" d="M47.93,175.37C37.34,171,23.74,176.36,19,186.8s.18,24.21,10.46,29.3,24.2.63,29.63-9.47S61.29,180.9,47.93,175.37Z"/></clipPath><clipPath id="clip-path-21"><path class="cls-1" d="M99.16,200.62a24.36,24.36,0,0,0-25.6,4,23.86,23.86,0,0,0-6.35,25.06,23.36,23.36,0,0,0,20.86,15.15,22.89,22.89,0,0,0,21.4-14.25C112.75,222.09,113.27,206.89,99.16,200.62Z"/></clipPath><clipPath id="clip-path-22"><path class="cls-1" d="M302.14,76.73a18.32,18.32,0,0,0-10.59,3.86c.23,4.52,2.56,8.61,4,12.89s1.88,9.51-1.15,12.87c-1.78,2-4.4,2.89-6.68,4.24-6.24,3.69-10.09,11.46-8.34,18.5s9.55,12.23,18.65,12c2.91,5.52,10.48,7.42,16.31,5.19s9.94-7.67,12.24-14A24.17,24.17,0,0,0,337,127.77a14.55,14.55,0,0,0,5.57-9.64c.64-6.38-4.06-12.33-9.79-15.2s-12.41-1.3-16.7-2.48C308.07,98.23,305.32,87.57,302.14,76.73Z"/></clipPath><clipPath id="clip-path-23"><path class="cls-1" d="M271.49,149.64c-3.51-2.17-7.1-4.4-9.64-7.65s-3.87-7.78-2.28-11.58c1-2.35,3.37-4.33,5.89-4,2.72.39,4.38,3.1,5.66,5.53q2.73,5.22,5.48,10.43A12,12,0,0,1,278,146a4,4,0,0,1-1,3.55C276.08,150.38,274.07,151.23,271.49,149.64Z"/></clipPath><clipPath id="clip-path-24"><path class="cls-1" d="M344.9,77.31c1.72,3.75,3.46,7.6,3.78,11.71s-1.1,8.61-4.54,10.9c-2.12,1.41-5.2,1.72-7.1,0s-1.92-5-1.63-7.73l1.23-11.72a11.65,11.65,0,0,1,.81-3.74,4,4,0,0,1,2.79-2.4C341.51,74.14,343.64,74.55,344.9,77.31Z"/></clipPath><clipPath id="clip-path-25"><path class="cls-1" d="M318.59,61.34c-2.81.92-4.43,4.08-4.43,7s1.28,5.78,2.67,8.4a86.07,86.07,0,0,0,5.24,8.57c.92,1.32,2.17,2.75,3.77,2.6s2.63-2,3.15-3.61a36.33,36.33,0,0,0,1.69-13.58,15.32,15.32,0,0,0-2.39-8C326.65,60.5,323.94,59.58,318.59,61.34Z"/></clipPath></defs><g class="cls-2"><g id="BACKGROUND"><rect class="cls-3" width="500" height="500"/><path class="cls-4" d="M60.63,338.3c-23.85,57.76,41.93,154.19,206.51,141.53S472.8,390.1,450.7,322.17,324.89,290.93,259.22,292,92.28,261.65,60.63,338.3Z"/><path class="cls-4" d="M437.51,452.54c4.32-11.9,23.16-2,18.7,8.7S432.76,465.59,437.51,452.54Z"/><path class="cls-3" d="M84,366.05c4.33-11.9,23.16-2,18.71,8.71S79.25,379.11,84,366.05Z"/><path class="cls-4" d="M84,40.32c4.33-11.9,23.16-2,18.71,8.7S79.25,53.37,84,40.32Z"/><path class="cls-4" d="M35.8,304.76c1.72-4.74,9.22-.79,7.44,3.47S33.9,310,35.8,304.76Z"/><path class="cls-4" d="M452.5,274.35c1.72-4.74,9.22-.79,7.45,3.47S450.61,279.55,452.5,274.35Z"/><path class="cls-4" d="M295.16,42.94c1.72-4.74,9.22-.79,7.44,3.46S293.27,48.13,295.16,42.94Z"/><path class="cls-4" d="M48.18,445.39c1.72-4.74,9.22-.78,7.44,3.47S46.29,450.59,48.18,445.39Z"/><path class="cls-5" d="M43.19,428.1c4.72-.67,3,5.83,0,5.57S39.63,428.61,43.19,428.1Z"/><path class="cls-5" d="M126.83,32.14c4.72-.67,3,5.83,0,5.57S123.27,32.65,126.83,32.14Z"/><path class="cls-5" d="M436.52,270.69c4.72-.67,3,5.82,0,5.57S433,271.19,436.52,270.69Z"/><path class="cls-5" d="M471.92,167.16c4.72-.67,3,5.83,0,5.58S468.36,167.67,471.92,167.16Z"/><path class="cls-5" d="M47.64,323.25c4.72-.68,3,5.82,0,5.57S44.08,323.75,47.64,323.25Z"/><path class="cls-5" d="M409.32,330.21c4.72-.67,3,5.83,0,5.57S405.76,330.72,409.32,330.21Z"/><path class="cls-5" d="M109.52,467.22c4.71-.67,3,5.83,0,5.58S106,467.73,109.52,467.22Z"/><path class="cls-3" d="M433.83,346.07c4.72-.67,3,5.82,0,5.57S430.27,346.58,433.83,346.07Z"/><circle class="cls-6" cx="60" cy="166.91" r="2.08"/><circle class="cls-6" cx="412.24" cy="386.66" r="2.08"/><path class="cls-6" d="M464.37,424.74a2.08,2.08,0,1,0-2.08,2.08A2.08,2.08,0,0,0,464.37,424.74Z"/><circle class="cls-6" cx="94.52" cy="84.73" r="2.08"/><circle class="cls-6" cx="340.58" cy="41.51" r="2.08"/><circle class="cls-6" cx="98.18" cy="409.42" r="2.08"/><circle class="cls-6" cx="32.31" cy="391.22" r="2.08"/><path class="cls-6" d="M394.88,172.55a2.08,2.08,0,1,0-2.08,2.08A2.08,2.08,0,0,0,394.88,172.55Z"/><path class="cls-6" d="M467.67,37.85a2.08,2.08,0,1,0-2.08,2.07A2.08,2.08,0,0,0,467.67,37.85Z"/></g><g id="OBJECTS"><path class="cls-7" d="M125.12,300.88c-7.48-.92-15-1.84-22.14-4.34s-13.85-6.7-18-13-5.38-14.8-1.83-21.44c3.77-7.07,12.16-10.77,20.17-10.83s15.72,3,22.89,6.52L125,268.49a37.16,37.16,0,0,0-21.87-6c-3.33.14-7,1-8.78,3.85-1.58,2.62-.9,6.06.55,8.75,2.48,4.62,6.91,7.93,11.7,10s10,3.14,15.11,4.15Z"/><path class="cls-8" d="M121.69,289.24c-2.55-.5-5.11-1-7.62-1.64-.06,1.81-.11,3.6-.13,5.32a64.49,64.49,0,0,1-32.82-20.41A23.41,23.41,0,0,0,85,283.56c4.17,6.28,10.91,10.49,18,13s14.66,3.42,22.14,4.34Z"/><path class="cls-8" d="M115.6,258.54c-16.07-3-23.56,5.83-22.12,12.2h0a7,7,0,0,1,.85-4.45c1.73-2.85,5.45-3.71,8.78-3.85a37.16,37.16,0,0,1,21.87,6l1.21-10.68A79,79,0,0,0,116,253.49C115.86,254.9,115.74,256.61,115.6,258.54Z"/><path class="cls-7" d="M376.51,293.68c7.48-.92,15-1.84,22.14-4.34s13.85-6.7,18-13,5.38-14.79,1.83-21.44c-3.77-7.07-12.16-10.77-20.17-10.83s-15.72,2.95-22.89,6.52l1.2,10.68a37.28,37.28,0,0,1,21.88-6c3.33.14,7.05,1,8.78,3.85,1.58,2.62.9,6.06-.55,8.75-2.48,4.62-6.91,7.93-11.7,10s-10,3.14-15.11,4.15Z"/><path class="cls-8" d="M376.64,261.29a37.28,37.28,0,0,1,21.88-6c3.08.13,6.49.9,8.35,3.28l-.06-.11c-3-5.5-10.36-6.73-16.48-6.7-.48-2.5-.91-4.68-1.27-6.43a69,69,0,0,0-13.62,5.32Z"/><path class="cls-8" d="M416.67,276.36a23.48,23.48,0,0,0,3.91-11.95,49.41,49.41,0,0,1-25.31,19.94c-.21-2.07-.46-4.16-.72-6.25A73.15,73.15,0,0,1,379.94,282l-3.43,11.64c7.48-.92,15-1.84,22.14-4.34S412.5,282.64,416.67,276.36Z"/><path class="cls-7" d="M377.38,217.33c9.34,68.77,12.52,127.17,9.71,196.8-1,25.26-16.63,46.07-37,49.27A546,546,0,0,1,158,459.29c-19.06-3.82-33.71-22.92-35.57-46.56-5.45-69.27-5.31-127.64-.18-195.66Z"/><path class="cls-8" d="M387.87,346a148.21,148.21,0,0,1-40.34,42.53c-23.34,16.62-50.68,27.06-78.66,33.24-47.2,10.43-97,8.93-145.78-3.39,3.57,21,17.35,37.38,34.86,40.89a546,546,0,0,0,192.11,4.11c20.4-3.2,36-24,37-49.27C388.05,390.41,388.31,368,387.87,346Z"/><path class="cls-9" d="M250.68,169.93c-31.39,0-123.3,3.79-128.28,44.61-2.12,17.38,10.76,29,24.71,35.47,52.8,24.47,152.26,39.78,214.39-6.1C408.2,209.42,346.94,169.93,250.68,169.93Z"/><path class="cls-5" d="M250.24,175c-33.35-.47-67.5,2.41-98.35,15.42-6.15,2.59-12.24,5.72-17,10.47s-8.14,11.37-7.78,18.18c.34,6.38,3.87,12.24,8.5,16.51s10.28,7.18,15.95,9.83c58.88,27.51,129,32.43,188.43,6.11,8.78-3.89,17.55-8.64,23.58-16.25s8.7-18.73,4.31-27.44c-3.69-7.32-11.36-11.48-18.79-14.62C318.71,180.38,285.45,175.51,250.24,175Z"/><path class="cls-10" d="M361.09,238.08a18,18,0,0,0,.15-6c-1-6.35-6.12-11.46-11.95-14.18s-12.37-3.46-18.78-4.08c-55.63-5.4-112.46-5-166.55,9.13-5.34,1.39-10.84,3-15,6.67-3.37,3-5.55,7.67-4.93,12,2.43,1.38,4.95,2.62,7.48,3.8,58.88,27.51,129,32.43,188.43,6.11C347.62,248.15,355.26,244.11,361.09,238.08Z"/><g class="cls-11"><path class="cls-4" d="M412.44,59.89c-8.9-4.93-20.54-4.06-28.93,1.68s-13.37,16-13.27,26.13a36.18,36.18,0,0,0,12.84,26.67c5.55,4.71,12.66,7.84,19.94,7.63,13.49-.38,24.77-12.76,26.43-26.16S425.73,67.25,412.44,59.89Z"/><path class="cls-4" d="M457.51,119A98.44,98.44,0,0,1,485,88.76l-3.59-6.63a84.41,84.41,0,0,0-26,27.34A203.11,203.11,0,0,1,478.24,67.3c.06-.89-5.76-5.4-5.76-5.4A196.11,196.11,0,0,0,454,95.13a159.57,159.57,0,0,0,.41-28.58,11.39,11.39,0,0,0-7.95-1.17,145.19,145.19,0,0,1-2.67,46.42c-8.83-3.4-18.57-4.61-27.46-1.64-10.82,3.61-19.54,14.63-17.94,25.92,1.21,8.62,7.67,15.4,11.86,23,6.31,11.5,7.42,25.75,5.23,39.78,2-9.18,11.73-14.47,20.85-16.77s19-3,26.8-8.2c9.79-6.53,14.25-19.49,12.08-31.06C473.49,133.54,467.68,125.74,457.51,119Z"/><path class="cls-12" d="M407.31,57.2c-9.08-4.6-20.68-3.32-28.86,2.72s-12.78,16.44-12.31,26.6a36.19,36.19,0,0,0,13.8,26.18c5.71,4.51,12.93,7.38,20.2,6.91,13.47-.87,24.29-13.65,25.47-27.1S420.86,64.07,407.31,57.2Z"/><path class="cls-13" d="M408.64,68.73c-5.76-5.07-14.73-5.93-21.55-2.4a22,22,0,0,0-11.44,18.74,25,25,0,0,0,9.76,20c4,3.06,9.19,5,14,3.71s8.25-5.26,10.43-9.62C414.29,90.31,417.61,76.62,408.64,68.73Z"/><path class="cls-14" d="M407.85,75.69A14.23,14.23,0,0,0,393,69.06a16.33,16.33,0,0,0-12.08,11.31A19.19,19.19,0,0,0,384,96.85c2.83,3.85,7.37,6.76,12.14,6.42,5.16-.36,9.45-4.44,11.68-9.1C410.48,88.68,411.31,81.88,407.85,75.69Z"/><path class="cls-14" d="M402.3,76.36C405.82,80.28,407.62,86,406,91s-7.27,8.68-12.37,7.31A11.58,11.58,0,0,1,387,93.09c-2.6-4.16-3-9.82-.35-14S397,70.48,402.3,76.36Z"/><path class="cls-14" d="M401.53,83.63a6.07,6.07,0,1,0-2.6,8.83A6.09,6.09,0,0,0,401.53,83.63Z"/><path class="cls-15" d="M404.8,60.67c-6.27-3.15-14.15-2.14-20,1.71s-9.79,10.22-11.62,17c-2,7.29-1.64,15.33,1.71,22.1s9.84,12.09,17.3,13.25c8.09,1.27,16.6-2.53,21.62-9s6.66-15.25,5-23.27S413.76,65.17,404.8,60.67Z"/><path class="cls-8" d="M423.25,101.77c-18-1.83-26.43,10.22-29.81,17.36a25.09,25.09,0,0,0,6.7.48C410.43,119,419.17,111.33,423.25,101.77Z"/><path class="cls-16" d="M434.24,129.69a145.38,145.38,0,0,0,8.81-69.22,11.41,11.41,0,0,1,8,1.07,162.35,162.35,0,0,1-9.88,71.4A28.25,28.25,0,0,1,434.24,129.69Z"/><g class="cls-17"><path class="cls-18" d="M446.28,58.26a145.31,145.31,0,0,1-10.49,74.53"/><path class="cls-18" d="M449.1,57a148.31,148.31,0,0,1-10.59,75.85"/></g><path class="cls-8" d="M441.36,104.92a145.38,145.38,0,0,1-7.12,24.77,28.25,28.25,0,0,0,6.9,3.25,162.31,162.31,0,0,0,7.22-25.12A64,64,0,0,0,441.36,104.92Z"/><path class="cls-16" d="M441.93,116.89A195.77,195.77,0,0,1,469,56.67s5.88,4.44,5.83,5.32a203.37,203.37,0,0,0-27.28,56.9C445.86,118.44,444.3,117.54,441.93,116.89Z"/><g class="cls-19"><path class="cls-20" d="M474,55.35a247.18,247.18,0,0,0-31.27,64.59"/><path class="cls-20" d="M478,57.59c-7.4,6-12.23,14.64-16.49,23.2a311,311,0,0,0-16.66,40.45"/></g><path class="cls-8" d="M445.72,104.07q-2.12,6.34-3.79,12.82c2.37.65,3.93,1.55,5.61,2q1.83-6.11,4-12.08C449.37,105.66,447.41,104.76,445.72,104.07Z"/><path class="cls-16" d="M481.83,83.37l-3.66-6.58C464.47,86,453.31,99.62,446.33,117a11.25,11.25,0,0,0,4.91,3.83C457.73,106.47,467.91,93.89,481.83,83.37Z"/><g class="cls-21"><path class="cls-18" d="M482.62,77.4a104.25,104.25,0,0,0-36,43"/><path class="cls-18" d="M448.35,124.24a81.35,81.35,0,0,1,35.52-43.89"/></g><path class="cls-8" d="M446.33,117a11.25,11.25,0,0,0,4.91,3.83,92.24,92.24,0,0,1,4.65-8.93c-2.07-1.25-4-2.31-5.75-3.21C448.77,111.38,447.49,114.14,446.33,117Z"/><path class="cls-12" d="M444.48,109.43c-10.22-5.06-22.33-7.49-33.1-3.74S392,120.56,393.75,131.83c1.33,8.6,7.87,15.31,12.15,22.88,6.46,11.43,7.74,25.66,5.72,39.72,1.91-9.21,11.55-14.62,20.64-17s18.94-3.22,26.7-8.53c9.71-6.65,14-19.67,11.69-31.21S459.82,117,444.48,109.43Z"/><g class="cls-22"><path class="cls-15" d="M416.15,99.91c-1.83,2.41-1.8,5.86-.62,8.64a21.06,21.06,0,0,0,5.6,7.07c6.45,5.85,14.14,10.61,22.69,12.28s18-.08,24.53-5.84"/><path class="cls-15" d="M423,99.44c1,8.54,8.3,15.34,16.43,18.17S456.4,120,465,119"/><path class="cls-15" d="M402.34,104.52c1.58,8.24,6.5,15.61,12.8,21.15S429.1,135,437,137.9c7.24,2.63,14.78,4.52,21.8,7.72s13.66,7.95,17.26,14.77"/><path class="cls-15" d="M389.94,122.33c4.91,8.82,13.65,14.83,22.63,19.44s18.53,8.16,26.93,13.76,15.77,13.75,17.45,23.7"/><path class="cls-15" d="M395.38,146.11c19.86,2,38,16.21,44.65,35"/><path class="cls-15" d="M401.6,155.85a39.91,39.91,0,0,1,22.11,32.05"/></g><path class="cls-8" d="M441.7,160.22c-11.35,2.75-23.62,1.38-34.48-2.95,5.3,10.95,6.27,24.13,4.4,37.16,1.91-9.21,11.55-14.62,20.64-17s18.94-3.22,26.7-8.53c8.92-6.1,13.25-17.58,12.11-28.35A52,52,0,0,1,441.7,160.22Z"/><path class="cls-4" d="M490.75,236.3a9.76,9.76,0,0,0,.14-1.42s0,0,0-.06h0a15.91,15.91,0,0,0-4.43-11c-3.49-3.74-8-6.65-19.12-10.3a70.14,70.14,0,0,0-44,.14c-6.44,2.17-13.37,6.39-14.07,13.15-1.13,14.28,5.59,30.72,17.26,39a42.48,42.48,0,0,0,40.88,4.24C480.12,264.51,489.32,250.86,490.75,236.3Z"/><path class="cls-5" d="M402.4,226.09c1,14.28,10.17,29.53,23,36a42.5,42.5,0,0,0,41.05-2c12.1-7.66,19.24-23.31,17.87-38.39Z"/><path class="cls-8" d="M466.41,260.08c7.59-4.81,13.23-12.76,16-21.75a68.36,68.36,0,0,1-33.71,16.95A75.35,75.35,0,0,1,414,253.09a38.23,38.23,0,0,0,11.34,9A42.5,42.5,0,0,0,466.41,260.08Z"/><path class="cls-23" d="M457.77,204.19A70.1,70.1,0,0,0,414.32,211c-6,3.12-12.25,8.33-11.92,15.12.37,7.52,8.43,12.06,15.63,14.29,17.68,5.48,37.53,5.7,54.16-2.43,5.55-2.72,11.12-7,12.05-13.12.77-5.05-2-10.18-6-13.35S469.28,206.12,457.77,204.19Z"/><path class="cls-5" d="M446.09,206.9a73.6,73.6,0,0,0-31.73,7.56c-3.8,1.84-7.74,4.36-8.82,8.28-1,3.45.69,7.2,3.36,9.73s6.22,4,9.77,5.22c17.1,5.76,36.77,5.48,52.82-2.54,3-1.5,6-3.37,7.68-6.16,2.52-4.18,1.5-9.73-1.63-13.51S461.2,206.31,446.09,206.9Z"/><path class="cls-24" d="M478.57,229.85a6.8,6.8,0,0,0-.16-1c-1.16-4.72-6.22-7.3-10.9-8.63-15.13-4.31-31.49-1.94-46.35,3.23a24.06,24.06,0,0,0-7.82,4,10,10,0,0,0-3.51,5.86,28.3,28.3,0,0,0,8.84,4.41c17.1,5.76,36.77,5.48,52.82-2.54A19.4,19.4,0,0,0,478.57,229.85Z"/><g class="cls-25"><path class="cls-26" d="M420.35,242c-2.57-1.39-2.92-5.19-1.43-7.71s4.21-4,6.86-5.21c10.15-4.68,22-7.29,32.48-3.56,4.18,1.48,8,3.89,12,5.7s8.61,3,12.9,1.88"/><path class="cls-26" d="M429.91,243.22a34.89,34.89,0,0,1,42.23-2.93"/></g><path class="cls-4" d="M246.09,217.71c-1.81,5-8.17,6.69-13.4,5.85s-10.05-3.42-15.28-4.17c-9.7-1.38-19.75,4.24-24.49,12.81s-4.39,19.5,0,28.25,12.55,15.32,21.69,18.83c8.16,3.13,17.48,3.89,25.58.63s14.6-11,15-19.75c.32-7.29-3.39-14-6.3-20.72S243.8,224.89,246.09,217.71Z"/><path class="cls-5" d="M239.66,214.59c-1.22,5.14-7.34,7.58-12.63,7.36s-10.38-2.24-15.66-2.37c-9.79-.25-19.12,6.49-22.84,15.56s-2.1,19.87,3.29,28.05,14.24,13.77,23.73,16.2c8.46,2.16,17.81,1.84,25.48-2.34s13.22-12.65,12.59-21.36c-.53-7.27-5-13.55-8.66-19.84S238.22,222,239.66,214.59Z"/><g class="cls-27"><path class="cls-28" d="M226.34,220A34.82,34.82,0,0,0,200,276"/><path class="cls-28" d="M244.34,231.47c5.8,10.35,3.9,24-3.16,33.51s-18.52,15.18-30.26,16.91"/><path class="cls-28" d="M230.13,219.36c-5,5.24-11.63,8.81-16.62,14.11-7.52,8-10.75,19.8-9,32.18a69.51,69.51,0,0,1,1,6.9l1.72,5.62"/><path class="cls-28" d="M242.44,226c-4.63,9.93-3.38,21.87-8.21,31.71C229,268.37,217.74,274.5,207.17,280"/><path class="cls-28" d="M236.08,216.12c-7.1,21.69-23.82,40.12-26.46,62.79"/><path class="cls-28" d="M208.89,216.49a42.68,42.68,0,0,0-19.6,51.28"/></g><path class="cls-8" d="M216,262.47c-11.63-3.17-22-10.81-29.32-19.67a32,32,0,0,0,5.16,20.39c5.4,8.18,14.24,13.77,23.73,16.2,8.46,2.16,17.81,1.84,25.48-2.34,7.1-3.88,12.39-11.44,12.62-19.46A50.24,50.24,0,0,1,216,262.47Z"/><path class="cls-4" d="M277.05,243a150.49,150.49,0,0,0-13.5,42.21c8.37,1.51,17.54,2.56,24.94-1.64,7.8-4.45,11.69-14.49,9.58-23.22S288.37,244.6,277.05,243Z"/><path class="cls-5" d="M273.6,241.15a150.54,150.54,0,0,0-15.49,41.52c8.29,1.91,17.4,3.4,25-.45,8-4.07,12.37-13.92,10.68-22.74S284.83,243.34,273.6,241.15Z"/><path class="cls-3" d="M289,262.19a21.53,21.53,0,0,0-6.5-12.37,32.64,32.64,0,0,0-10-6.49,150.74,150.74,0,0,0-13.71,36.47,24.69,24.69,0,0,0,8.75,1c6.22-.15,13-1.06,17.36-5.47A15.8,15.8,0,0,0,289,262.19Z"/><g class="cls-29"><path class="cls-30" d="M268.75,246a26.52,26.52,0,0,1,10.48,10.21c2,3.58,3.22,7.94,1.88,11.84-1.45,4.22-5.62,7.05-10,8.11s-8.89.65-13.34.24"/><path class="cls-30" d="M256.65,271a25.3,25.3,0,0,0,8.22.51,9.83,9.83,0,0,0,6.93-4c1.64-2.57,1.53-6,.46-8.81a29.57,29.57,0,0,0-4.88-7.68"/><path class="cls-30" d="M260.15,265.06a5.38,5.38,0,0,0,4.88-9.28"/></g><path class="cls-4" d="M189.83,218.49a151,151,0,0,0,44.08-4.55c-2-8.28-4.68-17.1-11.5-22.19-7.2-5.38-18-4.91-25.11.52S186.81,207.45,189.83,218.49Z"/><path class="cls-5" d="M183.58,215.45A150.51,150.51,0,0,0,227.83,213c-1.57-8.36-3.86-17.31-10.43-22.72-6.94-5.7-17.7-5.76-25.11-.67S181.09,204.28,183.58,215.45Z"/><path class="cls-3" d="M196.68,192.91A21.57,21.57,0,0,0,188,203.83,32.76,32.76,0,0,0,186,215.62a150.57,150.57,0,0,0,38.91-2.06,24.89,24.89,0,0,0-2.62-8.4c-2.64-5.64-6.17-11.46-12-13.71A15.81,15.81,0,0,0,196.68,192.91Z"/><g class="cls-31"><path class="cls-30" d="M190,218a26.6,26.6,0,0,1,5.15-13.69c2.47-3.31,6-6.13,10.1-6.47,4.45-.36,8.71,2.33,11.42,5.88s4.16,7.88,5.57,12.12"/><path class="cls-30" d="M217.75,219a25.69,25.69,0,0,0-2.83-7.74,9.87,9.87,0,0,0-6.49-4.72c-3-.47-6.07,1-8.25,3.11a29.48,29.48,0,0,0-5.09,7.55"/><path class="cls-30" d="M210.88,218.19a5.38,5.38,0,0,0-10.46-.74"/></g><path class="cls-4" d="M257.48,243.6a88.82,88.82,0,0,1-1.5-41.66c5.47.29,11,1.1,15.9,3.65s8.91,7.09,9.75,12.5c.9,5.87-2.13,11.82-6.55,15.78S265,240.13,257.48,243.6Z"/><path class="cls-5" d="M257.57,240.45a88.92,88.92,0,0,1-8.36-40.84c5.45-.62,11.08-.73,16.29,1s10,5.51,11.67,10.72c1.86,5.63-.14,12-3.85,16.64S264.42,235.78,257.57,240.45Z"/><path class="cls-3" d="M249.15,202.51a88.42,88.42,0,0,0,7.07,34.85,31,31,0,0,0,16-14.32c1.63-3.13,2.73-6.79,1.78-10.19s-4-6.15-7.2-7.87A26.28,26.28,0,0,0,249.15,202.51Z"/><g class="cls-32"><path class="cls-30" d="M248.1,206.92a21.05,21.05,0,0,1,17.38,2.67c2.31,1.55,4.43,3.82,4.62,6.59s-1.64,5.42-3.63,7.46a36.49,36.49,0,0,1-14.57,9.08"/><path class="cls-30" d="M248,210.93c3.05-.4,6.2-.8,9.18,0s5.81,3,6.36,6c.5,2.78-1,5.62-3.19,7.44a24.52,24.52,0,0,1-7.53,3.81"/><path class="cls-30" d="M248.58,215.08c1.64,0,3.24-.49,4.87-.49s3.45.64,4.09,2.14a3.79,3.79,0,0,1-.19,3c-1.19,2.61-4.08,3.93-6.73,5"/></g><path class="cls-4" d="M372.65,167a5.23,5.23,0,0,0-3.18-4.13c-1.73-.57-4,.45-4.26,2.25.47-10.17,2.61-20.57-1.52-29.45-1.4-3-3.94-5.94-7.25-6-2.87-.08-5.35,2-7.08,4.3A29,29,0,0,0,344,149.42a58,58,0,0,0,1.6,16.48c-.9-2.46-3.16-4.36-5.31-4.19a5.9,5.9,0,0,0-4.72,3.93A14.25,14.25,0,0,0,335,172a51.55,51.55,0,0,0,6.93,21.72c-1.92-1.4-2.86-2.8-4.23-3.69a4.08,4.08,0,0,0-4.59-.13c-2,1.58-1.25,4.79-.17,7.13,4.44,9.61,10.68,18.25,17,26.74-1,4.34-2.11,8.65-3.37,12.92,0,0,3.54.88,4.11.86,1.07-4.27,2-8.57,2.8-12.89,8.4-7.3,15.91-16.48,18.62-27.6a11.29,11.29,0,0,0,.35-4.86,4.79,4.79,0,0,0-2.89-3.68,3.1,3.1,0,0,0-3.95,1.88c2.36-6.24,5-12,6.52-18A12.94,12.94,0,0,0,372.65,167Z"/><path class="cls-16" d="M353.38,226.11c-6.51-9.57-13.07-19.24-17.44-30-1-2.39-1.6-5.63.5-7.11a4.1,4.1,0,0,1,4.59.34c1.33,1,2.2,2.39,4.05,3.88a51.48,51.48,0,0,1-5.91-22,14.16,14.16,0,0,1,.86-6.37,5.9,5.9,0,0,1,4.9-3.7c2.16-.07,4.32,1.93,5.11,4.43a58.16,58.16,0,0,1-.83-16.54,29,29,0,0,1,6.09-15.2c1.83-2.21,4.41-4.18,7.27-4,3.3.25,5.7,3.3,7,6.36,3.72,9.07,1.09,19.36.15,29.49.39-1.78,2.66-2.7,4.36-2a5.18,5.18,0,0,1,3,4.27,13.07,13.07,0,0,1-.76,5.38c-1.84,6-4.7,11.57-7.35,17.69a3.1,3.1,0,0,1,4-1.69,4.78,4.78,0,0,1,2.72,3.81,11.27,11.27,0,0,1-.58,4.84C371.65,209.74,362.82,219,353.38,226.11Z"/><g class="cls-33"><path class="cls-18" d="M360.83,172.93A80.2,80.2,0,0,1,373.94,142"/><path class="cls-18" d="M359.43,185.55a169.82,169.82,0,0,1-27.55-18"/><path class="cls-18" d="M358.37,196a166.43,166.43,0,0,0,19.32-34.28"/><path class="cls-18" d="M355.77,209.15a53.32,53.32,0,0,1-23.3-15.35"/><path class="cls-18" d="M355.42,217a182.35,182.35,0,0,0,26-24.1"/></g><path class="cls-34" d="M358.91,149.35a214.48,214.48,0,0,1-11.16,87.05s3.5,1,4.07,1A207.23,207.23,0,0,0,358.91,149.35Z"/><path class="cls-4" d="M339.16,268.05a113.62,113.62,0,0,1-14.8-17.42c3.23-9.19,5.47-18.31,3.87-27.3-.29-1.61-.86-3.39-2.33-4.09a3.82,3.82,0,0,0-3.82.63,11.29,11.29,0,0,0-2.54,3.15c.16-10.07.82-19.43.86-28.78a9.7,9.7,0,0,0-.4-3.44,3.49,3.49,0,0,0-2.39-2.33c-2-.42-3.66,1.55-4.78,3.29.45-10.64,1.35-19-2.18-26.06-1.11-2.22-2.8-4.36-5.19-5a7.47,7.47,0,0,0-7,2.15,16.59,16.59,0,0,0-3.74,6.55,44.49,44.49,0,0,0,.17,29.5c-1.95-1.49-3.61-2-4.84-1.49a4.11,4.11,0,0,0-2.25,3.1,10.34,10.34,0,0,0,.25,3.95,49.94,49.94,0,0,0,14.65,25.68c-3.56-1.37-6.43-1.72-7.78.18s0,4.62,1.5,6.48a52,52,0,0,0,24.89,16.93,110.49,110.49,0,0,0,13.44,17S338.68,268.39,339.16,268.05Z"/><path class="cls-16" d="M325.46,253a52,52,0,0,1-25.3-19.27c-1.36-2-2.56-4.73-1-6.58s4.32-1.24,7.78.37a50,50,0,0,1-12.81-26.64,10.14,10.14,0,0,1,0-4,4.07,4.07,0,0,1,2.46-2.93c1.26-.42,2.88.19,4.72,1.82a44.5,44.5,0,0,1,1.92-29.43,16.45,16.45,0,0,1,4.19-6.28,7.46,7.46,0,0,1,7.09-1.65c2.33.83,3.88,3.08,4.83,5.38,3,7.28,1.53,15.56.33,26.14,1.24-1.65,3-3.5,5-2.94a3.48,3.48,0,0,1,2.22,2.49A9.8,9.8,0,0,1,327,193c-.7,9.33-2,18.61-2.89,28.65a11.3,11.3,0,0,1,2.76-3,3.82,3.82,0,0,1,3.86-.36c1.42.8,1.85,2.62,2,4.24C333.89,232.84,330.08,242.92,325.46,253Z"/><g class="cls-35"><path class="cls-18" d="M321.84,245,292.29,226.3"/><path class="cls-18" d="M291.92,201.51a65.35,65.35,0,0,0,22.72,22.83"/><path class="cls-18" d="M319,238.48a90.15,90.15,0,0,0,15-24.32"/><path class="cls-18" d="M312.29,212.4a128.81,128.81,0,0,0,17.63-27"/><path class="cls-18" d="M298.6,168.27a261.31,261.31,0,0,0,12,34.73"/></g><path class="cls-34" d="M310.28,189.21A113,113,0,0,0,336,270.34s4.05-2.07,4.55-2.38C321.66,247.1,310.78,219.15,310.28,189.21Z"/><path class="cls-4" d="M158,214.38a308.7,308.7,0,0,0-16.14-35.66c-13.92-26.24-28.94-52.28-52.48-69.54-3.79-2.78-8.48-5.31-13-6-3.68-10.56-3.92-22.57.78-32.54-1.65-.91-2.94-1.65-4.15-2.35q-2,4-4,8c.3-3.47.71-6.59,1.16-9.62-.54-.3-1.12-.6-1.74-.91-4,12-3.1,25.71,2,37.81a11,11,0,0,0-2.3,1c-3.56-6-6.45-14.17-8.22-24.84C57.16,64,44.06,51.82,44.06,51.82l-.84.52L46,57.52l-3.93-4.39-2.2,2.22,4.78,6.9-6.16-4.87-1.65,2.17s12.06,6.82,17.63,25.89a80.46,80.46,0,0,0,10.25,22.12l0,0a178.37,178.37,0,0,1-39.88-53,12,12,0,0,0-4.56.81c.66,3,1.35,6.08,2,9.12a73.74,73.74,0,0,1-4.89-7.84c-.72.36-1.44.76-2.16,1.15a150.84,150.84,0,0,0,47.25,55.29c-.76,4.49.16,9.67,1.8,14,7.42,19.77,23.56,34.87,40,48.12s34,25.74,46.24,43c1.54,2.18,4,4.74,6.39,3.63S158.94,217,158,214.38Z"/><path class="cls-16" d="M27.72,48.87c.54,3.06,1.1,6.13,1.65,9.19a72.67,72.67,0,0,1-4.58-8c-.73.33-1.46.7-2.2,1.06a151.57,151.57,0,0,0,50.78,61.54,3.14,3.14,0,0,0,1.47-3.06c-.23-1.9-2-3.95-3.57-5.52-.37-.34-.73-.7-1.09-1.06A178.59,178.59,0,0,1,32.3,48.25,11.83,11.83,0,0,0,27.72,48.87Z"/><g class="cls-36"><path class="cls-20" d="M24.63,45.19C29.76,59.06,38,71.61,47.49,83s20.21,21.58,30.92,31.77"/><path class="cls-20" d="M29,44.1a129.91,129.91,0,0,0,49.51,65.65"/></g><path class="cls-37" d="M73.37,112.63a3.14,3.14,0,0,0,1.47-3.06c-.23-1.9-2-3.95-3.57-5.52-.37-.34-.73-.7-1.09-1.06-.87-.87-1.74-1.74-2.59-2.62A15.93,15.93,0,0,0,64.72,106C67.53,108.3,70.41,110.52,73.37,112.63Z"/><path class="cls-16" d="M75.46,110.29s-10-10.75-14.77-30S44.13,53.66,44.13,53.66l1.73-2.1,6,5.12-4.5-7.09,2.29-2.13L53.36,52l-2.58-5.28.85-.49s12.59,12.7,14.56,28.55,6.62,26.38,12.41,32.53Z"/><g class="cls-38"><path class="cls-20" d="M43.84,49.8c6.42,7.56,13.07,14.71,16.94,23.93,2,4.76,3.45,9.62,5.12,14.5,2.95,8.63,7.63,18.18,15,23.86"/><path class="cls-20" d="M46.26,46.44C53.39,51.26,58.06,59,61.21,67S66.2,83.48,69,91.6s6.83,16.14,13.35,21.75"/></g><path class="cls-37" d="M78.6,107.31a37.6,37.6,0,0,1-6.72-10.46,13.69,13.69,0,0,0-3.66,2.78,58.22,58.22,0,0,0,7.24,10.66Z"/><path class="cls-16" d="M77,62.1c-.57,3-1.11,6.12-1.55,9.57q2.2-3.9,4.38-7.8c1.17.75,2.43,1.54,4,2.52C77.8,78,78.59,92.81,84,104.79a16.2,16.2,0,0,1-4.64,2c-7.82-14-9.44-31.29-4-45.64C75.91,61.46,76.47,61.78,77,62.1Z"/><g class="cls-39"><path class="cls-20" d="M82.84,108.9A49.94,49.94,0,0,1,79,57.14"/><path class="cls-20" d="M86.41,108.89A34.56,34.56,0,0,1,88.18,59"/></g><path class="cls-37" d="M79.32,106.76a16.2,16.2,0,0,0,4.64-2,50.61,50.61,0,0,1-3.25-10,22,22,0,0,0-6.09.92A56.82,56.82,0,0,0,79.32,106.76Z"/><path class="cls-40" d="M144.15,177a310.38,310.38,0,0,1,14.67,36.29c.89,2.66,1.27,6.41-1.32,7.47s-4.78-1.65-6.24-3.89c-11.5-17.71-28.56-30.91-44.45-44.81s-31.41-29.66-38-49.71c-2.52-7.65-2.85-17.7,3.93-22s15.58.09,21.83,5.07C117.35,123.59,131.3,150.21,144.15,177Z"/><path class="cls-41" d="M147.62,184.51a27.78,27.78,0,0,1-4,9.25c-1.56,2.5-3.3,4.94-4.77,7.49q3.65,3.92,7,8.11a58.19,58.19,0,0,0,5.57-16Q149.6,188.92,147.62,184.51Z"/><path class="cls-41" d="M122.68,185.77c2.24,2,4.46,4,6.65,6a88.92,88.92,0,0,0,10.33-24q-2.08-4.2-4.23-8.34A49.06,49.06,0,0,1,122.68,185.77Z"/><path class="cls-41" d="M95.55,145.5a58.81,58.81,0,0,1-4.33,7.25,23.32,23.32,0,0,1-2.07,2.31c2.84,3.1,5.81,6.1,8.86,9,3.39-5.14,6.34-10.59,10-15.55s8.4-9.65,14-12.12q-3.87-5.85-8.16-11.32A64,64,0,0,0,95.55,145.5Z"/><path class="cls-41" d="M102.92,168.59c1.29,1.16,2.59,2.32,3.89,3.46,1.61,1.41,3.24,2.81,4.87,4.22,2.9-3.84,5.12-8.37,7.47-12.74,2.83-5.28,6.11-10.59,10.78-14.23q-2-3.54-4.12-7A60.12,60.12,0,0,0,102.92,168.59Z"/><path class="cls-41" d="M70.6,127.16a81.36,81.36,0,0,0,7.21,13.5,86.58,86.58,0,0,0,25.44-27.51q-3.42-3.39-7.14-6.48A67,67,0,0,1,70.6,127.16Z"/><path class="cls-42" d="M82.36,144.1c3.37-3.79,6.33-8,9.31-12.12,3.93-5.42,8.22-10.88,13.51-14.85"/><path class="cls-42" d="M116.14,178.42c3.18-4,5.53-8.73,8.13-13.18a44.28,44.28,0,0,1,7.06-9.49"/><path class="cls-42" d="M141.88,175.47a52.66,52.66,0,0,1-6,11.11"/><path class="cls-42" d="M149.76,212.05a28.77,28.77,0,0,0,3.28-5.42"/><path class="cls-43" d="M106.88,143.42a36.24,36.24,0,0,1,9.67-11.58"/><path class="cls-37" d="M144.15,177c-6-12.41-12.15-24.79-19.35-36.32-2.46,5.45-1.91,12-.26,17.94,2,7.19,5.44,13.92,7.43,21.11a33.32,33.32,0,0,1,.93,15.44,126.75,126.75,0,0,1,18.36,21.7c1.46,2.24,3.77,4.89,6.24,3.89s2.21-4.81,1.32-7.47A310.38,310.38,0,0,0,144.15,177Z"/><path class="cls-4" d="M168.54,233.11c-10.93-34.62,6.76-73.6-4.8-108-2-5.86-5.7-12-10.68-15.17.89-4.23,1.45-8.5,2-12.77,1.17-8.91,1.8-18.11,6.19-26.3-.07-.49-1.15-1.32-2.57-2.2-.39.73-.75,1.48-1.09,2.24-1.81,4.1-2.93,8.52-5.18,12.4.93-3.87,1.21-7.2,1.75-10.45A23.28,23.28,0,0,1,155.8,67c-1.89-1-3.55-1.81-3.55-1.81-3.66,7.57-5.08,16.06-5.22,24.45a137.68,137.68,0,0,0,1.12,18.25,12.48,12.48,0,0,0-1.51-.22c-.63-6.49-2.62-13-4.33-19.32-2.41-9-4.24-18.76-1-27.5-.31-.81-1.78-1.6-3.49-2.27a57.87,57.87,0,0,0-3.7,9.26,25.93,25.93,0,0,1,.13-10.45c-1.5-.43-2.65-.69-2.65-.69-3.68,9.36-1.92,20,1.18,29.55,2.44,7.53,5.68,14.85,7.76,22.46-.28.13-.55.27-.82.41A65.51,65.51,0,0,0,117,76.47a22.15,22.15,0,0,0-3.48,3.41c2,2,4,4.15,5.81,6.36-2.82-1.13-5.38-2.18-7.86-3.22A20.53,20.53,0,0,0,110,86.68a47.25,47.25,0,0,1,25.59,25.76,20.23,20.23,0,0,0-4.71,9.91c-1.17,7,.69,14.1,2.54,20.94,6,22.24,15.43,43.68,19.47,69.14a69.7,69.7,0,0,0,8.68,24.24c1.31,2.23,3.73,4.69,6,3.53S169.33,235.6,168.54,233.11Z"/><path class="cls-16" d="M168.06,70c-4.71,8-5.72,17.17-7.25,26a119.72,119.72,0,0,1-4.11,18.09,2.69,2.69,0,0,1-2.68-.79c-.73-8.37-1.44-16.78-1-25.16s2.24-16.8,6.21-24.21c0,0,1.62.87,3.48,2a22.9,22.9,0,0,0-1.86,5.79c-.67,3.22-1.09,6.54-2.18,10.37,2.41-3.79,3.71-8.16,5.68-12.19.37-.73.76-1.47,1.19-2.18C167,68.65,168,69.51,168.06,70Z"/><g class="cls-44"><path class="cls-20" d="M162.25,60.79C157.06,69,156,79.2,155.86,89s.36,19.67-2.21,29.07"/><path class="cls-20" d="M168.44,65.81a181.37,181.37,0,0,0-13.32,55"/></g><path class="cls-37" d="M153.15,101.84c.21,3.84.54,7.67.87,11.5a2.69,2.69,0,0,0,2.68.79,81.56,81.56,0,0,0,2.41-9A17.15,17.15,0,0,0,153.15,101.84Z"/><path class="cls-16" d="M151.6,114.27c0,.07.1.12-4.62-1-1.24-10-5.27-19.38-8-29.07s-4-20.36,0-29.57c0,0,1.14.31,2.63.8a25.84,25.84,0,0,0-.56,10.43,57,57,0,0,1,4.08-9.09c1.67.73,3.12,1.58,3.39,2.41-3.62,8.6-2.2,18.42-.15,27.52S153.08,105.1,151.6,114.27Z"/><g class="cls-45"><path class="cls-20" d="M149,116.18c-.68-11.58-5.07-22.58-7.63-33.89s-3-24,3.34-33.69"/><path class="cls-20" d="M148.35,53.83c-5.28,9.74-7.34,21.86-3,33.78,3.74,10.2,6.44,20.9,5.88,31.75"/></g><path class="cls-37" d="M144.78,102.82a71.75,71.75,0,0,1,2.2,10.46c4.72,1.11,4.66,1.06,4.62,1a42.2,42.2,0,0,0-.12-12.79A10.55,10.55,0,0,0,144.78,102.82Z"/><path class="cls-16" d="M117.8,80.15c2.44,1.13,5,2.29,7.72,3.53A82.88,82.88,0,0,0,120,77.09a22.33,22.33,0,0,1,3.61-3.26,65.64,65.64,0,0,1,22.89,40.49c-1.6.44-3.2.88-4.26,1.19-3.41-13.81-13.08-25.94-26.06-31.77A20.69,20.69,0,0,1,117.8,80.15Z"/><g class="cls-46"><path class="cls-20" d="M114.3,79.91a50.11,50.11,0,0,1,30.55,37.47"/><path class="cls-20" d="M118.24,71.1a85.37,85.37,0,0,1,28,45.27"/></g><path class="cls-37" d="M139.47,107.53a48.53,48.53,0,0,1,2.75,8c1.06-.31,2.66-.75,4.26-1.19a65.14,65.14,0,0,0-2.66-10.92A19.48,19.48,0,0,0,139.47,107.53Z"/><path class="cls-40" d="M153.91,211.12a69.8,69.8,0,0,0,7.69,24.59c1.21,2.27,3.53,4.82,5.88,3.77s1.94-4.53,1.26-7c-9.52-35,9.74-73.27-.41-108.13-2.65-9.08-9.4-18.87-18.83-18.18-7.07.52-12.46,7.17-13.92,14.11s.11,14.11,1.68,21C142.35,163.72,150.91,185.53,153.91,211.12Z"/><path class="cls-41" d="M153.88,210.69c0,.11,0,.22,0,.33a71,71,0,0,0,2.14,10.71c3.31-1.92,6.71-3.69,10.17-5.31a118.25,118.25,0,0,1-.06-12.35C162.3,206.32,157.63,207.7,153.88,210.69Z"/><path class="cls-41" d="M149.46,186.77c.63,2.61,1.22,5.26,1.77,7.93a28.72,28.72,0,0,1,15.54.74c.16-1.81.36-3.62.56-5.43A28.29,28.29,0,0,0,149.46,186.77Z"/><path class="cls-41" d="M159.46,231.14c.67,1.51,1.38,3,2.15,4.47a11.43,11.43,0,0,0,1.18,1.78,38.19,38.19,0,0,1,6.1-4.54c0-.18-.09-.35-.14-.52a74.31,74.31,0,0,1-1.63-7.73A29.72,29.72,0,0,0,159.46,231.14Z"/><path class="cls-41" d="M160.73,129.09c-4.56-2.55-9-5.4-14-7a18.67,18.67,0,0,0-11.37-.52c-.91,5.92.19,12,1.5,17.87,6.07-1.9,13,.18,19.08,2.43,4.94,1.82,10.26,3.71,15.39,3.63a91,91,0,0,0-1-12A48.67,48.67,0,0,1,160.73,129.09Z"/><path class="cls-41" d="M144.61,168.57q1.29,4.55,2.54,9.17a54.71,54.71,0,0,1,20.57,8.88c.26-2.16.54-4.32.82-6.49C161.74,173.83,153.2,169.57,144.61,168.57Z"/><path class="cls-41" d="M139.42,149.92c1,3.88,2.1,7.77,3.21,11.68A45,45,0,0,1,170,168.43c.42-3.65.78-7.29,1-10.92A43,43,0,0,0,139.42,149.92Z"/><path class="cls-43" d="M136.66,128.92a27,27,0,0,1,14.18,3.16"/><path class="cls-42" d="M141.25,147.16c5.51-.64,11.27.76,16.72,2.24a79.45,79.45,0,0,0,11.09,2.42"/><path class="cls-42" d="M152.37,167.23a36.49,36.49,0,0,1,15.78,4.32"/><path class="cls-42" d="M150.64,183.5l4.36.06"/><path class="cls-42" d="M154.14,202a104.89,104.89,0,0,1,10.4-2"/><path class="cls-42" d="M159.29,226.52q3-2,6.12-3.75"/><path class="cls-43" d="M156.27,216.7l4-1.68"/><path class="cls-37" d="M171.34,145.77c-6.1,7.25-9.08,17.09-9.93,26.68-1,11.78.64,23.62.81,35.44.06,4-.09,8.18-1.88,11.77a12.58,12.58,0,0,1-3.65,4.34,69.87,69.87,0,0,0,4.91,11.71c1.21,2.27,3.53,4.82,5.88,3.77s1.94-4.53,1.26-7C161.14,204.46,171.86,174.47,171.34,145.77Z"/><path class="cls-4" d="M35.17,241.77a24.35,24.35,0,0,1,25.9.88,23.84,23.84,0,0,1,9.37,24.09A23.37,23.37,0,0,1,51.6,284.33a22.91,22.91,0,0,1-23-11.52C24.31,264.75,21.93,249.72,35.17,241.77Z"/><path class="cls-47" d="M28.6,237.65a24.35,24.35,0,0,1,25.9.88,23.83,23.83,0,0,1,9.37,24.09A23.36,23.36,0,0,1,45,280.21a22.91,22.91,0,0,1-23-11.52C17.74,260.63,15.36,245.6,28.6,237.65Z"/><g class="cls-48"><path class="cls-49" d="M60.77,239.73c-1.44,6.29-4.47,12.37-9.35,16.6s-11.75,6.39-18,4.79c-6.95-1.78-12.43-7.79-19.54-8.73"/><path class="cls-49" d="M69.53,257.94a41.06,41.06,0,0,1-54.68,10.42"/></g><path class="cls-37" d="M62.11,267.55a41.53,41.53,0,0,1-21.74,3.05,40.87,40.87,0,0,1-21.08-9.51,29.51,29.51,0,0,0,2.75,7.6,22.91,22.91,0,0,0,23,11.52A23.41,23.41,0,0,0,62.11,267.55Z"/><path class="cls-16" d="M27.28,250.12a29.79,29.79,0,0,0,9-3.5,15.14,15.14,0,0,0,6.48,9.23,47.92,47.92,0,0,0-.76-9.53c3.19-.51,5.72-.79,8.19-1.37a14.48,14.48,0,0,0-6.08-4.82,13.73,13.73,0,0,0,5.48-7.8,15.69,15.69,0,0,0-9.93,5.86c-.44-3.65-1.88-7.18-4.84-9.46a40.76,40.76,0,0,0-1.16,9.67,18,18,0,0,0-10.62.33,82.55,82.55,0,0,1,7.68,4.44A44.73,44.73,0,0,0,27.28,250.12Z"/><path class="cls-16" d="M39.94,242.58a25.81,25.81,0,0,1,2.84-13.69s-2.93-1.2-3.25-1a35.87,35.87,0,0,0-2.09,14.41A10.48,10.48,0,0,0,39.94,242.58Z"/><path class="cls-4" d="M51,181.7c-10.6-4.38-24.2,1-28.94,11.43s.18,24.22,10.46,29.3,24.2.63,29.63-9.47S64.34,187.23,51,181.7Z"/><path class="cls-47" d="M47.93,175.37C37.34,171,23.74,176.36,19,186.8s.18,24.21,10.46,29.3,24.2.63,29.63-9.47S61.29,180.9,47.93,175.37Z"/><g class="cls-50"><path class="cls-49" d="M23.46,178.4a29.47,29.47,0,0,0,.61,9,14.16,14.16,0,0,0,4.67,7.62c4.31,3.41,10.4,3.17,15.85,2.47s11.27-1.65,17.52,1.67L64.57,201"/><path class="cls-49" d="M19.63,180.18A32.31,32.31,0,0,0,55.8,216"/></g><path class="cls-37" d="M60.21,188.35a39.4,39.4,0,0,1-15.65,15.9C37.7,208,29.7,209.64,22.13,210a20.88,20.88,0,0,0,7.33,6.15c10.27,5.08,24.2.63,29.63-9.47A23,23,0,0,0,60.21,188.35Z"/><path class="cls-16" d="M37.89,180.42A13.48,13.48,0,0,1,38,166.83s2.88.67,2.88,1.14a11.93,11.93,0,0,0-.71,12Z"/><path class="cls-16" d="M27.17,185.77a21.78,21.78,0,0,0,8.31-2.32,30.15,30.15,0,0,0,1.27,9.34,37.83,37.83,0,0,0,3.89-7.65A46.65,46.65,0,0,0,48,189.22a15.51,15.51,0,0,0-2.8-7.16A17,17,0,0,0,51.66,180a10.42,10.42,0,0,0-7.31-1.63,22.25,22.25,0,0,1,1.07-7.84,10.33,10.33,0,0,0-6.41,6.6,10.3,10.3,0,0,0-7.09-6.36c.63,2.6,1.26,5.2,1.73,8.27A18.57,18.57,0,0,0,27.17,185.77Z"/><path class="cls-4" d="M99.2,207a24.33,24.33,0,0,0-25.59,4,23.84,23.84,0,0,0-6.36,25.06,23.36,23.36,0,0,0,20.86,15.15A22.91,22.91,0,0,0,109.52,237C112.8,228.51,113.32,213.31,99.2,207Z"/><path class="cls-47" d="M99.16,200.62a24.36,24.36,0,0,0-25.6,4,23.86,23.86,0,0,0-6.35,25.06,23.36,23.36,0,0,0,20.86,15.15,22.89,22.89,0,0,0,21.4-14.25C112.75,222.09,113.27,206.89,99.16,200.62Z"/><g class="cls-51"><path class="cls-49" d="M67.49,206.61c2.2,6.07,6,11.73,11.31,15.33s12.44,4.91,18.46,2.55c6.68-2.61,11.38-9.25,18.33-11.05"/><path class="cls-49" d="M61,225.75a41,41,0,0,0,55.54,3.66"/></g><path class="cls-37" d="M109.47,230.61a29.44,29.44,0,0,0,1.8-7.88,40.75,40.75,0,0,1-19.75,12,41.48,41.48,0,0,1-22-.36,23.38,23.38,0,0,0,18.5,10.47A22.89,22.89,0,0,0,109.47,230.61Z"/><path class="cls-16" d="M102,212.82a29.47,29.47,0,0,1-9.41-2.36,15.19,15.19,0,0,1-5.3,10,48.5,48.5,0,0,1-.42-9.55c-3.22-.13-5.77-.09-8.29-.37A14.62,14.62,0,0,1,84,205a13.8,13.8,0,0,1-6.39-7.07,15.63,15.63,0,0,1,10.57,4.6c0-3.68,1-7.36,3.65-10A40.18,40.18,0,0,1,94.18,202a18.06,18.06,0,0,1,10.59-1,80.89,80.89,0,0,0-7.08,5.35A45.67,45.67,0,0,1,102,212.82Z"/><path class="cls-16" d="M88.52,206.89A25.9,25.9,0,0,0,84,193.65s2.76-1.55,3.1-1.39A35.92,35.92,0,0,1,91,206.31,10.76,10.76,0,0,1,88.52,206.89Z"/><path class="cls-4" d="M184.22,168.1A139.68,139.68,0,0,1,173.8,87.69c1.45-8.6,3.88-17.37,9.51-24S198.49,53,206.66,56.05c6.87,2.57,11.23,9.26,14.6,15.78a146.5,146.5,0,0,1,16.22,71c-.27,9.55-1.56,19.34-6.18,27.7s-13.11,15.08-22.66,15.37S189,178.7,184.22,168.1Z"/><path class="cls-52" d="M190,160.33a139.81,139.81,0,0,1-12.73-80.08c1.21-8.64,3.38-17.48,8.82-24.3S201,44.87,209.23,47.68c7,2.37,11.5,8.93,15.05,15.35a146.57,146.57,0,0,1,18.26,70.52c0,9.55-1,19.38-5.38,27.87s-12.68,15.45-22.21,16S195.13,170.78,190,160.33Z"/><path class="cls-53" d="M202.88,93.82a3.85,3.85,0,0,0-5.43.88,4,4,0,0,0,1.27,5.43A4.26,4.26,0,0,0,204.23,99C205.43,97.26,204.76,95.36,202.88,93.82Z"/><path class="cls-53" d="M216.05,105.18a2.25,2.25,0,0,0-2.94.91,2.31,2.31,0,0,0,.86,3,2.38,2.38,0,0,0,3-.68A2.16,2.16,0,0,0,216.05,105.18Z"/><path class="cls-53" d="M191.47,69.25a2.26,2.26,0,0,0-2.94.91,2.31,2.31,0,0,0,.87,3,2.37,2.37,0,0,0,3-.68A2.16,2.16,0,0,0,191.47,69.25Z"/><path class="cls-53" d="M189.22,119a2.25,2.25,0,0,0-2.94.91,2.32,2.32,0,0,0,.86,3,2.38,2.38,0,0,0,3-.69A2.16,2.16,0,0,0,189.22,119Z"/><path class="cls-53" d="M203.5,128.66a2.28,2.28,0,0,0-2.94.91,2.31,2.31,0,0,0,.87,3,2.36,2.36,0,0,0,3-.68A2.17,2.17,0,0,0,203.5,128.66Z"/><path class="cls-53" d="M217,158.72a2.25,2.25,0,0,0-2.93.91,2.3,2.3,0,0,0,.86,3,2.36,2.36,0,0,0,3-.68A2.16,2.16,0,0,0,217,158.72Z"/><path class="cls-53" d="M205.75,150.44a2.25,2.25,0,0,0-2.93.92,2.3,2.3,0,0,0,.86,3,2.37,2.37,0,0,0,3-.69A2.17,2.17,0,0,0,205.75,150.44Z"/><path class="cls-53" d="M232.12,129.12a3.63,3.63,0,0,0-4.73,1.46,3.73,3.73,0,0,0,1.39,4.79,3.82,3.82,0,0,0,4.89-1.1A3.48,3.48,0,0,0,232.12,129.12Z"/><path class="cls-53" d="M218.51,71.59a3.64,3.64,0,0,0-4.73,1.47,3.74,3.74,0,0,0,1.38,4.79,3.84,3.84,0,0,0,4.89-1.1A3.49,3.49,0,0,0,218.51,71.59Z"/><path class="cls-4" d="M237.16,161.42c4.38-8.49,5.39-18.32,5.38-27.87A146,146,0,0,0,241,112.76c-1.69,8-3.9,15.88-7.6,23.13-4.62,9.08-11.78,17.18-21.13,21.22-7.72,3.33-17,3.45-24.3-1.21q1,2.23,2.05,4.43c5.11,10.45,15.39,17.67,24.93,17.11S232.79,169.91,237.16,161.42Z"/><path class="cls-4" d="M252.75,45.84c-9.26-3.18-20,2.22-24.89,10.69s-4.78,19.1-1.93,28.46c2.89,9.52,8.71,18.43,17.29,23.47s20.07,5.54,28.26-.1c10.26-7.08,12.84-21.92,8.7-33.68S267.88,51,252.75,45.84Z"/><path class="cls-54" d="M250.07,40C241,36.35,230,41.2,224.68,49.41S219,68.25,221.32,77.74c2.42,9.65,7.79,18.85,16.1,24.3s19.77,6.54,28.23,1.31c10.6-6.55,13.92-21.25,10.37-33.2S264.92,45.91,250.07,40Z"/><path class="cls-55" d="M265.1,60.25A3.86,3.86,0,0,0,260,62.38a4.06,4.06,0,0,0,2.51,5,4.28,4.28,0,0,0,5.09-2.43C268.38,63,267.29,61.31,265.1,60.25Z"/><path class="cls-55" d="M248.84,79.46A2.25,2.25,0,0,0,246.2,81a2.32,2.32,0,0,0,1.53,2.69,2.37,2.37,0,0,0,2.79-1.37A2.16,2.16,0,0,0,248.84,79.46Z"/><path class="cls-55" d="M270.72,78.73a2.24,2.24,0,0,0-2.64,1.57A2.33,2.33,0,0,0,269.61,83a2.39,2.39,0,0,0,2.79-1.38A2.15,2.15,0,0,0,270.72,78.73Z"/><path class="cls-55" d="M247.55,47a2.27,2.27,0,0,0-2.65,1.57,2.32,2.32,0,0,0,1.54,2.69,2.38,2.38,0,0,0,2.79-1.38A2.16,2.16,0,0,0,247.55,47Z"/><path class="cls-55" d="M257.34,97.34a2.25,2.25,0,0,0-2.64,1.57,2.32,2.32,0,0,0,1.53,2.69,2.39,2.39,0,0,0,2.79-1.38A2.16,2.16,0,0,0,257.34,97.34Z"/><path class="cls-55" d="M227.93,58.31a2.25,2.25,0,0,0-2.64,1.57,2.32,2.32,0,0,0,1.53,2.69,2.38,2.38,0,0,0,2.79-1.37A2.17,2.17,0,0,0,227.93,58.31Z"/><path class="cls-55" d="M237.67,80.91a3.63,3.63,0,0,0-4.26,2.53,3.72,3.72,0,0,0,2.47,4.33,3.83,3.83,0,0,0,4.5-2.21A3.49,3.49,0,0,0,237.67,80.91Z"/><path class="cls-55" d="M241,69.56a3.64,3.64,0,0,0-4.26,2.54,3.73,3.73,0,0,0,2.47,4.33,3.82,3.82,0,0,0,4.49-2.21A3.5,3.5,0,0,0,241,69.56Z"/><path class="cls-4" d="M276,70.15a56,56,0,0,0-4.35-10.62,41.59,41.59,0,0,1-13.79,23.84,44.76,44.76,0,0,1-29.26,10.21,34.53,34.53,0,0,0,8.8,8.46c8.32,5.45,19.77,6.54,28.23,1.31C276.25,96.8,279.57,82.1,276,70.15Z"/><path class="cls-4" d="M307.2,82.93a18.26,18.26,0,0,0-10.73,3.46c.06,4.52,2.23,8.7,3.53,13s1.52,9.57-1.63,12.81c-1.85,1.9-4.51,2.73-6.84,4-6.38,3.45-10.52,11.07-9,18.16s9.09,12.6,18.19,12.71c2.69,5.63,10.19,7.82,16.1,5.81s10.23-7.29,12.76-13.51a24.23,24.23,0,0,0,10.55-4.14,14.53,14.53,0,0,0,5.93-9.42c.88-6.35-3.58-12.48-9.2-15.56s-12.36-1.77-16.6-3.12C312.31,104.64,310,93.88,307.2,82.93Z"/><path class="cls-5" d="M302.14,76.73a18.32,18.32,0,0,0-10.59,3.86c.23,4.52,2.56,8.61,4,12.89s1.88,9.51-1.15,12.87c-1.78,2-4.4,2.89-6.68,4.24-6.24,3.69-10.09,11.46-8.34,18.5s9.55,12.23,18.65,12c2.91,5.52,10.48,7.42,16.31,5.19s9.94-7.67,12.24-14A24.17,24.17,0,0,0,337,127.77a14.55,14.55,0,0,0,5.57-9.64c.64-6.38-4.06-12.33-9.79-15.2s-12.41-1.3-16.7-2.48C308.07,98.23,305.32,87.57,302.14,76.73Z"/><g class="cls-56"><path class="cls-28" d="M298.83,144.23c-4.2-5.6-6.8-15.7-6.74-22.7"/><path class="cls-28" d="M320.94,109.85c3.91,6.92,6.4,16.19,5.92,24.12"/><path class="cls-28" d="M299.2,110.44a50.59,50.59,0,0,0,16.7,37.46"/><path class="cls-28" d="M326.08,107.12a30.56,30.56,0,0,1,10.21,26.58"/><path class="cls-28" d="M310.7,114a80.22,80.22,0,0,1,10.86,32"/><path class="cls-28" d="M292.48,143.2a22.39,22.39,0,0,1-7.63-21.53"/></g><path class="cls-8" d="M341.34,111.47c-2.12,5.2-7.42,8.79-12.83,10.65-6,2.08-12.52,2.61-18.58,4.63-5.17,1.72-9.93,4.49-15.1,6.23A65.12,65.12,0,0,1,283,135.41a20.37,20.37,0,0,0,15,5.69c2.91,5.52,10.48,7.42,16.31,5.19s9.94-7.67,12.24-14A24.17,24.17,0,0,0,337,127.77a14.55,14.55,0,0,0,5.57-9.64A12.72,12.72,0,0,0,341.34,111.47Z"/><path class="cls-4" d="M269.76,152.22c-3.51-2.17-7.09-4.4-9.64-7.65s-3.87-7.77-2.28-11.58c1-2.35,3.37-4.32,5.89-4,2.72.39,4.38,3.1,5.66,5.53q2.73,5.22,5.48,10.44a11.64,11.64,0,0,1,1.4,3.55,4,4,0,0,1-1,3.55C274.35,153,272.35,153.81,269.76,152.22Z"/><path class="cls-5" d="M271.49,149.64c-3.51-2.17-7.1-4.4-9.64-7.65s-3.87-7.78-2.28-11.58c1-2.35,3.37-4.33,5.89-4,2.72.39,4.38,3.1,5.66,5.53q2.73,5.22,5.48,10.43A12,12,0,0,1,278,146a4,4,0,0,1-1,3.55C276.08,150.38,274.07,151.23,271.49,149.64Z"/><g class="cls-57"><path class="cls-28" d="M268.87,126.26a14,14,0,0,0,11.76,21.22"/></g><path class="cls-8" d="M278,146a12,12,0,0,0-1.4-3.56L273.74,137a15.33,15.33,0,0,1-10,7.06,45.6,45.6,0,0,0,7.77,5.61c2.58,1.59,4.59.74,5.52-.13A4,4,0,0,0,278,146Z"/><path class="cls-4" d="M348.07,81.29c1.72,3.75,3.46,7.6,3.77,11.72s-1.09,8.61-4.53,10.89c-2.12,1.41-5.2,1.73-7.1,0s-1.92-5-1.63-7.73l1.23-11.73a11.53,11.53,0,0,1,.81-3.73,4,4,0,0,1,2.79-2.4C344.67,78.13,346.81,78.53,348.07,81.29Z"/><path class="cls-5" d="M344.9,77.31c1.72,3.75,3.46,7.6,3.78,11.71s-1.1,8.61-4.54,10.9c-2.12,1.41-5.2,1.72-7.1,0s-1.92-5-1.63-7.73l1.23-11.72a11.65,11.65,0,0,1,.81-3.74,4,4,0,0,1,2.79-2.4C341.51,74.14,343.64,74.55,344.9,77.31Z"/><g class="cls-58"><path class="cls-28" d="M336.61,77.13A15.06,15.06,0,0,1,334.27,99"/></g><path class="cls-8" d="M348.68,89a20.24,20.24,0,0,0-.58-3.38,22.93,22.93,0,0,1-12.8,7.89c-.16,2.38,0,4.87,1.74,6.41,1.9,1.7,5,1.39,7.1,0C347.58,97.63,349,93.13,348.68,89Z"/><path class="cls-4" d="M321,64.49c-2.82.92-4.43,4.08-4.43,7s1.28,5.78,2.67,8.4a82.48,82.48,0,0,0,5.24,8.57c.91,1.32,2.17,2.75,3.76,2.6s2.64-2,3.16-3.61a36.32,36.32,0,0,0,1.68-13.58,15.22,15.22,0,0,0-2.38-8C329.08,63.65,326.38,62.73,321,64.49Z"/><path class="cls-5" d="M318.59,61.34c-2.81.92-4.43,4.08-4.43,7s1.28,5.78,2.67,8.4a86.07,86.07,0,0,0,5.24,8.57c.92,1.32,2.17,2.75,3.77,2.6s2.63-2,3.15-3.61a36.33,36.33,0,0,0,1.69-13.58,15.32,15.32,0,0,0-2.39-8C326.65,60.5,323.94,59.58,318.59,61.34Z"/><g class="cls-59"><path class="cls-28" d="M320.35,60A18.49,18.49,0,0,1,320,87.42"/></g><path class="cls-8" d="M329,84.34a36.33,36.33,0,0,0,1.69-13.58,22.21,22.21,0,0,0-.66-4.22,35.81,35.81,0,0,1-4.66,9.39A16.51,16.51,0,0,1,319.25,81c.89,1.47,1.84,2.92,2.82,4.33s2.17,2.75,3.77,2.6S328.47,86,329,84.34Z"/></g><path class="cls-4" d="M356.42,444.42a298,298,0,0,1-48.28,8.68c-50.08,4.82-100.82,4.84-151.25,2.87A1073,1073,0,0,1,152,305.14a1942.23,1942.23,0,0,1,200.47-5.7c1.59,30.56,3.68,61.15,6.05,91.73,1.21,15.66,2.52,30.52,2.47,45.4,0,2.72-.37,5.9-3.35,7.4A6,6,0,0,1,356.42,444.42Z"/><path class="cls-5" d="M346.3,439.42a309.54,309.54,0,0,1-48.72,7.38c-50.36,3.57-101.2,2.45-151.62-.62a1021.11,1021.11,0,0,1,1.37-147.31,2000.33,2000.33,0,0,1,201-1c.31,29.86,1.13,59.76,2.22,89.66.56,15.3,1.24,29.84.56,44.36-.12,2.66-.61,5.75-3.65,7.14A6.42,6.42,0,0,1,346.3,439.42Z"/><path class="cls-60" d="M346.3,439.42a309.54,309.54,0,0,1-48.72,7.38c-50.36,3.57-101.2,2.45-151.62-.62a771.42,771.42,0,0,0,188-12.42,19,19,0,0,0,5.53,4.72A10.37,10.37,0,0,0,346.3,439.42Z"/><path class="cls-61" d="M156.64,344.42q89.81-3.21,179.8-1.3"/><path class="cls-61" d="M158.11,370.82l176-.42"/><path class="cls-61" d="M159.21,396.92l174.91-1.16"/><path class="cls-61" d="M160.2,422.27l172.4-1.21"/><path class="cls-62" d="M282.1,304.59a.63.63,0,0,0,.51-.35.65.65,0,0,0,0-.62c-.24-.39-1.29-1.86-1.81-2.58l1.79-2.49a.65.65,0,0,0,.08-.59.64.64,0,0,0-.42-.41l-1.37-.4,1.24-1.66a.65.65,0,0,0-.12-.9l-1.94-1.5,2.14-1.57a.65.65,0,0,0,.27-.56.69.69,0,0,0-.34-.53l-2.33-1.25,1.91-3a.65.65,0,0,0,0-.66.64.64,0,0,0-.56-.34c-21.64-.28-43.58,0-65.2.93a.64.64,0,0,0-.55.35.63.63,0,0,0,0,.65l1.92,2.84-2.17,2.72a.68.68,0,0,0-.13.5.71.71,0,0,0,.27.44l2.66,1.83-2.33,2.23a.63.63,0,0,0,0,.88l2.44,2.86-2.29,2.77a.67.67,0,0,0-.1.67.64.64,0,0,0,.54.39c9.74.81,19.54,1.22,29.34,1.22A350.66,350.66,0,0,0,282.1,304.59Z"/><text class="cls-63" transform="translate(176.83 321.26)">Lorem ipsum dolor</text><text class="cls-64" transform="translate(160.2 340.66)">1. Lorem ipsum dolor sit amet, cons <tspan x="0" y="10">ectetuer adipiscing elit.</tspan></text><text class="cls-64" transform="translate(160.2 368.55)">2. <tspan class="cls-65" x="10.68" y="0">S</tspan><tspan x="16.27" y="0">ed diam nonummy nibh euis</tspan><tspan class="cls-66" x="125.1" y="0">m</tspan><tspan x="132.06" y="0">od </tspan><tspan class="cls-67" x="0" y="10">t</tspan><tspan x="4.03" y="10">incidunt.</tspan></text><text class="cls-64" transform="translate(160.2 394.34)">3. <tspan class="cls-68" x="10.68" y="0">U</tspan><tspan x="17.06" y="0">t laoreet dolore magna aliquam erat </tspan><tspan x="0" y="10">volutpat.</tspan></text><text class="cls-64" transform="translate(160.2 420.25)">4.<tspan class="cls-68" x="7.78" y="0">U</tspan><tspan x="14.16" y="0">t wisi enim ad minim veniam, </tspan><tspan class="cls-69" x="131.94" y="0">q</tspan><tspan x="136.34" y="0">uis </tspan><tspan x="0" y="10">nostrud exerci ta</tspan><tspan class="cls-67" x="68.57" y="10">t</tspan><tspan x="72.6" y="10">ion ullamcorper suscipit.</tspan></text></g></g></svg>