<svg xmlns:xlink="http://www.w3.org/1999/xlink" id="Слой_1" data-name="Слой 1" xmlns="http://www.w3.org/2000/svg"
     viewBox="0 0 500 500">
    <defs>
        <style>
            .cls-1{fill:none;}.cls-2{fill:#fff;}.cls-3{fill:#ddeffe;opacity:0.6;}.cls-4,.cls-56{fill:#9bd6e8;}.cls-12,.cls-4{opacity:0.5;}.cls-5{fill:#63acc2;}.cls-6{clip-path:url(#clip-path);}.cls-7{fill:#d5ebfe;}.cls-8{fill:#303c60;}.cls-9{fill:#f09959;}.cls-10,.cls-12{fill:#6791c9;}.cls-11{fill:#75a1de;}.cls-13{fill:#e38540;}.cls-14{fill:#f5ce5c;}.cls-15{fill:#4381db;}.cls-16{fill:#2e5b9a;}.cls-17{fill:#9cbeed;}.cls-18{fill:#232e4f;}.cls-19{fill:#1b243d;}.cls-20{fill:#ffd24f;}.cls-21{fill:#edc055;}.cls-22{fill:#2a66c6;}.cls-23{fill:#0f2d5c;}.cls-24{fill:#9ec8ff;}.cls-25{clip-path:url(#clip-path-2);}.cls-26{fill:#d54a41;}.cls-27{fill:#58556e;}.cls-28{fill:#7ec1d6;}.cls-29{fill:#8ddaf2;}.cls-30{fill:#3e6bab;}.cls-31{fill:#f37168;}.cls-32{fill:#ffcb30;}.cls-33{fill:#4578bf;}.cls-34{clip-path:url(#clip-path-3);}.cls-35{fill:#255096;}.cls-36{fill:#ffc34e;}.cls-37{fill:#a1a654;}.cls-38{fill:#c1c765;}.cls-39{clip-path:url(#clip-path-4);}.cls-40{fill:#a8ceff;}.cls-41{fill:#93bbf0;}.cls-42{clip-path:url(#clip-path-5);}.cls-43{fill:#fb8627;}.cls-44{fill:url(#Безымянный_градиент_37);}.cls-45{fill:url(#Безымянный_градиент_37-2);}.cls-46{fill:url(#Безымянный_градиент_37-3);}.cls-47{fill:url(#Безымянный_градиент_37-4);}.cls-48{clip-path:url(#clip-path-6);}.cls-49{fill:#c6e0f7;}.cls-50{fill:#2e2d3d;}.cls-51{fill:#bdccd4;}.cls-52{clip-path:url(#clip-path-7);}.cls-53{fill:#3a384d;}.cls-54{clip-path:url(#clip-path-8);}.cls-55{fill:#7a4e34;}
        </style>
        <clipPath id="clip-path">
            <ellipse class="cls-1" cx="229.97" cy="274.92" rx="54.93" ry="57.4"/>
        </clipPath>
        <clipPath id="clip-path-2">
            <ellipse class="cls-1" cx="137.25" cy="162.02" rx="65.2" ry="68.12"/>
        </clipPath>
        <clipPath id="clip-path-3">
            <ellipse class="cls-1" cx="353.79" cy="137.62" rx="60.23" ry="62.93"/>
        </clipPath>
        <clipPath id="clip-path-4">
            <ellipse class="cls-1" cx="426.48" cy="282.08" rx="43.11" ry="45.04"/>
        </clipPath>
        <clipPath id="clip-path-5">
            <ellipse class="cls-1" cx="65.72" cy="348.53" rx="54.06" ry="56.49"/>
        </clipPath>
        <linearGradient id="Безымянный_градиент_37" x1="2166.68" y1="323.9" x2="2070.82" y2="437.56"
                        gradientTransform="translate(-2051.62)" gradientUnits="userSpaceOnUse">
            <stop offset="0" stop-color="#ffc34e"/>
            <stop offset="1" stop-color="#fb8627"/>
        </linearGradient>
        <linearGradient id="Безымянный_градиент_37-2" x1="2147.71" y1="308.5" x2="2052.93" y2="420.89"
                        xlink:href="#Безымянный_градиент_37"/>
        <linearGradient id="Безымянный_градиент_37-3" x1="2170.57" y1="286.8" x2="2104.13" y2="405.64"
                        xlink:href="#Безымянный_градиент_37"/>
        <linearGradient id="Безымянный_градиент_37-4" x1="2163.92" y1="316.28" x2="2062.72" y2="436.27"
                        xlink:href="#Безымянный_градиент_37"/>
        <clipPath id="clip-path-6">
            <ellipse class="cls-1" cx="254.2" cy="151.92" rx="26.25" ry="27.43"/>
        </clipPath>
        <clipPath id="clip-path-7">
            <ellipse class="cls-1" cx="47.42" cy="239.73" rx="26.25" ry="27.43"/>
        </clipPath>
        <clipPath id="clip-path-8">
            <ellipse class="cls-1" cx="442.05" cy="182.13" rx="27.97" ry="29.23"/>
        </clipPath>
    </defs>
    <rect class="cls-2" width="500" height="500"/>
    <path class="cls-3"
          d="M19.17,292.66c-21-95.93,39.81-171.25,164.71-186.3,139.89-16.85,168,64,128.27,87.46S205.26,362.18,196.63,390.49,48.68,427.54,19.17,292.66Z"/>
    <path class="cls-3"
          d="M418.57,192.77c56.43,3,94.75,108,52.49,162.73s-199.13,35.11-193.54-4.58,72.56-26.94,101.34-76S402.47,191.91,418.57,192.77Z"/>
    <path class="cls-4"
          d="M437.62,401.55c-51.35-.14-166.09,2.16-256.26,7.06s-13.85,15.85,48.25,11.18S335.16,430,411.17,425,497.21,401.7,437.62,401.55Z"/>
    <path class="cls-5"
          d="M64.19,248.06c-.15,0-.28-.12-.33-.32l-1-4.3a.51.51,0,0,1,.18-.53L66.14,241a.31.31,0,0,1,.46.21.51.51,0,0,1-.16.59l-2.81,1.78.88,3.93a.46.46,0,0,1-.23.55A.15.15,0,0,1,64.19,248.06Z"/>
    <path class="cls-5"
          d="M85.84,344.71a.38.38,0,0,1-.33-.32l-1.8-8.05a.48.48,0,0,1,.23-.56c.18-.07.37.06.42.3l1.8,8.06a.47.47,0,0,1-.23.55ZM82.23,328.6c-.15,0-.28-.12-.33-.32l-1.8-8a.49.49,0,0,1,.23-.56c.18-.07.37.07.42.3L82.56,328a.48.48,0,0,1-.23.55A.2.2,0,0,1,82.23,328.6Zm-3.61-16.11a.35.35,0,0,1-.32-.32l-1.81-8.05a.49.49,0,0,1,.23-.56c.18-.07.37.07.42.31L79,311.92a.49.49,0,0,1-.23.56ZM75,296.39a.37.37,0,0,1-.32-.32L72.88,288a.48.48,0,0,1,.23-.55c.18-.08.37.06.43.3l1.8,8.05a.49.49,0,0,1-.23.56ZM71.4,280.28a.37.37,0,0,1-.32-.32l-1.81-8.06a.48.48,0,0,1,.23-.55c.18-.07.37.06.43.3l1.8,8.05a.49.49,0,0,1-.23.56Zm-3.6-16.11a.37.37,0,0,1-.33-.32l-1.8-8.05a.48.48,0,0,1,.23-.56c.18-.07.37.06.42.3l1.8,8.06a.47.47,0,0,1-.23.55A.15.15,0,0,1,67.8,264.17Z"/>
    <path class="cls-5"
          d="M88.6,357.06a.28.28,0,0,1-.15,0,.5.5,0,0,1-.17-.28l-1-4.3a.47.47,0,0,1,.23-.55c.18-.07.36.06.42.3l.86,3.84,2.84-1.39c.18-.09.38,0,.44.26a.49.49,0,0,1-.2.58L88.72,357A.27.27,0,0,1,88.6,357.06Z"/>
    <path class="cls-5"
          d="M98.08,352.44a.35.35,0,0,1-.32-.29.5.5,0,0,1,.2-.58l6.28-3.06c.18-.09.37,0,.44.26a.52.52,0,0,1-.2.58l-6.29,3.06Zm12.56-6.13a.35.35,0,0,1-.32-.29.52.52,0,0,1,.2-.58l6.28-3.06c.18-.09.38,0,.44.26a.49.49,0,0,1-.2.58l-6.28,3.06A.27.27,0,0,1,110.64,346.31Zm12.57-6.13a.35.35,0,0,1-.32-.29.5.5,0,0,1,.2-.58l6.28-3.06c.18-.09.37,0,.44.26a.52.52,0,0,1-.2.58l-6.29,3.07Zm12.56-6.13a.35.35,0,0,1-.32-.29.52.52,0,0,1,.2-.58l6.28-3.06c.18-.09.38,0,.44.26a.49.49,0,0,1-.2.58L135.89,334Zm12.57-6.13a.35.35,0,0,1-.32-.29.5.5,0,0,1,.2-.58L154.5,324c.18-.09.37,0,.44.26a.52.52,0,0,1-.2.58l-6.29,3.07Zm12.56-6.13a.35.35,0,0,1-.32-.29.52.52,0,0,1,.2-.58l6.28-3.06c.18-.09.38,0,.44.26a.49.49,0,0,1-.2.58L161,321.77Zm12.57-6.13a.35.35,0,0,1-.32-.29.5.5,0,0,1,.2-.58l6.28-3.06c.18-.09.37,0,.44.26a.52.52,0,0,1-.2.58l-6.29,3.07ZM186,309.53a.35.35,0,0,1-.32-.29.52.52,0,0,1,.2-.58l6.28-3.06c.18-.09.38,0,.44.26a.49.49,0,0,1-.2.58l-6.28,3.07Zm12.57-6.13a.35.35,0,0,1-.32-.29.48.48,0,0,1,.2-.57l6.28-3.07c.18-.09.37,0,.44.27a.51.51,0,0,1-.2.57l-6.29,3.07Zm12.56-6.13a.35.35,0,0,1-.32-.29.5.5,0,0,1,.2-.57l6.29-3.07c.17-.09.37,0,.43.27a.48.48,0,0,1-.2.57l-6.28,3.07Z"/>
    <path class="cls-5"
          d="M229.84,291.88a.27.27,0,0,1-.18-.07l-2.78-2.17-3,1.48c-.17.08-.37,0-.43-.27a.48.48,0,0,1,.2-.57l3.19-1.56a.26.26,0,0,1,.29,0L230,291a.55.55,0,0,1,.12.62A.35.35,0,0,1,229.84,291.88Z"/>
    <path class="cls-5"
          d="M326.34,367.4a.27.27,0,0,1-.17-.06l-6-4.72A.54.54,0,0,1,320,362a.29.29,0,0,1,.46-.15l6,4.72a.52.52,0,0,1,.12.61A.34.34,0,0,1,326.34,367.4ZM314.28,358a.32.32,0,0,1-.18-.06l-6-4.72a.55.55,0,0,1-.12-.62.3.3,0,0,1,.47-.15l6,4.72a.54.54,0,0,1,.12.61A.35.35,0,0,1,314.28,358Zm-12.07-9.44a.27.27,0,0,1-.17-.06l-6-4.72a.54.54,0,0,1-.12-.62.3.3,0,0,1,.47-.15l6,4.72a.54.54,0,0,1,.12.61A.35.35,0,0,1,302.21,348.52Zm-12.06-9.44A.27.27,0,0,1,290,339l-6-4.72a.53.53,0,0,1-.12-.62.29.29,0,0,1,.46-.15l6,4.72a.51.51,0,0,1,.12.61A.33.33,0,0,1,290.15,339.08Zm-12.06-9.44a.32.32,0,0,1-.18-.06l-6-4.72a.56.56,0,0,1-.12-.62.31.31,0,0,1,.47-.16l6,4.72a.54.54,0,0,1,.12.62A.34.34,0,0,1,278.09,329.64ZM266,320.2a.32.32,0,0,1-.17-.06l-6-4.73a.54.54,0,0,1-.12-.61.31.31,0,0,1,.47-.16l6,4.72a.56.56,0,0,1,.12.62A.35.35,0,0,1,266,320.2ZM254,310.76a.23.23,0,0,1-.17-.07l-6-4.72a.52.52,0,0,1-.12-.61.3.3,0,0,1,.46-.16l6,4.72a.54.54,0,0,1,.11.62A.33.33,0,0,1,254,310.76Zm-12.06-9.44a.23.23,0,0,1-.17-.07l-6-4.72a.52.52,0,0,1-.11-.61.3.3,0,0,1,.46-.16l6,4.72a.54.54,0,0,1,.12.62A.34.34,0,0,1,241.9,301.32Z"/>
    <path class="cls-5"
          d="M335.29,374.41a.27.27,0,0,1-.17-.06l-2.92-2.29a.54.54,0,0,1-.12-.62.29.29,0,0,1,.46-.15l2.74,2.14,2.68-2.29c.15-.14.36-.08.47.13a.56.56,0,0,1-.1.62l-2.85,2.45A.34.34,0,0,1,335.29,374.41Z"/>
    <path class="cls-5"
          d="M344.18,366.78a.34.34,0,0,1-.29-.21.54.54,0,0,1,.1-.62l6-5.18a.29.29,0,0,1,.47.13.53.53,0,0,1-.1.62l-6,5.18A.29.29,0,0,1,344.18,366.78Zm12.06-10.37a.31.31,0,0,1-.28-.21.54.54,0,0,1,.1-.62l6-5.18a.29.29,0,0,1,.47.13.54.54,0,0,1-.1.62l-6,5.18A.29.29,0,0,1,356.24,356.41ZM368.31,346a.31.31,0,0,1-.28-.21.53.53,0,0,1,.1-.62l6-5.18a.29.29,0,0,1,.47.13.54.54,0,0,1-.1.62l-6,5.18A.31.31,0,0,1,368.31,346Zm12.07-10.37a.34.34,0,0,1-.29-.21.56.56,0,0,1,.1-.62l6-5.18a.29.29,0,0,1,.47.13.54.54,0,0,1-.1.62l-6,5.18A.27.27,0,0,1,380.38,335.67Zm12.07-10.37a.34.34,0,0,1-.29-.21.54.54,0,0,1,.1-.62l6-5.18c.15-.14.36-.08.47.13a.56.56,0,0,1-.1.62l-6,5.18A.27.27,0,0,1,392.45,325.3Zm12.07-10.37a.32.32,0,0,1-.29-.21.54.54,0,0,1,.1-.62l6-5.18a.29.29,0,0,1,.47.13.52.52,0,0,1-.1.62l-6,5.19A.34.34,0,0,1,404.52,314.93Zm12.06-10.37a.31.31,0,0,1-.28-.21.54.54,0,0,1,.1-.62l6-5.18a.29.29,0,0,1,.47.13.54.54,0,0,1-.1.62l-6,5.19A.34.34,0,0,1,416.58,304.56Z"/>
    <path class="cls-5"
          d="M428.65,294.19a.31.31,0,0,1-.28-.21.53.53,0,0,1,.1-.62l2.72-2.34.56-4.22c0-.24.21-.4.39-.36a.45.45,0,0,1,.28.52l-.59,4.41a.46.46,0,0,1-.15.3l-2.84,2.45A.34.34,0,0,1,428.65,294.19Z"/>
    <path class="cls-5"
          d="M433.29,278.28h-.06a.45.45,0,0,1-.28-.52l1.21-9.05c0-.24.2-.4.39-.36a.47.47,0,0,1,.28.52l-1.21,9.05C433.59,278.13,433.45,278.28,433.29,278.28Zm2.4-18.1h-.06a.47.47,0,0,1-.27-.52l1.2-9.05c0-.25.21-.41.39-.37a.46.46,0,0,1,.28.52l-1.2,9.05A.38.38,0,0,1,435.69,260.18Zm2.41-18.09H438a.45.45,0,0,1-.28-.52l1.21-9.05c0-.24.2-.4.39-.36a.46.46,0,0,1,.28.52l-1.21,9C438.4,241.93,438.26,242.09,438.1,242.09Zm2.4-18.1h-.06a.45.45,0,0,1-.27-.52l1.2-9.05c0-.24.21-.4.39-.36a.45.45,0,0,1,.28.52l-1.2,9.05A.38.38,0,0,1,440.5,224Zm2.41-18.1h-.06a.46.46,0,0,1-.28-.52l1.21-9.05c0-.25.21-.41.39-.37a.47.47,0,0,1,.28.52l-1.21,9.05C443.21,205.74,443.07,205.89,442.91,205.89Z"/>
    <path class="cls-5"
          d="M445.31,187.8h-.06a.46.46,0,0,1-.27-.52l.52-3.93-3-.31a.44.44,0,0,1-.31-.49c0-.24.18-.43.37-.41l3.39.36a.33.33,0,0,1,.24.17.53.53,0,0,1,.06.35l-.58,4.41C445.62,187.64,445.48,187.8,445.31,187.8Z"/>
    <path class="cls-5"
          d="M72.46,237.93a.34.34,0,0,1-.31-.25.52.52,0,0,1,.16-.6l6.17-3.9a.31.31,0,0,1,.46.21.53.53,0,0,1-.16.6l-6.17,3.9A.28.28,0,0,1,72.46,237.93Zm12.34-7.8a.34.34,0,0,1-.31-.25.54.54,0,0,1,.16-.6l6.17-3.9a.32.32,0,0,1,.46.21.52.52,0,0,1-.16.6L85,230.09A.28.28,0,0,1,84.8,230.13Zm12.34-7.79a.34.34,0,0,1-.3-.26.52.52,0,0,1,.15-.6l6.17-3.89a.31.31,0,0,1,.46.21.51.51,0,0,1-.16.59l-6.17,3.9A.3.3,0,0,1,97.14,222.34Zm12.34-7.8a.33.33,0,0,1-.3-.25.5.5,0,0,1,.16-.6l6.17-3.9c.16-.11.37,0,.45.21a.53.53,0,0,1-.16.6l-6.17,3.9A.28.28,0,0,1,109.48,214.54Zm12.34-7.8a.33.33,0,0,1-.3-.25.51.51,0,0,1,.16-.6l6.17-3.9a.31.31,0,0,1,.45.21.52.52,0,0,1-.16.6L122,206.7A.28.28,0,0,1,121.82,206.74ZM134.16,199a.34.34,0,0,1-.3-.26.51.51,0,0,1,.16-.6l6.17-3.89c.16-.11.37,0,.45.21a.51.51,0,0,1-.16.59l-6.17,3.9A.3.3,0,0,1,134.16,199Zm12.34-7.8a.33.33,0,0,1-.3-.26.51.51,0,0,1,.16-.59l4.08-2.58.05,0,2.22-.85c.18-.07.37.06.42.3a.48.48,0,0,1-.23.56l-2.19.84-4.06,2.57A.28.28,0,0,1,146.5,191.15Zm12.87-6a.37.37,0,0,1-.32-.33.48.48,0,0,1,.23-.55l6.57-2.53c.18-.07.37.06.42.3a.49.49,0,0,1-.23.56l-6.57,2.53Zm276.32-2.87h0l-6.82-.71a.44.44,0,0,1-.31-.49c0-.24.18-.43.37-.41l6.82.71a.44.44,0,0,1,.31.48A.39.39,0,0,1,435.69,182.32Zm-13.64-1.42h0l-6.82-.72a.42.42,0,0,1-.31-.48c0-.24.18-.43.37-.41l6.82.71a.44.44,0,0,1,.31.48C422.37,180.72,422.23,180.9,422.05,180.9Zm-249.54-.77c-.15,0-.28-.13-.33-.33a.48.48,0,0,1,.23-.55l6.57-2.53c.18-.07.37.07.42.3a.48.48,0,0,1-.23.56l-6.56,2.53Zm235.9-.65h0l-6.82-.71a.41.41,0,0,1-.31-.48c0-.25.18-.43.36-.41l6.82.71a.44.44,0,0,1,.32.48C408.73,179.3,408.58,179.48,408.41,179.48Zm-13.64-1.43h0l-6.82-.71a.41.41,0,0,1-.31-.48c0-.25.18-.43.36-.41l6.82.71a.43.43,0,0,1,.32.48C395.09,177.88,394.94,178.05,394.77,178.05Zm-13.64-1.42h0l-6.82-.71a.41.41,0,0,1-.31-.48c0-.25.17-.43.36-.41l6.82.71a.41.41,0,0,1,.31.48A.38.38,0,0,1,381.13,176.63Zm-13.65-1.42h0l-6.82-.71a.43.43,0,0,1-.32-.48c0-.25.19-.43.37-.41l6.82.71a.41.41,0,0,1,.31.48A.39.39,0,0,1,367.48,175.21Zm-181.83-.14a.37.37,0,0,1-.33-.32.49.49,0,0,1,.23-.56l6.57-2.53c.18-.07.37.07.42.31a.48.48,0,0,1-.23.55l-6.57,2.53Zm168.19-1.28h0l-6.82-.71a.44.44,0,0,1-.32-.48c0-.25.18-.43.37-.41l6.82.71a.41.41,0,0,1,.31.48A.39.39,0,0,1,353.84,173.79Zm-13.63-1.54h0l-6.79-1.05a.44.44,0,0,1-.3-.5c0-.25.19-.42.37-.4l6.8,1.06a.44.44,0,0,1,.3.5A.38.38,0,0,1,340.21,172.25Zm-13.59-2.11h0l-6.79-1.06a.43.43,0,0,1-.3-.49c0-.25.19-.43.38-.4l6.79,1.06a.44.44,0,0,1,.3.5A.39.39,0,0,1,326.62,170.14ZM198.78,170a.38.38,0,0,1-.33-.32.49.49,0,0,1,.24-.56l6.56-2.53c.18-.06.37.07.42.31a.46.46,0,0,1-.23.55L198.88,170A.2.2,0,0,1,198.78,170ZM313,168h0L306.2,167a.44.44,0,0,1-.3-.5c0-.24.19-.42.38-.39l6.79,1.06a.44.44,0,0,1,.3.5A.39.39,0,0,1,313,168Zm-13.59-2.11h0l-6.79-1.06a.44.44,0,0,1-.3-.5c0-.24.19-.42.38-.39l6.79,1.06a.43.43,0,0,1,.3.49A.4.4,0,0,1,299.44,165.92Zm-87.52-1a.36.36,0,0,1-.33-.32.47.47,0,0,1,.23-.55l6.57-2.53c.18-.07.37.06.42.3a.49.49,0,0,1-.23.56L212,164.94Zm73.93-1.14h0L279,162.75a.44.44,0,0,1-.3-.5c0-.24.19-.42.38-.39l6.79,1a.44.44,0,0,1,.3.5A.4.4,0,0,1,285.85,163.81Zm-13.59-2.11h0l-6.79-1.05a.44.44,0,0,1-.3-.5c0-.25.19-.42.38-.39l6.79,1.05a.44.44,0,0,1,.3.5A.4.4,0,0,1,272.26,161.7Zm-47.21-1.8c-.15,0-.28-.13-.33-.33A.49.49,0,0,1,225,159l6.56-2.53c.18-.07.37.07.42.3a.48.48,0,0,1-.23.56l-6.56,2.53Zm33.62-.31h0l-6.79-1.05a.44.44,0,0,1-.3-.5c0-.25.19-.42.38-.39l6.79,1.05a.44.44,0,0,1,.3.5A.4.4,0,0,1,258.67,159.59Zm-13.59-2.12h0l-6.79-1.06c-.19,0-.32-.25-.3-.49s.19-.42.38-.4l6.79,1.06a.44.44,0,0,1,.3.5A.38.38,0,0,1,245.08,157.47Z"/>
    <path class="cls-5"
          d="M69.33,245.48h-.07l-3.32-.93a.45.45,0,0,1-.26-.53c0-.24.22-.4.4-.35l3.32.93a.47.47,0,0,1,.27.53C69.63,245.34,69.49,245.48,69.33,245.48Z"/>
    <path class="cls-5"
          d="M216.88,286.78h-.07l-6.71-1.88a.46.46,0,0,1-.26-.53c0-.24.22-.39.41-.34l6.7,1.87a.47.47,0,0,1,.26.54A.37.37,0,0,1,216.88,286.78ZM203.47,283h-.07l-6.71-1.88a.46.46,0,0,1-.26-.53c0-.24.22-.4.4-.35l6.71,1.88a.46.46,0,0,1,.26.53A.38.38,0,0,1,203.47,283Zm-13.42-3.76H190l-6.7-1.88a.45.45,0,0,1-.26-.53c0-.24.21-.39.4-.34l6.71,1.87a.48.48,0,0,1,.26.54A.38.38,0,0,1,190.05,279.27Zm-13.41-3.75h-.07l-6.71-1.88a.46.46,0,0,1-.26-.53c0-.24.22-.4.4-.35l6.71,1.88a.45.45,0,0,1,.26.53A.38.38,0,0,1,176.64,275.52Zm-13.41-3.76h-.07l-6.71-1.87a.48.48,0,0,1-.26-.54c0-.24.22-.39.4-.34l6.71,1.88a.46.46,0,0,1,.26.53A.37.37,0,0,1,163.23,271.76ZM149.81,268h-.07l-6.7-1.88a.47.47,0,0,1-.27-.53c0-.24.22-.4.41-.35l6.7,1.88a.46.46,0,0,1,.27.53A.39.39,0,0,1,149.81,268Zm-13.41-3.76h-.07l-6.71-1.87a.48.48,0,0,1-.26-.54c0-.24.22-.39.4-.34l6.71,1.88a.46.46,0,0,1,.26.53A.37.37,0,0,1,136.4,264.25ZM123,260.5h-.07l-6.71-1.88a.46.46,0,0,1-.26-.53c0-.24.22-.4.4-.35l6.71,1.88a.46.46,0,0,1,.26.53A.38.38,0,0,1,123,260.5Zm-13.42-3.76h-.07l-6.7-1.87a.47.47,0,0,1-.27-.54c0-.24.22-.39.41-.34l6.7,1.88a.47.47,0,0,1,.27.53A.38.38,0,0,1,109.57,256.74ZM96.16,253h-.07l-6.71-1.88a.46.46,0,0,1-.26-.53c0-.24.22-.4.4-.34l6.71,1.87a.46.46,0,0,1,.26.53A.38.38,0,0,1,96.16,253Zm-13.41-3.76h-.07L76,247.35a.46.46,0,0,1-.26-.53c0-.25.22-.4.4-.35l6.71,1.88a.46.46,0,0,1,.26.53A.38.38,0,0,1,82.75,249.23Z"/>
    <path class="cls-5"
          d="M226.91,289.59h-.07l-3.32-.93a.45.45,0,0,1-.26-.53c0-.25.22-.4.4-.35l3,.83.34-4c0-.25.19-.43.37-.4a.44.44,0,0,1,.3.5l-.38,4.45a.45.45,0,0,1-.14.31A.28.28,0,0,1,226.91,289.59Z"/>
    <path class="cls-5"
          d="M228.09,275.87h0a.44.44,0,0,1-.3-.5l.79-9.26c0-.25.19-.43.37-.4a.44.44,0,0,1,.3.5l-.79,9.26C228.4,275.7,228.26,275.87,228.09,275.87Zm1.58-18.53h0a.44.44,0,0,1-.3-.5l.79-9.26c0-.25.19-.42.38-.4a.45.45,0,0,1,.3.5l-.79,9.26A.4.4,0,0,1,229.67,257.34Zm1.58-18.53h0a.45.45,0,0,1-.3-.5l.79-9.26c0-.25.19-.42.38-.4a.44.44,0,0,1,.3.5l-.79,9.26A.4.4,0,0,1,231.25,238.81Zm1.58-18.53h0a.45.45,0,0,1-.3-.5l.8-9.26c0-.25.18-.42.37-.4a.44.44,0,0,1,.3.5l-.79,9.26A.4.4,0,0,1,232.83,220.28Zm1.59-18.53h0a.44.44,0,0,1-.3-.5l.79-9.26c0-.25.19-.42.37-.4a.44.44,0,0,1,.3.5l-.79,9.26C234.73,201.58,234.59,201.75,234.42,201.75ZM236,183.22h0a.44.44,0,0,1-.3-.5l.79-9.26c0-.25.19-.42.38-.4a.45.45,0,0,1,.3.5l-.79,9.27A.39.39,0,0,1,236,183.22Z"/>
    <path class="cls-5"
          d="M237.58,164.69h0a.44.44,0,0,1-.3-.49l.38-4.46c0-.24.19-.42.38-.39a.44.44,0,0,1,.3.49l-.38,4.46A.39.39,0,0,1,237.58,164.69Z"/>
    <path class="cls-5"
          d="M94.48,361h0l-3.39-.21a.43.43,0,0,1-.33-.47c0-.25.18-.44.36-.43l3.39.21a.42.42,0,0,1,.33.47A.4.4,0,0,1,94.48,361Z"/>
    <path class="cls-5"
          d="M302.79,373.77h0l-6.94-.42a.43.43,0,0,1-.33-.47c0-.25.17-.44.36-.43l6.94.43c.19,0,.33.22.32.47A.38.38,0,0,1,302.79,373.77Zm-13.88-.85h0l-6.94-.43a.42.42,0,0,1-.33-.47.39.39,0,0,1,.36-.42l6.94.42a.42.42,0,0,1,.33.47A.4.4,0,0,1,288.91,372.92ZM275,372.07h0l-6.94-.42c-.19,0-.33-.22-.32-.47a.39.39,0,0,1,.35-.43l7,.43a.42.42,0,0,1,.32.47A.4.4,0,0,1,275,372.07Zm-13.89-.86h0l-7-.43a.41.41,0,0,1-.32-.46c0-.25.17-.44.35-.43l6.95.43a.42.42,0,0,1,.32.46A.4.4,0,0,1,261.13,371.21Zm-13.89-.85h0l-6.95-.43a.42.42,0,0,1-.32-.47c0-.25.17-.44.36-.43l6.94.43c.19,0,.33.22.32.47A.4.4,0,0,1,247.24,370.36Zm-13.88-.86h0l-6.94-.42a.43.43,0,0,1-.33-.47c0-.25.17-.44.36-.43l6.94.43c.19,0,.33.22.33.47A.39.39,0,0,1,233.36,369.5Zm-13.89-.85h0l-6.94-.43c-.19,0-.33-.22-.32-.47s.16-.44.35-.42l6.94.42a.43.43,0,0,1,.33.47A.4.4,0,0,1,219.47,368.65Zm-13.89-.85h0l-6.94-.43c-.19,0-.33-.22-.32-.47s.16-.44.35-.43l6.95.43a.42.42,0,0,1,.32.47A.4.4,0,0,1,205.58,367.8Zm-13.89-.86h0l-7-.43a.42.42,0,0,1-.32-.46c0-.25.17-.44.35-.43l7,.43c.19,0,.33.22.32.47A.39.39,0,0,1,191.69,366.94Zm-13.88-.85h0l-6.94-.43a.42.42,0,0,1-.33-.47c0-.24.17-.44.36-.42l6.94.42c.19,0,.33.22.32.47A.39.39,0,0,1,177.81,366.09Zm-13.89-.86h0l-6.94-.42c-.19,0-.33-.22-.33-.47s.17-.44.36-.43l6.94.43a.42.42,0,0,1,.33.47A.39.39,0,0,1,163.92,365.23ZM150,364.38h0l-6.94-.43a.41.41,0,0,1-.32-.46c0-.25.16-.44.35-.43l7,.43a.42.42,0,0,1,.32.46A.4.4,0,0,1,150,364.38Zm-13.89-.85h0l-6.95-.43c-.19,0-.33-.22-.32-.47s.17-.44.35-.43l6.95.43c.19,0,.33.22.32.47A.4.4,0,0,1,136.14,363.53Zm-13.89-.86h0l-6.95-.42a.43.43,0,0,1-.32-.47c0-.25.17-.44.36-.43l6.94.43c.19,0,.33.22.32.47A.38.38,0,0,1,122.25,362.67Zm-13.88-.85h0l-6.94-.43a.42.42,0,0,1-.33-.47.39.39,0,0,1,.36-.42l6.94.42a.43.43,0,0,1,.33.47A.4.4,0,0,1,108.37,361.82Z"/>
    <path class="cls-5"
          d="M313.13,374.41h0l-3.4-.21a.42.42,0,0,1-.32-.47.4.4,0,0,1,.35-.43l3.4.21c.19,0,.33.22.32.47A.4.4,0,0,1,313.13,374.41Z"/>
    <path class="cls-5"
          d="M438.41,307.2a.31.31,0,0,1-.23-.12l-2.54-3a.57.57,0,0,1,0-.64.29.29,0,0,1,.48,0l2.54,3a.54.54,0,0,1,0,.63A.31.31,0,0,1,438.41,307.2Z"/>
    <path class="cls-5"
          d="M430.8,298.27a.3.3,0,0,1-.23-.11l-5.06-5.94a.57.57,0,0,1,0-.64.29.29,0,0,1,.48,0l5.07,5.94a.54.54,0,0,1,0,.63A.3.3,0,0,1,430.8,298.27Zm-10.13-11.88a.31.31,0,0,1-.23-.12l-5.06-5.94a.53.53,0,0,1,0-.63.28.28,0,0,1,.48,0l5.06,5.94a.56.56,0,0,1,0,.64A.31.31,0,0,1,420.67,286.39ZM410.53,274.5a.28.28,0,0,1-.22-.12l-5.07-5.94a.56.56,0,0,1,0-.63.29.29,0,0,1,.48,0l5.07,6a.56.56,0,0,1,0,.63A.31.31,0,0,1,410.53,274.5ZM400.4,262.61a.29.29,0,0,1-.22-.11l-5.07-5.95a.56.56,0,0,1,0-.63.29.29,0,0,1,.48,0l5.07,5.95a.56.56,0,0,1,0,.63A.33.33,0,0,1,400.4,262.61Zm-10.13-11.89a.33.33,0,0,1-.23-.11l-5.06-6a.54.54,0,0,1,0-.63.29.29,0,0,1,.48,0l5.06,5.95a.54.54,0,0,1,0,.63A.3.3,0,0,1,390.27,250.72Zm-10.14-11.89a.26.26,0,0,1-.22-.11l-5.07-5.94a.57.57,0,0,1,0-.64.29.29,0,0,1,.48,0l5.07,5.94a.56.56,0,0,1,0,.63A.31.31,0,0,1,380.13,238.83ZM370,227a.28.28,0,0,1-.22-.12l-5.07-5.94a.56.56,0,0,1,0-.63.28.28,0,0,1,.48,0l5.07,5.94a.57.57,0,0,1,0,.64A.34.34,0,0,1,370,227Zm-10.13-11.89a.31.31,0,0,1-.23-.12L354.58,209a.54.54,0,0,1,0-.63.29.29,0,0,1,.48,0l5.06,5.94a.54.54,0,0,1,0,.64A.3.3,0,0,1,359.87,215.06Z"/>
    <path class="cls-5"
          d="M349.74,203.17a.31.31,0,0,1-.23-.11l-2.35-2.76-2.7,2.14a.29.29,0,0,1-.46-.15.52.52,0,0,1,.11-.61l2.91-2.32a.28.28,0,0,1,.4,0l2.54,3a.56.56,0,0,1,0,.63A.31.31,0,0,1,349.74,203.17Z"/>
    <path class="cls-5"
          d="M243.63,282.81a.35.35,0,0,1-.3-.22.54.54,0,0,1,.12-.61l5.59-4.46a.3.3,0,0,1,.47.15.53.53,0,0,1-.12.61l-5.59,4.46A.23.23,0,0,1,243.63,282.81Zm11.18-8.92a.34.34,0,0,1-.29-.22.54.54,0,0,1,.11-.62l5.6-4.46a.3.3,0,0,1,.46.15.54.54,0,0,1-.11.62L255,273.82A.27.27,0,0,1,254.81,273.89ZM266,265a.34.34,0,0,1-.3-.21.56.56,0,0,1,.12-.62l5.59-4.46a.3.3,0,0,1,.47.15.54.54,0,0,1-.12.62l-5.59,4.46A.27.27,0,0,1,266,265ZM277.18,256a.32.32,0,0,1-.29-.21.54.54,0,0,1,.11-.62l5.6-4.46a.29.29,0,0,1,.46.15.54.54,0,0,1-.11.62L277.36,256A.32.32,0,0,1,277.18,256Zm11.18-8.92a.35.35,0,0,1-.29-.22.54.54,0,0,1,.12-.61l5.59-4.46a.3.3,0,0,1,.47.15.54.54,0,0,1-.12.61l-5.59,4.47A.3.3,0,0,1,288.36,247.12Zm11.19-8.92a.33.33,0,0,1-.29-.22.52.52,0,0,1,.11-.61l5.6-4.46a.29.29,0,0,1,.46.15.52.52,0,0,1-.11.61l-5.59,4.46A.27.27,0,0,1,299.55,238.2Zm11.18-8.92a.35.35,0,0,1-.29-.22.56.56,0,0,1,.12-.62l5.59-4.46a.31.31,0,0,1,.47.15.55.55,0,0,1-.12.62l-5.59,4.46A.31.31,0,0,1,310.73,229.28Zm11.19-8.93a.31.31,0,0,1-.29-.21.54.54,0,0,1,.11-.62l5.6-4.46c.16-.13.36-.06.46.15a.54.54,0,0,1-.11.62l-5.6,4.46A.27.27,0,0,1,321.92,220.35Zm11.18-8.92a.35.35,0,0,1-.29-.21.55.55,0,0,1,.12-.62l5.59-4.46a.3.3,0,0,1,.47.15.56.56,0,0,1-.12.62l-5.59,4.46A.32.32,0,0,1,333.1,211.43Z"/>
    <path class="cls-5"
          d="M235.13,289.59a.35.35,0,0,1-.3-.22.54.54,0,0,1,.12-.61l2.91-2.32a.29.29,0,0,1,.46.15.52.52,0,0,1-.11.61l-2.91,2.32A.23.23,0,0,1,235.13,289.59Z"/>
    <path class="cls-5"
          d="M438.6,192.6a.3.3,0,0,1-.23-.11.57.57,0,0,1,0-.64l2.29-3.31a.29.29,0,0,1,.48,0,.56.56,0,0,1,0,.64l-2.28,3.32A.33.33,0,0,1,438.6,192.6Z"/>
    <path class="cls-5"
          d="M335.36,342.44a.29.29,0,0,1-.23-.12.54.54,0,0,1,0-.63l4.69-6.81a.29.29,0,0,1,.48,0,.54.54,0,0,1,0,.63l-4.69,6.81A.31.31,0,0,1,335.36,342.44Zm9.38-13.62a.31.31,0,0,1-.23-.12.56.56,0,0,1,0-.63l4.69-6.81a.28.28,0,0,1,.48,0,.56.56,0,0,1,0,.63l-4.7,6.81A.29.29,0,0,1,344.74,328.82Zm9.39-13.62a.29.29,0,0,1-.23-.12.54.54,0,0,1,0-.63l4.69-6.81a.28.28,0,0,1,.48,0,.54.54,0,0,1,0,.63l-4.69,6.81A.31.31,0,0,1,354.13,315.2Zm9.38-13.63a.3.3,0,0,1-.23-.11.59.59,0,0,1,0-.64L368,294a.29.29,0,0,1,.48,0,.57.57,0,0,1,0,.64l-4.7,6.81A.3.3,0,0,1,363.51,301.57ZM372.9,288a.33.33,0,0,1-.23-.11.56.56,0,0,1,0-.64l4.69-6.81a.29.29,0,0,1,.48,0,.56.56,0,0,1,0,.64l-4.69,6.81A.33.33,0,0,1,372.9,288Zm9.38-13.62a.28.28,0,0,1-.22-.12.56.56,0,0,1,0-.63l4.69-6.81a.29.29,0,0,1,.48,0,.56.56,0,0,1,0,.63l-4.69,6.81A.31.31,0,0,1,382.28,274.33Zm9.39-13.62a.31.31,0,0,1-.23-.12.54.54,0,0,1,0-.63l4.69-6.81a.29.29,0,0,1,.48,0,.54.54,0,0,1,0,.63l-4.69,6.81A.31.31,0,0,1,391.67,260.71Zm9.38-13.62a.28.28,0,0,1-.22-.12.56.56,0,0,1,0-.63l4.7-6.81a.28.28,0,0,1,.48,0,.58.58,0,0,1,0,.63l-4.69,6.81A.31.31,0,0,1,401.05,247.09Zm9.39-13.62a.31.31,0,0,1-.23-.12.54.54,0,0,1,0-.63l4.69-6.81a.28.28,0,0,1,.48,0,.54.54,0,0,1,0,.63l-4.69,6.81A.31.31,0,0,1,410.44,233.47Zm9.38-13.62a.28.28,0,0,1-.22-.12.56.56,0,0,1,0-.63l4.7-6.82a.29.29,0,0,1,.48,0,.57.57,0,0,1,0,.64l-4.69,6.81A.31.31,0,0,1,419.82,219.85Zm9.39-13.63a.3.3,0,0,1-.23-.11.56.56,0,0,1,0-.64l4.69-6.81a.29.29,0,0,1,.48,0,.56.56,0,0,1,0,.64l-4.69,6.81A.33.33,0,0,1,429.21,206.22Z"/>
    <path class="cls-5"
          d="M328.38,352.57a.31.31,0,0,1-.23-.12.54.54,0,0,1,0-.63l2.28-3.32a.29.29,0,0,1,.48,0,.56.56,0,0,1,0,.63l-2.29,3.32A.31.31,0,0,1,328.38,352.57Z"/>
    <g class="cls-6">
        <ellipse class="cls-7" cx="229.97" cy="274.92" rx="54.93" ry="57.4"/>
        <path class="cls-8"
              d="M221.09,228.68c8.35-7.76,14.47-3.13,19,2a77.89,77.89,0,0,1,7.15,9.32,3.85,3.85,0,0,1,.8,2.13c.09,4.72,2.4,24.71-.17,31.6-3,8-40,11.72-40,11.72Z"/>
        <path class="cls-8"
              d="M244.78,278.39a.43.43,0,0,1-.42-.42.44.44,0,0,1,.4-.46,3.43,3.43,0,0,0,2.7-1.56c4.14-5.6,1.81-24.33-.22-34.51a.43.43,0,0,1,.32-.52.42.42,0,0,1,.5.34,144.66,144.66,0,0,1,2.39,18.36c.47,8.46-.31,14.13-2.33,16.87a4.32,4.32,0,0,1-3.32,1.9Z"/>
        <path class="cls-8"
              d="M224.22,226.36c-16,9.27-6.26,40.6-26.6,51.77-5.63,3.1-22.94,18.8-11.6,39.51,7.42,13.54,29.6,10.63,36.9-1.36S224.22,226.36,224.22,226.36Z"/>
        <path class="cls-8"
              d="M181.54,297.64h0a.43.43,0,0,1-.36-.49,23.28,23.28,0,0,1,2-6.26,27.08,27.08,0,0,1,9.61-11.31c9.4-6.25,15.64-12.15,23-41.2a.41.41,0,0,1,.52-.31.43.43,0,0,1,.29.53c-3.57,14.05-7.11,23.55-11.14,29.9-3.74,5.89-7.6,8.73-12.25,11.82A26.3,26.3,0,0,0,182,297.26.43.43,0,0,1,181.54,297.64Z"/>
        <path class="cls-8"
              d="M181.89,289.53a.38.38,0,0,1-.22-.07.45.45,0,0,1-.13-.6,29.87,29.87,0,0,1,8.82-9.39c13.2-8.93,15.39-14.06,26.3-43.46a.41.41,0,0,1,.54-.24.44.44,0,0,1,.24.56c-5.46,14.71-8.72,23.32-12.29,29.43-3.83,6.57-8.16,10.27-14.34,14.44a28.92,28.92,0,0,0-8.56,9.12A.41.41,0,0,1,181.89,289.53Z"/>
        <path class="cls-9"
              d="M223.67,245.92A50.77,50.77,0,0,0,219,268.77s.63,4.22,3.18,5.11,6.16-1.78,5.95-5.33.85-12.2,2.12-15.31S223.67,245.92,223.67,245.92Z"/>
        <path class="cls-10" d="M194.49,329.17c.35,3.27-.43,3,2.35,3.55s7.74-1.46,7.74-1.46L199,320.45Z"/>
        <path class="cls-9"
              d="M219.66,262.34c-1.56,5.31-13.3,1.22-17.4,2.45S194.63,284,194,300.14s.2,29,1.76,31.06,27.38,2.86,29.73,2-19.56-11-19.56-11-1.37-18.8.39-28.4S224,271.53,224,271.53Z"/>
        <path class="cls-9"
              d="M225.14,264c4.1,6.54,14.86,5.72,18.58,11s11.53,34.53,11.53,34.53l8.22-29.63s6.66-1.17,4.49,3.68c-3.84,8.62-5.28,36.43-9.45,40.38-4.64,4.4-9.26.82-11.86-6.87-2.52-7.44-8.8-23.5-13.3-29.63A135.12,135.12,0,0,1,224,271.53Z"/>
        <path class="cls-11"
              d="M207.34,264.79c8.21,10,24.25,9.6,27.77,8.38l3.52-1.23a4.67,4.67,0,0,1,5.09,1.84c2.34,2.86,8,20.84,9,24.93s2.54,10.83,2.54,10.83-4.19,5.26-4.19,10.57,1.78,5.36,1.78,5.36-5.21-1.22-6.39-4.49-11.73-32.9-11.73-32.9l-29.14.62.39,33.51s-2.54-2.45-6.06,0-4.69,8.17-4.11,9-1.17.82-1.17.2-3.32-15.53-1-40S200.5,264.18,203,264A8,8,0,0,1,207.34,264.79Z"/>
        <path class="cls-10" d="M251.65,325.05l.08,0Z"/>
        <path class="cls-10"
              d="M252.77,310.28c-1.69.55-4.56,6.81-4.56,6.81a126.7,126.7,0,0,1-8.47-35.42l-2.33,14c3.21,9,8.25,23.15,9,25.35,1.08,3,5.4,4.24,6,4.38-.16-.06-.52-.28-.82-1.18-.17-.17-1.15-.64-1.33-.82-1.57-1.5-.92-5,.13-9S254.47,309.74,252.77,310.28Z"/>
        <path class="cls-10"
              d="M207,288.67l-3.23-15.44c-3.52,5.17-3.91,22.88-2.48,35,1.18,9.94,2.94,12.52,4.15,13.56a3.2,3.2,0,0,1,.55.41l-.39-33.51Z"/>
        <path class="cls-11"
              d="M197.62,273.09c6,16.89,3,20.3,10.89,40.13a63.92,63.92,0,0,0,12.91,19.41,51.83,51.83,0,0,0,15.45,1.23c8.61-.62,14.9-1.24,14.9-1.24s-9-5.71-9.42-9.59-2.09-19.29.12-30.18c1.74-8.52-5.4-17-5.4-17l-11.93-.61Z"/>
        <path class="cls-12"
              d="M208.18,299c-1-4,4.44,1.22,13.43,2.18s19-.55,14.08,1.08-18.51-.81-16,4.36c2.91,6.1,6.36,12,11.34,15.53,3.26,2.32,11.08,4.5,3.52,3.27s-15.64-10.49-19.16-16.48S208.42,299.86,208.18,299Z"/>
        <path class="cls-13"
              d="M228.11,267c.07-4.08,1-11,2.14-13.76.91-2.23-2.86-5-5.07-6.43l-1.88-.08c-.28.65-.55,1.29-.8,1.94-2,13.56,3.94,19.16,6.76,20.29a8.16,8.16,0,0,0,3.75.43A22.28,22.28,0,0,1,228.11,267Z"/>
        <path class="cls-14"
              d="M224.52,273.05a8.37,8.37,0,0,1-2.08-.27c-1.64-.41-5.54-2-6.45-7.69a.25.25,0,0,1,.2-.28.24.24,0,0,1,.27.2c.86,5.4,4.54,6.9,6.09,7.29,2.4.61,4.94.05,5.91-1.31.79-1.09.32-3.41.31-3.43a.25.25,0,0,1,.18-.3.24.24,0,0,1,.28.19c0,.11.52,2.57-.39,3.84A5.28,5.28,0,0,1,224.52,273.05Z"/>
        <path class="cls-9"
              d="M242.93,251.25c-1.33,7.32-4.39,13.22-9.58,12.11s-10.63-8.84-9.2-16.14,6.8-12.31,12-11.2S244.69,241.5,242.93,251.25Z"/>
        <path class="cls-9" d="M261.38,287.4s-9.58,26.9-10,29.69.46,4.57.72,4.57,8.41-14.58,8.41-14.58Z"/>
        <path class="cls-9" d="M261.77,286.22c.78-2.73-.43-6.18-.43-6.18l3.47.45Z"/>
        <path class="cls-15"
              d="M265.59,281.57h-9.7a.91.91,0,0,1-.84-1.18l6.12-21.46a.88.88,0,0,1,.84-.66h9.7a.92.92,0,0,1,.85,1.19l-6.13,21.45A.88.88,0,0,1,265.59,281.57Z"/>
        <path class="cls-16"
              d="M266.81,281.57h-9.7a.92.92,0,0,1-.85-1.18l6.13-21.46a.88.88,0,0,1,.84-.66h9.7a.93.93,0,0,1,.85,1.19l-6.13,21.45A.88.88,0,0,1,266.81,281.57Z"/>
        <path class="cls-17"
              d="M259.78,266c-1,3.89-1.73,7.09-1.55,7.14s1.16-3.07,2.19-7,1.73-7.09,1.55-7.14S260.82,262.12,259.78,266Z"/>
        <path class="cls-9"
              d="M266.38,287.94c.28-3.54,3.22-6.85,4.33-7.91a1.73,1.73,0,0,0,.53-1.26c0-1.76-.09-5.93-.44-6.41s-1.56-8.59-2.07-8.28.14,7.27.14,7.27l-1.92-.93c-.67-.31-3.41,2.87-3.41,2.87s-1.28,3.39,2.23,1.94c4.17-1.73,1,3.08-1.74,6.17-2.29,2.55-.34,3.11-.34,3.11l1.85-.08Z"/>
        <path class="cls-14"
              d="M265.32,290.75a3.13,3.13,0,0,1-1-.17c-.91-.29-2.5-1.25-2.91-4.31a.25.25,0,0,1,.2-.28.23.23,0,0,1,.26.21c.35,2.56,1.53,3.52,2.46,3.86a2.23,2.23,0,0,0,1.61.08.22.22,0,0,1,.14-.18.24.24,0,0,1,.31.14.35.35,0,0,1-.07.36A1.45,1.45,0,0,1,265.32,290.75Z"/>
        <path class="cls-14"
              d="M265,289.87a5,5,0,0,1-.87-.07,3.36,3.36,0,0,1-3.1-2.45.25.25,0,0,1,.17-.3.25.25,0,0,1,.29.19,2.71,2.71,0,0,0,2.09,1.94,3.86,3.86,0,0,0,2.53,0,.23.23,0,0,1,.32-.09.27.27,0,0,1,.09.34C266.31,289.73,265.67,289.87,265,289.87Z"/>
        <path class="cls-2"
              d="M237,255.1l-.32,0c-1.67-.27-2.67-2.5-2.29-5.09s2-4.41,3.64-4.15,2.68,2.51,2.3,5.1C239.94,253.35,238.52,255.1,237,255.1Zm.72-8.42c-1.11,0-2.22,1.5-2.51,3.43s.43,3.91,1.6,4.1,2.39-1.38,2.69-3.41-.43-3.92-1.59-4.1Z"/>
        <path class="cls-2"
              d="M242.4,255.1l-.16,0c-1.11-.17-1.69-2.05-1.36-4.37s1.44-3.93,2.55-3.75,1.69,2.06,1.35,4.37a7.16,7.16,0,0,1-.91,2.7A1.9,1.9,0,0,1,242.4,255.1Zm.86-7.49c-.62,0-1.47,1.26-1.75,3.2s.2,3.52.82,3.62c.31,0,.67-.23,1-.76a6.43,6.43,0,0,0,.82-2.44c.29-2-.2-3.52-.83-3.62Z"/>
        <path class="cls-2"
              d="M235.17,248.33l-.11,0-12.78-3.82A.44.44,0,0,1,222,244a.43.43,0,0,1,.52-.3l12.78,3.82a.45.45,0,0,1,.29.54A.44.44,0,0,1,235.17,248.33Z"/>
        <path class="cls-8" d="M244.3,240c-19.77,12.17-20.86,4-20.86,4l1.17-11.62,11.74.68Z"/>
        <path class="cls-9"
              d="M225,246.68c.46,2.06-.17,4-1.4,4.28s-2.61-1.13-3.07-3.18.16-4,1.4-4.27S224.51,244.63,225,246.68Z"/>
        <path class="cls-14"
              d="M223.61,249.39a.79.79,0,0,1-.77.81.79.79,0,0,1-.78-.81.8.8,0,0,1,.78-.82A.79.79,0,0,1,223.61,249.39Z"/>
        <path class="cls-9" d="M229.31,327s5.34-2.45,6.91-1.36a72,72,0,0,1,6.08,6.09Z"/>
        <path class="cls-16"
              d="M242,332.16c-.11.13-.26.19-.34.12l-11-8.55c-.59-.46-.88-1.17-.59-1.54s1-.24,1.56.26l10.41,9.34C242.13,331.86,242.11,332,242,332.16Z"/>
        <path class="cls-9"
              d="M213.14,326s8.86,3.68,9.91,3.68,6.86-4.09,8.82-3.54,11.52,5.58,11.26,6-3,1.36-11.09,1.09-21.25-1.5-21.25-1.5Z"/>
    </g>
    <path class="cls-18"
          d="M348.18,399.82S301.69,366.08,282,385.54c-15.71,15.53,12.17,33.78,47.82,28.87C355,411,357.8,416,362.19,415.87,394.91,413.25,439,403,417.53,387c-29.22-21.88-49,1.32-59.17,7.1Z"/>
    <path class="cls-19"
          d="M408.29,386.14c-12.22-2.63-58.77,15.41-58.77,15.41s-40.54-12.77-50.23-14-14.16,2.64-14.16,2.64,4.57-5.39,9.89-5.88,13-1.82,13-1.82,77.58-3.86,87.86-1.42S408.29,386.14,408.29,386.14Z"/>
    <path class="cls-20"
          d="M342.36,320.49c-1.84.3-30.5,13.36-30.85,18.83s7.85,49.86,23.72,55.64,33.61,0,33.61,0,18.61-48,13.09-57.15-30.55-17.32-30.55-17.32Z"/>
    <path class="cls-20"
          d="M321.3,330.82c-27.38,15.33-34.1,43-26.86,49.11,5.07,4.27,24.2,13.73,40.79,13.12a258.79,258.79,0,0,1,32.15,1s28.45-6,34.12-14.95-10.07-37.84-24.18-46.21S321.3,330.82,321.3,330.82Z"/>
    <path class="cls-9"
          d="M347.4,337.81a7.07,7.07,0,0,1-6.88-7.19V306.4a6.89,6.89,0,1,1,13.77,0v24.22A7.07,7.07,0,0,1,347.4,337.81Z"/>
    <path class="cls-13"
          d="M347.4,299.21a7.06,7.06,0,0,0-6.88,7.19v19.8c4.06,3.55,8,1.69,13.77-3V306.4A7.06,7.06,0,0,0,347.4,299.21Z"/>
    <path class="cls-9"
          d="M362.52,307.38c-1.13,2.41-3,3.75-4.11,3s-1.14-3.34,0-5.75,3-3.75,4.1-3S363.65,305,362.52,307.38Z"/>
    <path class="cls-9"
          d="M335.88,304.8c1.3,2.19,1.56,4.85.56,5.93s-2.87.17-4.18-2-1.56-4.85-.56-5.93S334.57,302.6,335.88,304.8Z"/>
    <ellipse class="cls-9" cx="347.71" cy="307.23" rx="11.84" ry="15.93"/>
    <path class="cls-21"
          d="M373.53,346.66c7.76,4.32,14.52,20.7,14.52,20.7S370.6,370.2,367,373s.51-1.08,2.58-8.92S373.53,346.66,373.53,346.66Z"/>
    <path class="cls-21"
          d="M319.52,345.48c1.81,8.64,10.48,32.78,10.48,32.78s-8-9.55-16.55-10.09-11.7-.67-11.64,1.49c0,.43,1.42-9.59,8-15.81A100.46,100.46,0,0,1,319.52,345.48Z"/>
    <path class="cls-22"
          d="M371.53,399.91H324.68a3.91,3.91,0,0,1-3.81-3.37l-5.65-35.22a4,4,0,0,1,3.81-4.71h58.14a4,4,0,0,1,3.82,4.71l-5.65,35.22A3.92,3.92,0,0,1,371.53,399.91Z"/>
    <path class="cls-5"
          d="M371.53,399.91H324.68a3.86,3.86,0,0,1-3.81-3.25l-5.65-34a3.88,3.88,0,0,1,3.81-4.53h58.14a3.89,3.89,0,0,1,3.82,4.53l-5.65,34A3.88,3.88,0,0,1,371.53,399.91Z"/>
    <path class="cls-19"
          d="M354.29,413.79c-.28-.05-30.25-7.89-37-2.11s22.4,5.87,27.64,4.6S354.29,413.79,354.29,413.79Z"/>
    <path class="cls-19"
          d="M361,415.2a22.26,22.26,0,0,1,14.84-4.13c8.43.91,15.71,2.83,8.43,5.21a51.22,51.22,0,0,1-18.32,2.39A6.41,6.41,0,0,1,361,415.2Z"/>
    <path class="cls-23"
          d="M343.93,284.77c-7.69,2.44-5,25.06,3.78,24.32s9.15-10.53,8.53-16.87S351.87,282.25,343.93,284.77Z"/>
    <path class="cls-23"
          d="M341.17,301.54c-2.14-2.14-5.08,4.6-3.92,7.56s-.47,4.69,1.1,7.88-2.89-2-3.51-5.84-1-10.44-1.87-13.42,0-8.15,4-9.23,4.89-3,6.41-3.07,8.74.65,12.31,2.7A9.8,9.8,0,0,1,361,297.9c-.27,4.66-1.43,16.59-2.5,18.55s-1.62,1.49-1.3.37,1.48-7.83.59-10.25-.45-8.39-2.77-8.85-1.78,3.66-4.55,4A76.86,76.86,0,0,1,341.17,301.54Z"/>
    <path class="cls-24"
          d="M306,244.9H263.76a2.47,2.47,0,0,1-2.41-2.55l.22-18.34a2.55,2.55,0,0,1,2.48-2.56h42.24A2.47,2.47,0,0,1,308.7,224l-.22,18.34A2.54,2.54,0,0,1,306,244.9Z"/>
    <path class="cls-2"
          d="M303.93,243h-38a2.15,2.15,0,0,1-2.1-2.22l.19-15.18a2.21,2.21,0,0,1,2.15-2.22h38a2.15,2.15,0,0,1,2.1,2.22l-.19,15.18A2.21,2.21,0,0,1,303.93,243Z"/>
    <path class="cls-24" d="M280.17,243.84c-.25,9.66-4.64,12.65-4.64,12.65s2-5.54.5-8.24a9.47,9.47,0,0,0-3.89-3.84Z"/>
    <path class="cls-24"
          d="M302.2,228.77H277.68A.74.74,0,0,1,277,228v0a.76.76,0,0,1,.74-.76h24.52a.73.73,0,0,1,.72.76v0A.76.76,0,0,1,302.2,228.77Z"/>
    <path class="cls-24"
          d="M302.16,232H277.64a.74.74,0,0,1-.72-.76v0a.76.76,0,0,1,.74-.76h24.52a.73.73,0,0,1,.72.76v0A.75.75,0,0,1,302.16,232Z"/>
    <path class="cls-24"
          d="M302.12,235.74H277.6a.74.74,0,0,1-.72-.77v0a.76.76,0,0,1,.74-.77h24.52a.75.75,0,0,1,.72.77v0A.77.77,0,0,1,302.12,235.74Z"/>
    <path class="cls-24" d="M274.74,231.4c0,2.79-1.82,5-4,5s-3.92-2.26-3.89-5,1.83-5,4-5S274.78,228.61,274.74,231.4Z"/>
    <path class="cls-24"
          d="M342.89,275.55H300.11a2.51,2.51,0,0,1-2.45-2.59l.23-18.57a2.58,2.58,0,0,1,2.51-2.6h42.78a2.52,2.52,0,0,1,2.45,2.6L345.4,273A2.59,2.59,0,0,1,342.89,275.55Z"/>
    <path class="cls-2"
          d="M340.79,273.6H302.26a2.17,2.17,0,0,1-2.12-2.24l.19-15.38a2.23,2.23,0,0,1,2.17-2.24H341a2.17,2.17,0,0,1,2.12,2.24L343,271.36A2.23,2.23,0,0,1,340.79,273.6Z"/>
    <path class="cls-24" d="M322.56,274.47c0,9.79,4.39,12.81,4.39,12.81s-1.86-5.61-.31-8.35a10.09,10.09,0,0,1,4-3.89Z"/>
    <path class="cls-24"
          d="M325.93,260.5H305a.68.68,0,0,1-.67-.71v-.16a.7.7,0,0,1,.69-.71h21a.69.69,0,0,1,.67.71v.16A.72.72,0,0,1,325.93,260.5Z"/>
    <path class="cls-24"
          d="M325.89,263.82h-21a.69.69,0,0,1-.67-.72v-.16a.7.7,0,0,1,.69-.71h21a.69.69,0,0,1,.67.71v.16A.72.72,0,0,1,325.89,263.82Z"/>
    <path class="cls-24"
          d="M325.84,267.56h-21a.69.69,0,0,1-.67-.71v-.16a.72.72,0,0,1,.69-.72h21a.69.69,0,0,1,.67.72v.16A.7.7,0,0,1,325.84,267.56Z"/>
    <path class="cls-24"
          d="M336,268.85h-3a2.51,2.51,0,0,1-2.45-2.59l.08-6.48a2.59,2.59,0,0,1,2.51-2.59h3a2.5,2.5,0,0,1,2.44,2.59l-.07,6.48A2.58,2.58,0,0,1,336,268.85Z"/>
    <g class="cls-25">
        <ellipse class="cls-7" cx="137.25" cy="162.02" rx="65.2" ry="68.12"/>
        <path class="cls-26"
              d="M107.12,151.27c8.62,6.51,27.15,9.35,33.06,9.68s-3.28,17.36-3.28,17.36-15.89,2-23.39,0S107.12,151.27,107.12,151.27Z"/>
        <path class="cls-8"
              d="M92.32,320c.11,4.45,2.53,7.1,6.49,10.18,4.16,3.23,4.37,3.59-1.38,4.38s-7.35-1.93-11.18-3.1-1.38-4-1.6-6.67-.57-7-.57-7Z"/>
        <path class="cls-8"
              d="M125.86,317.82a65.15,65.15,0,0,0,6,6.16c3.41,3.07,12,4.12,7.88,5.26s-8.8.53-13.08,1.17-8,0-8.32-1.17,0-9.64,0-9.64Z"/>
        <path class="cls-27"
              d="M137.63,123.12c5.34-5.31,15.17,1.45,16.09,5.95,2.38,11.56,3.44,23.51.54,28.21s-26.78,6-28.41,6c-2.19,0-3.46-7.79.82-12.87s6.18-14.22,7-18.91C134.57,125.84,136.77,124,137.63,123.12Z"/>
        <path class="cls-27"
              d="M156.61,154.42h0a.26.26,0,0,1-.22-.3c1.25-9.45-.42-20.26-4.17-26.9a.28.28,0,0,1,.09-.37.25.25,0,0,1,.35.1c3.81,6.74,5.51,17.68,4.24,27.24A.26.26,0,0,1,156.61,154.42Z"/>
        <path class="cls-27"
              d="M158.15,148.24h0a.27.27,0,0,1-.24-.29c.51-8.55-3.56-19.27-7.28-22.45a.28.28,0,0,1,0-.38.26.26,0,0,1,.37,0c3.81,3.25,8,14.19,7.47,22.9A.27.27,0,0,1,158.15,148.24Z"/>
        <path class="cls-28"
              d="M126.59,156.91c-1.82,13.47-3.58,38.84-8.85,45s-8.2,20.9-8.2,20.9,17-9.72,24-33.62c2.19-7.49-3.15-25-4.44-26.66A23.51,23.51,0,0,1,126.59,156.91Z"/>
        <path class="cls-9"
              d="M163.5,193.91c-1.06,1.34-3.88,7.81-5.31,7.81-4.87,0-5.23,2-7.87,3.45-3.39,1.88-2.67,4.76-2.44,4.93s7.47-1.16,9.89-2.81c2-1.37,3.44-2.12,4.43-3.62s6.53-5.84,6.53-5.84Z"/>
        <path class="cls-29"
              d="M158.57,154c4.93,3.11,5.83,6,10.68,14.79s5.69,12,7.61,15.13,2.55,6.84-1.49,10.85c-3.87,3.82-5.67,5.38-7.79,4.79-1.43-.41-2.56-4.76-4.55-4s1.53-5.33,3.34-7c1-.94,1.39-.87,1.07-1.3a80.56,80.56,0,0,1-11.45-12C150.93,168.35,158.57,154,158.57,154Z"/>
        <path class="cls-28"
              d="M174,186.82a12.74,12.74,0,0,0-7.6-.53c.57.5.93.8,1,.9.32.43-.08.36-1.07,1.3a11.82,11.82,0,0,0-1.19,1.4,17,17,0,0,1,5-2c3.84-.58,4.08.5,6.07,1.84S178,188.65,174,186.82Z"/>
        <path class="cls-28"
              d="M163.52,158.6a16,16,0,0,0-5-4.65s-7.64,14.4-2.58,21.24A62.46,62.46,0,0,0,160.9,181C161,176.39,161.46,166.08,163.52,158.6Z"/>
        <path class="cls-29"
              d="M139.81,149.19c-6.6,1.55-11.92,3.59-13.29,7.59-.66,1.94,3.17,34,7,37.55,7.4,6.87,19.6.44,19.6.44s5.53-14.41,7.73-38.59c.57-2.18-12.63-6.47-14.76-6.91A29.16,29.16,0,0,0,139.81,149.19Z"/>
        <path class="cls-9"
              d="M142,319.18s-9,13.08-3.62,12.62,9-6.31,9-6.31,1.88,6.63,7.31,6.32,2.37-3.78,0-7.83a18.45,18.45,0,0,1-2.35-7.84Z"/>
        <path class="cls-9"
              d="M142.81,155.44a4.17,4.17,0,0,1-4.07-4.25V135.33a4.08,4.08,0,1,1,8.15,0v15.86A4.18,4.18,0,0,1,142.81,155.44Z"/>
        <path class="cls-13"
              d="M142.81,131.08a4.17,4.17,0,0,0-4.07,4.25v7.18a25.7,25.7,0,0,0,8.15,7.85v-15A4.18,4.18,0,0,0,142.81,131.08Z"/>
        <ellipse class="cls-9" cx="146.04" cy="134.96" rx="7.36" ry="10.53"
                 transform="matrix(0.98, -0.2, 0.2, 0.98, -24.13, 32.08)"/>
        <path class="cls-9"
              d="M134.44,192.42s-12.7,10-8.62,42.8,8.38,31.79,8.62,47.56,6.71,37.55,10.54,41.8,13.25-18.55,13.25-38.8c0-11.83,0-17.52,2.64-36s2.08-45.56-8.46-57.32S134.44,192.42,134.44,192.42Z"/>
        <path class="cls-13"
              d="M144.72,265.75c0-7.76-2.46-24.25-1.91-47.05l-16.19,22.55c3.82,26.7,7.6,26.8,7.82,41.53.18,12,3.94,27.34,7.42,36,2.26.84,3.78,1.84,4.18,3.09a13.74,13.74,0,0,0,1.1,2.87l.23-.17c.19-1.4-.78-8.53-1.84-18.89C143.73,288.11,144.73,273.51,144.72,265.75Z"/>
        <path class="cls-29"
              d="M128.74,180.71c2.11,13,.84,14.71-2.12,25.48s-3,39.29-3,39.29,8,3.51,23.56,2,17.68-3.26,17.68-3.26-1.76-27.78-4-36S155.15,194.28,155,189,128.74,180.71,128.74,180.71Z"/>
        <path class="cls-30"
              d="M138.42,331.8c5.43-.46,9-6.31,9-6.31s1.88,6.63,7.31,6.32c4.67-.26,3.07-2.86,1-6.16-.18.75-.76,1.44-2.29,1.38-3.21-.13-6.23-4.21-6.23-4.21s-5.59,4.51-7.67,4.19,1-5.54,1-5.54C138.24,325.2,134.44,332.14,138.42,331.8Z"/>
        <path class="cls-27"
              d="M100.66,140.6c-2.52-3.7-5.06-13.78-2.81-14.81s1.69-2.64,4-5.66,11.33-4.19,14,.88,3.82,5.59,3.92,8.31-6.31,9.49-6.31,9.49Z"/>
        <path class="cls-9"
              d="M160.15,199.71c-.73,1.15-1.44,2-2,2-4.87,0-5.23,2-7.87,3.45-3.39,1.88-2.67,4.76-2.44,4.93s7.47-1.16,9.89-2.81c2-1.37,3.44-2.12,4.43-3.62a7.58,7.58,0,0,1,1-1.12A23.3,23.3,0,0,1,160.15,199.71Z"/>
        <path class="cls-9"
              d="M102.33,127.57s-1.6,20.55-5.11,22.79S87,161,88,179s2.24,25.8,3.52,32.76,25.23,2.72,27.79,0,5.43-27.58,0-40.18-11.5-19.72-12.14-22.84,3.51-15.63,3.51-15.63Z"/>
        <path class="cls-13"
              d="M107.05,148c-.08-3.93,3.58-15,3.58-15l-8.3-5.51s-.35,4.48-1.08,9.49C102.33,144,104.48,146.68,107.05,148Z"/>
        <path class="cls-9"
              d="M117.49,133.35c.8,6-1.19,10.76-5.35,11.36s-8.91-3.15-9.71-9.18,1.92-11.42,6.08-12S116.69,127.31,117.49,133.35Z"/>
        <path class="cls-9"
              d="M163.08,156.45c2.45,1.58,4.31,5.56,3.24,8.78s-2.55-.91-4.18-3.28S161.26,155.26,163.08,156.45Z"/>
        <path class="cls-30"
              d="M119.59,199.63c-1.68,21.07,4,68.63,4,79.4s4.15,40.19,4.15,40.19a76.65,76.65,0,0,1-9.34,2.25c-2.63.23-10.24-26.68-11.37-40.94s-8.25-39.59-8.25-39.59l2.44-43.44Z"/>
        <path class="cls-16"
              d="M119.59,199.63l-18.34-2.13-2.44,43.44s7.12,25.32,8.25,39.59c0,.18,0,.37,0,.56.13-22,6.25-31.53,12.72-54.82C119.27,216.05,119.05,206.45,119.59,199.63Z"/>
        <path class="cls-30"
              d="M118.87,206.69C110.25,237.22,102.34,266,97.07,285s-3.69,38.58-3.69,38.58l-8.86.74S74.55,293,81.26,276s3.52-27.19,4.79-43c1.44-17.89,3.85-31,3.85-31Z"/>
        <path class="cls-31"
              d="M119.26,171.55a122.34,122.34,0,0,0-8.36-15.79,31.33,31.33,0,0,0-3.84-.32c-2.47-.05-6.77-3.36-9.34-5.54a2.11,2.11,0,0,1-.5.46C93.7,152.61,87,161,88,179s-2.66,24.18-1.38,31.14,30.13,4.34,32.69,1.62S124.69,184.15,119.26,171.55Z"/>
        <path class="cls-31"
              d="M96.79,146l-2.59,7.15,16.43,7,1.9-1.7s-2.54-3.86-1.9-6.2,1.39-3,0-3.56-6.3-1.44-9.38-2.67S97.32,144.57,96.79,146Z"/>
        <path class="cls-26"
              d="M122.34,192.88c-.32-5.37-1.36-17.34-3.08-21.33q-1-2.2-1.92-4.19l-2.08-.94s-11.5-9.6-19-7.81-7.83,31-3.52,34.21,6.07-5.35,22-2.7C117.36,190.56,120.22,193.09,122.34,192.88Z"/>
        <path class="cls-30"
              d="M149.22,201.5a.77.77,0,0,0,1.11-.18l33.88-48.08a.85.85,0,0,0-.17-1.16.77.77,0,0,0-1.11.18l-33.88,48.08A.86.86,0,0,0,149.22,201.5Z"/>
        <path class="cls-16" d="M186.16,154h-5.65a1.79,1.79,0,0,1,0-3.58h5.65a1.79,1.79,0,0,1,0,3.58Z"/>
        <path class="cls-27"
              d="M184.49,136.3l5.44,1a1.69,1.69,0,0,1,1.19,2.33l-5.28,12.22a1.56,1.56,0,0,1-2,.89L179.08,151a1.68,1.68,0,0,1-.94-2.22l4.62-11.43A1.59,1.59,0,0,1,184.49,136.3Z"/>
        <path class="cls-30"
              d="M184.16,137.28l4.5.85a1.49,1.49,0,0,1,1,2.05L185.28,151a1.28,1.28,0,0,1-1.64.78l-4-1.55a1.51,1.51,0,0,1-.78-2l3.83-10.07A1.29,1.29,0,0,1,184.16,137.28Z"/>
        <path class="cls-32"
              d="M180.69,136.18a.2.2,0,0,1-.11,0l-6-3.28a.28.28,0,0,1-.11-.37.25.25,0,0,1,.35-.11l6,3.29a.26.26,0,0,1,.11.36A.24.24,0,0,1,180.69,136.18Z"/>
        <path class="cls-32"
              d="M181.81,134.86a.26.26,0,0,1-.21-.11l-4.24-6.05a.27.27,0,0,1,0-.37.25.25,0,0,1,.36.06l4.25,6a.28.28,0,0,1-.06.38A.27.27,0,0,1,181.81,134.86Z"/>
        <path class="cls-32"
              d="M172.9,142.86a.27.27,0,0,1-.08-.53l7.36-2.46a.27.27,0,0,1,.33.18.28.28,0,0,1-.17.34L173,142.84Z"/>
        <path class="cls-32"
              d="M180.64,138.48h0c-5.61-.83-8.68-1.34-9.12-1.5a.29.29,0,0,1-.16-.35.26.26,0,0,1,.33-.16c.23.08,1.71.39,9,1.48a.27.27,0,0,1,.22.31A.27.27,0,0,1,180.64,138.48Z"/>
        <path class="cls-33"
              d="M178.9,148.23a1.51,1.51,0,0,0,.78,2l.48.19,6.82-3.62,2.66-6.57a1.63,1.63,0,0,0,.08-.92l-10.44,8Z"/>
        <path class="cls-33"
              d="M180.35,150.44l3.29,1.29a1.28,1.28,0,0,0,1.64-.78l1.14-2.83C184.46,148.83,181.87,149.84,180.35,150.44Z"/>
        <path class="cls-9"
              d="M151,179.2l9.11-.44s4.65-6,6.53-4.81,5.14-1,5.12,1.23-2.66,7.9-5.82,8.48-10.38,0-10.38,0Z"/>
        <path class="cls-31"
              d="M98.9,156.91c5.34.39,23.48,17.05,31.73,23.27a164.51,164.51,0,0,1,24.92-1.78s2.82,5.55,2.64,6S139.8,191.44,129,191s-15.73-4-23.94-5c-5.35-.67-7.95,1.65-10.9-1.57s-4-19.73-2.39-23.06A7.55,7.55,0,0,1,98.9,156.91Z"/>
        <path class="cls-27"
              d="M100.66,140.6c2.82-1.46,1.42-4.29,1.66-6.16s-.53-3.38.14-3.26.52,7.21,1.37,7.16.54-5.34,1.43-5.49,1.25-1.46.55-3.78-.14-4.38,1.76-2.54,6.12,6.1,8.58,5.51a2.87,2.87,0,0,0,2.12-3.53c-.21-.29-6.55-7.72-6.55-7.72l-12.53,7.5-.35,6.84Z"/>
        <path class="cls-9"
              d="M102.91,132.57c.17,1.78.22,4.48.37,4.86-1.11.48-2.54-.48-3.19-2.13s-.59-3.83.54-4.27C101.34,130.76,102.71,130.5,102.91,132.57Z"/>
        <path class="cls-27"
              d="M152.5,128.58c-1.78,6-11.68,6.09-12.16,7.76s-.6,8.15-2.05,12.28c-2.31,6.59-3.35,8.77-6.58,9.77s-4.58-4.58-4.58-4.58,5.78-8,6.1-8.13,3.36-20.53,3.36-20.53,7.74-1.48,8.14-1.7,6,2.37,6,2.37Z"/>
    </g>
    <g class="cls-34">
        <ellipse class="cls-7" cx="353.79" cy="137.62" rx="60.23" ry="62.93"/>
        <path class="cls-35"
              d="M343.83,140.23a4.27,4.27,0,0,1-4.74.72c-2.64-1.32-12.26-8.43-12-10.16s4.79-2.15,4.79-2.15S345.84,140.15,343.83,140.23Z"/>
        <path class="cls-36"
              d="M341.3,140c1.8-.3-4.14-5.24-6.08-7.28a30.3,30.3,0,0,0-3.19-3s-3.32.42-3.32,1.1,9.52,8.61,9.52,8.61A11.05,11.05,0,0,0,341.3,140Z"/>
        <path class="cls-9"
              d="M353,148.84s-3.47-6.12-5.13-7.75-7.26-4.8-8.11-4.82c-1.45,0,5,4.51,5,4.51s-.88,5.92-.1,8.06,9,5,9,5Z"/>
        <path class="cls-37"
              d="M359.39,155.26s-5.66-8.87-6.93-8.26-4.68,8.26-4.68,8.26,10,10.82,10,8.78S359.39,155.26,359.39,155.26Z"/>
        <path class="cls-9"
              d="M375.05,107.73s5.86,21.63,9.77,30.61,5.85,25.7,5.07,55.08,4.69,28.57-3.51,32.24-37.49-2.45-41.4-11.84,2.62-47.59,12.3-61.61c9.57-13.84,13.87-18.77,13.87-22S367.37,113,367.37,113Z"/>
        <path class="cls-38"
              d="M345,213.82c-3.9-9.38,2.62-47.59,12.3-61.61,4.46-6.45,7.77-11,10-14.27A67.36,67.36,0,0,1,382,130.79c1,2.89,1.95,5.54,2.83,7.55,3.9,9,5.85,25.7,5.07,55.08s4.69,28.57-3.51,32.24S348.89,223.21,345,213.82Z"/>
        <path class="cls-38"
              d="M385.47,126.91c-.1-1.68-21,6.94-21.09,8.57a39.28,39.28,0,0,1-3.09,11c-1.73,3.28,29,21.6,27.91,12.68S385.73,131.4,385.47,126.91Z"/>
        <path class="cls-13"
              d="M371.13,130.54c0-.12,0-.25,0-.37,0-3.26-3.78-17.13-3.78-17.13l7.68-5.31s1.36,5,3.21,11.23C375.87,126.41,373.64,129,371.13,130.54Z"/>
        <path class="cls-9"
              d="M353.5,118.32c1.63,7.69,6.71,13.16,12.59,11.66,4.31-1.11,10.93-7.4,8.81-16.59-1.77-7.66-7.73-12.82-13.64-11.46S351.88,110.63,353.5,118.32Z"/>
        <path class="cls-9"
              d="M346.83,168.39c-5.33-9.63-5.92-18.61-9.7-21.42-5.32-3.95-9.68-12.78-7.76-13.13s9.72,7.11,9.72,7.11-2-2.9-1.55-3.14,4.41,2.74,5,6.25,8.15,19.68,14.47,24.86S352.17,178,346.83,168.39Z"/>
        <path class="cls-37"
              d="M381.38,144.14c9.45,2.46,5.12,32.27-2.84,50s-22.94,2.4-28.54-1.93a19,19,0,0,1-4.44-4.75c1.8-10.55,4.88-21.87,8.68-29.83C363.16,168.52,367.4,140.51,381.38,144.14Z"/>
        <path class="cls-38"
              d="M378.54,142c11.88,1.25,5.37,32.24-3.31,44.75s-21.06.41-25-6.8-11.82-19.47-11.82-27.44c0-1.5,2.93-1.8,6.45-1.53,3.31.25,18.26,21.76,18.26,21.76S368.15,140.91,378.54,142Z"/>
        <path class="cls-23"
              d="M349.87,102.28c-7.26,3.2-2.91,13.31.92,13.69s8.26-7,10.54-7.25-.46,4.13,1.56,5.13a7.88,7.88,0,0,1,4.51,5.29c.59,2.62,2.2,8.34-.44,8.59s-5.51-2.75-7.31-2.88a9.5,9.5,0,0,0-3.35.42s4.56,6.59,7.9,7,7-4.74,9.61-9.06,1.49-7.2,1.49-7.2,2.67,3.13,4.34,2.88-2.51-2.75-2.63-10.13S373.78,97.46,370,97.46s-3.36-2-9.21-1.88C355.47,95.73,351.58,101.53,349.87,102.28Z"/>
        <path class="cls-9"
              d="M365.85,117.36c-.17,1.91.77,3.56,2.09,3.69s2.54-1.32,2.71-3.22-.77-3.56-2.1-3.68S366,115.46,365.85,117.36Z"/>
    </g>
    <g class="cls-39">
        <ellipse class="cls-7" cx="426.48" cy="282.08" rx="43.11" ry="45.04"/>
        <path class="cls-8"
              d="M419.69,260.62c-3.28,6.86-.56,14.77,5.9,17.56s13.61,1.21,16.9-5.65.84-15.09-5.45-18.38S423,253.76,419.69,260.62Z"/>
        <path class="cls-8"
              d="M437.4,279.09a1.84,1.84,0,0,1-.54-.06.45.45,0,0,1-.29-.54.42.42,0,0,1,.52-.3s1.52.37,3.78-1.73c2.56-2.37,4.35-7.75,1.7-15.75a.44.44,0,0,1,.26-.56.42.42,0,0,1,.53.27c3.5,10.58-.59,15.45-1.93,16.7A6.11,6.11,0,0,1,437.4,279.09Z"/>
        <path class="cls-40"
              d="M427.36,287.33c-3.74.87-8.46,11.73-10.77,18.68s-6.29,15.72-8.87,18.42-19.6,9-19.6,9,42,.08,41.16,0S427.36,287.33,427.36,287.33Z"/>
        <path class="cls-41"
              d="M405.05,329.92c2.3-.35,10.6.77,7.07-.77s-3-3.52-3-3.52,5,4.37,5.91.55c.78-3.3,1.08-15,4-26.64,2.44-5.79,5.64-11.58,8.33-12.21,0,0,.09,4.11.25,9.88-1,12.76-2.79,31.5-3.23,36.23-5.57,0-14.89,0-22.68,0l-5.19-.26S402.75,330.26,405.05,329.92Z"/>
        <path class="cls-40"
              d="M441.1,284.92s11.9,6.95,14.67,8.42S448,338.16,445.66,340s-23,.32-25.33-2,1.8-9.52-.23-23.9,6.2-26.8,7.26-26.77,8-2.41,8-2.41Z"/>
        <path class="cls-41"
              d="M445.66,340c-2.35,1.86-17.11,1.9-23.4-.15-.71-.23-3.93-1.57-4-2.83.75-.15,3.77.23,5-.06,4.25-1,6.59-6.53,6.59-6.53s2.34-.88,7.58-3.19,3.08-9.34,3.2-12.43,5.18-13.19,14.66-20.85l.87.4C456.83,301.43,447.83,338.3,445.66,340Z"/>
        <path class="cls-9"
              d="M433.8,329.23c-7.47,1.46-9.31,3.25-13.38,3.94-4.62.78-4.07,1.84-.64,1.84s12.05.14,15-.54S433.8,329.23,433.8,329.23Z"/>
        <path class="cls-40"
              d="M456.7,294.16C462.43,313.3,470.55,335,469.26,335s-34.19,1.39-35.49.24-.92-5.6-.74-6.18,18.71-4,18.71-4-2.44-5-3.37-14.67S455.62,290.53,456.7,294.16Z"/>
        <path class="cls-9"
              d="M436.75,268.29l4.61,17.62s-7.8,12.72-9.94,11.59,1.2-10.34,1.2-11.59-3.34-14.16-3.34-14.16Z"/>
        <path class="cls-13"
              d="M432.46,286.81a4.87,4.87,0,0,0,.16-.9c0-1.25-3.34-14.16-3.34-14.16l7.47-3.46,1.52,5.83A30.94,30.94,0,0,1,432.46,286.81Z"/>
        <path class="cls-9"
              d="M419.48,268c-.88,5.11-.3,11.9,4,13.62s9.57-1.57,11.68-7.37.3-11.9-4-13.62S420.53,261.9,419.48,268Z"/>
        <ellipse class="cls-9" cx="436.46" cy="271.72" rx="3.42" ry="2.43"
                 transform="translate(47.96 608.48) rotate(-72.82)"/>
        <path class="cls-8"
              d="M419.43,261.58c1.48,12,15.42,10.45,15.42,10.45s2.87-3.95,4.17-1.88-1.8-12.16-9.8-12.61C426.59,257.4,419.43,261.58,419.43,261.58Z"/>
        <ellipse class="cls-8" cx="441.15" cy="256.51" rx="7.55" ry="7.4"/>
    </g>
    <g class="cls-42">
        <ellipse class="cls-7" cx="65.72" cy="348.53" rx="54.06" ry="56.49"/>
        <path class="cls-35"
              d="M92,344a3.44,3.44,0,0,0,3.81.59c2.12-1.07,9.85-6.78,9.62-8.17s-3.85-1.73-3.85-1.73S90.38,343.92,92,344Z"/>
        <path class="cls-36"
              d="M94,343.77c-1.45-.24,3.32-4.21,4.88-5.85a24.34,24.34,0,0,1,2.56-2.4s2.67.34,2.67.88-7.65,6.92-7.65,6.92A9,9,0,0,1,94,343.77Z"/>
        <path class="cls-9"
              d="M84.67,350.9s2.79-4.92,4.12-6.23,5.84-3.85,6.52-3.87c1.17,0-4,3.63-4,3.63s.71,4.75.08,6.47-7.22,4-7.22,4Z"/>
        <path class="cls-43"
              d="M79.5,356.06s4.55-7.13,5.56-6.64,3.77,6.64,3.77,6.64-8,8.69-8,7.05A54.89,54.89,0,0,0,79.5,356.06Z"/>
        <path class="cls-9"
              d="M66.91,317.87s-4.7,17.38-7.84,24.59S54.36,363.12,55,386.73s-3.77,22.95,2.82,25.9,30.13-2,33.26-9.51-2.1-38.24-9.88-49.51-11.14-15.08-11.14-17.7,3-13.78,3-13.78Z"/>
        <path class="cls-44"
              d="M91.07,403.12c3.14-7.54-2.1-38.24-9.88-49.51-3.58-5.18-6.24-8.81-8.06-11.47a54.81,54.81,0,0,0-11.79-5.74c-.79,2.32-1.57,4.45-2.27,6.06-3.14,7.22-4.71,20.66-4.08,44.27s-3.77,22.95,2.82,25.9S87.94,410.66,91.07,403.12Z"/>
        <path class="cls-45"
              d="M58.55,333.28c.07-1.35,16.84,5.58,16.94,6.89A31.44,31.44,0,0,0,78,349c1.39,2.63-23.33,17.36-22.42,10.19S58.34,336.89,58.55,333.28Z"/>
        <path class="cls-13"
              d="M70.07,336.2c0-.1,0-.2,0-.29,0-2.63,3-13.78,3-13.78l-6.18-4.26s-1.09,4-2.57,9C66.25,332.88,68.05,334.92,70.07,336.2Z"/>
        <path class="cls-9"
              d="M82.45,326.35c-1.14,5.4-4.71,9.24-8.84,8.19-3-.78-7.67-5.2-6.18-11.65,1.24-5.38,5.43-9,9.57-8.05S83.59,321,82.45,326.35Z"/>
        <path class="cls-9"
              d="M89.59,366.61c4.28-7.73,4.76-14.95,7.8-17.21,4.27-3.17,7.77-10.27,6.23-10.55s-7.81,5.72-7.81,5.72,1.63-2.33,1.24-2.53-3.54,2.2-4,5-6.55,15.82-11.63,20S85.3,374.34,89.59,366.61Z"/>
        <path class="cls-46"
              d="M61.83,347.13c-7.59,2-4.12,25.93,2.28,40.14S82.54,389.2,87,385.72a15.13,15.13,0,0,0,3.57-3.82c-1.44-8.47-3.92-17.57-7-24C76.47,366.72,73.06,344.21,61.83,347.13Z"/>
        <path class="cls-47"
              d="M64.11,345.41c-9.54,1-4.32,25.9,2.66,35.95s16.92.33,20.06-5.46,9.49-15.64,9.49-22c0-1.2-2.35-1.45-5.18-1.23-2.65.21-14.67,17.49-14.67,17.49S72.46,344.53,64.11,345.41Z"/>
        <path class="cls-23"
              d="M78.65,309.58c10,.72,8.69,16.85,8.69,16.85s-8.22.25-10.67-.49a17.52,17.52,0,0,1-4.94-2.75s-1.51,6.11-5.63,6.45L62,330s-2.72-11.61-.57-16.84C65.87,302.3,74.76,307.73,78.65,309.58Z"/>
        <path class="cls-9"
              d="M67.78,325.21c.59,1.59,2,2.5,3.12,2s1.57-2.12,1-3.7-2-2.5-3.12-2S67.19,323.62,67.78,325.21Z"/>
        <path class="cls-23"
              d="M62.86,323.35a.3.3,0,0,0-.58-.12c-.89,2.19-2.78,6-5.13,6.27-3.32.38-27,2.39-19.11,21.48,5,12,8.58,16.86,3.69,21.33-4.51,4.1-10.45.24-11.93-.8a.3.3,0,0,0-.46.21c-.41,2.66-1.8,15.38,10,15.2,13.17-.21,19.46-12.65,14.1-24.06s5.26-14.34,5.7-20.75a56.42,56.42,0,0,0,0-10,.34.34,0,0,1,.08-.26l3.53-3.78a.31.31,0,0,0,.09-.22Z"/>
        <path class="cls-23"
              d="M36.79,373.62a34.76,34.76,0,0,1-7.09-1.2.45.45,0,0,1-.31-.5.43.43,0,0,1,.45-.36c.06,0,5.73.51,7.94-1.31,2.8-2.3,1.24-6.07-1.35-12.31-1.1-2.63-2.34-5.62-3.47-9.08-2.16-6.54.16-11,2.48-13.67,4.88-5.5,14.39-7.87,22.61-5.63a.45.45,0,0,1,.3.54.42.42,0,0,1-.51.31l-.58-.15c-10.46.18-17.2,2.72-20,7.54-2.5,4.21-2,10.22,1.52,17.84,3.42,7.45,4.34,12.68,2.73,15.57a4.83,4.83,0,0,1-4.13,2.39Zm-3.08-1.2a17.49,17.49,0,0,0,3.56.31,4,4,0,0,0,3.47-2C41.74,369,42.08,365,38,356c-3.64-7.91-4.14-14.2-1.48-18.68s8.06-6.94,16.33-7.72c-6.51-.31-13.06,2-16.78,6.17-3.11,3.51-3.9,7.93-2.3,12.79,1.12,3.42,2.36,6.39,3.45,9,2.65,6.4,4.4,10.63,1.1,13.35A8.84,8.84,0,0,1,33.71,372.42Z"/>
    </g>
    <g class="cls-48">
        <ellipse class="cls-49" cx="254.2" cy="151.92" rx="26.25" ry="27.43"/>
        <path class="cls-50"
              d="M246.08,149.39c-.07-.21-1.7-10-1.89-13.8s5.85-4.35,5.85-4.35,4.94-2.78,8.52-1.35a14.59,14.59,0,0,1,7.64,6.81c1.62,3-1.44,12.31-1.44,12.31Z"/>
        <path class="cls-2"
              d="M234.86,180.83c0-.16.42-4,.44-4.17.82-8.11,10.39-10.39,19.93-10.39,11.22,0,18.83,2.14,20,10.57,0,.25.68,4.11.65,4.37C255.14,181.51,234.86,180.83,234.86,180.83Z"/>
        <path class="cls-9"
              d="M257.16,172.56c-1.11,1.72-1.93,1.79-3.13,0-1-1.42-4.16-4.65-4.16-6.29L251.18,150a2.92,2.92,0,0,1,2.85-3h3.13a2.92,2.92,0,0,1,2.85,3l.61,16.32C260.62,167.91,258.16,171,257.16,172.56Z"/>
        <path class="cls-13"
              d="M257.16,147H254a2.92,2.92,0,0,0-2.85,3L250,164.43c3.52,1.17,8.27-1.21,10.37-3.83L260,150A2.92,2.92,0,0,0,257.16,147Z"/>
        <path class="cls-51"
              d="M244.84,167.46l5,9.7s2.68-2.31,2.94-1.86-.47,6.17-.47,6.17,6,.09,6.24-.19-1.21-6.21-.61-6.21,2.44,1.73,2.44,1.73l5.6-9.34-1.23-.31-9.19,5.16-9.82-5.05Z"/>
        <polygon class="cls-26"
                 points="250.59 171.93 254.32 174.54 253.16 181.48 258.19 181.19 256.93 174.88 260.02 171.93 258.57 170.5 252.04 170.5 250.59 171.93"/>
        <path class="cls-2"
              d="M250.13,162.71l-4.62,4.58s4.7,8.74,5,8.74,4-4.82,4-4.82l2.39,0,3.77,4.13,4.38-8.1-4.47-4.95s-3.81,7.7-4.51,7.89-.7.27-1.26-.19S250.13,162.71,250.13,162.71Z"/>
        <ellipse class="cls-9" cx="255.59" cy="147.14" rx="9.47" ry="13.48"/>
        <path class="cls-9"
              d="M247.09,146.93c.89,1.95.6,4-.64,4.65s-3-.46-3.86-2.41-.59-4,.65-4.65S246.21,145,247.09,146.93Z"/>
        <path class="cls-9"
              d="M263.67,146.93c-.89,1.95-.6,4,.64,4.65s3-.46,3.86-2.41.59-4-.65-4.65S264.55,145,263.67,146.93Z"/>
        <path class="cls-2" d="M259.79,152.67s-1.88,3.19-4.2,3.19-4.2-3.19-4.2-3.19Z"/>
        <path class="cls-50"
              d="M250,138c3.9-2.85,5.66-2.38,8.58,2.31s6.44,4.77,6.44,4.77l.46-4.86s-4.36-8.81-10.21-7.65-9.18,6.66-9.18,6.66-.29,10.31.53,10.66.91-3.33,1.49-4.07-.58-4.28.2-5.92S250,138,250,138Z"/>
        <path class="cls-50"
              d="M262.59,143.27c1.36,1.56.85,7.75,1.56,7.68s1-5.91.78-6.52S262.59,143.27,262.59,143.27Z"/>
    </g>
    <g class="cls-52">
        <ellipse class="cls-49" cx="47.42" cy="239.73" rx="26.25" ry="27.43"/>
        <path class="cls-30"
              d="M26.64,265.24c3.18-7.14,8.55-9.43,17.38-9.43,10.5,0,17.46,6.78,19,12.57A201.3,201.3,0,0,1,26.64,265.24Z"/>
        <path class="cls-53"
              d="M40.35,221.1c-4.45,1.3-4.26,3.92-5.74,6.34s-4.7,4-5.09,5.66,1,5-.64,6.86-2.19,2.83-1.55,4.72,2.06,4.85,2.19,5.25,1.93,3.23,4.13,3.64,6.31,1.07,8.37,2,8.7-1.21,12.38-1.08,6.18-2.69,5.92-4.58S63,244.27,63,241c0-3.47-3.87-6.06-4.9-8.35s.13-6.33-3.73-8.72c-2.45-1.51-4.13-1.38-6.06-2.05S43.18,220.27,40.35,221.1Z"/>
        <path class="cls-9"
              d="M45.76,261.51c-1,1.55-1.74,1.62-2.83,0-.87-1.28-2.58-4.2-2.58-5.68V241a2.64,2.64,0,0,1,2.58-2.69h2.83A2.64,2.64,0,0,1,48.34,241v14.79C48.34,257.31,46.66,260.12,45.76,261.51Z"/>
        <path class="cls-13"
              d="M45.76,238.35H42.93A2.64,2.64,0,0,0,40.35,241v13.19c3.18,1.06,6.09-1,8-3.42V241A2.64,2.64,0,0,0,45.76,238.35Z"/>
        <ellipse class="cls-9" cx="44.34" cy="238.5" rx="8.57" ry="12.2"/>
        <path class="cls-53"
              d="M48.34,228.79c-5.41,9.56-13.41,8.62-13.41,8.62s.2-12.66,6.55-13.34,10.08,2,11.37,6.38a11.28,11.28,0,0,1,0,7.29,11.54,11.54,0,0,1-3.09-4.37A33.19,33.19,0,0,1,48.34,228.79Z"/>
        <path class="cls-9"
              d="M36.65,238.31c.8,1.76.54,3.65-.59,4.2s-2.68-.41-3.49-2.18-.53-3.64.59-4.2S35.85,236.55,36.65,238.31Z"/>
        <path class="cls-9"
              d="M51.65,238.31c-.8,1.76-.54,3.65.59,4.2s2.68-.41,3.48-2.18.54-3.64-.58-4.2S52.45,236.55,51.65,238.31Z"/>
        <path class="cls-2" d="M47.57,245.12s-1.45,1.95-3.23,1.95-3.22-1.95-3.22-1.95Z"/>
    </g>
    <g class="cls-54">
        <ellipse class="cls-49" cx="442.05" cy="182.13" rx="27.97" ry="29.23"/>
        <path class="cls-55"
              d="M427.49,177.8c0,8,4.63,21,15.54,20.58s13.33-12.77,13.76-16.26S427.49,177.8,427.49,177.8Z"/>
        <path class="cls-26"
              d="M422.94,209.07c3.6-8.1,9.71-10.7,19.72-10.7,11.93,0,18.13,4.52,19.88,11.09-7,.1-13.7,7.39-19.51,7.34A32.67,32.67,0,0,1,422.94,209.07Z"/>
        <path class="cls-9"
              d="M444.64,204.84c-1.14,1.76-2,1.84-3.22,0-1-1.46-2.92-4.77-2.92-6.45V181.6a3,3,0,0,1,2.92-3h3.22a3,3,0,0,1,2.93,3v16.79C447.57,200.07,445.67,203.26,444.64,204.84Z"/>
        <path class="cls-13"
              d="M444.64,178.55h-3.22a3,3,0,0,0-2.92,3v15c3.61,1.2,6.91-1.19,9.07-3.88V181.6A3,3,0,0,0,444.64,178.55Z"/>
        <path class="cls-9"
              d="M452.76,178.72c0,7.65-4.35,13.85-9.73,13.85s-9.73-6.2-9.73-13.85,4.36-13.86,9.73-13.86S452.76,171.07,452.76,178.72Z"/>
        <path class="cls-55"
              d="M448.38,168.19c-1.16,4.26-3.69,4.21-7.22,5.61s-5.22,2.8-6.38,5.53c-1.47,3.47.67,13.61.67,13.61s-8.95-7-7.91-18,7.24-15.26,13.08-15.26,8.07,3.72,8.07,3.72,3.11,0,6.05,3.66c4,4.89,2.74,16.78,0,21s-4.56,5.6-4.5,5.41,2.55-10,1.21-16A39.42,39.42,0,0,0,448.38,168.19Z"/>
        <path class="cls-2" d="M446.69,186.23s-1.64,2.22-3.66,2.22-3.65-2.22-3.65-2.22Z"/>
    </g>
    <path class="cls-56"
          d="M137.25,230.86a63.08,63.08,0,0,1-25.65-5.41A65.7,65.7,0,0,1,90.66,210.7a69,69,0,0,1-14.12-21.89,71.89,71.89,0,0,1,0-53.59,69,69,0,0,1,14.12-21.88A65.7,65.7,0,0,1,111.6,98.59a63.49,63.49,0,0,1,51.29,0,65.59,65.59,0,0,1,20.94,14.75A69,69,0,0,1,198,135.22a71.89,71.89,0,0,1,0,53.59,69,69,0,0,1-14.12,21.89,65.59,65.59,0,0,1-20.94,14.75A63,63,0,0,1,137.25,230.86Zm0-136.25c-35.57,0-64.51,30.24-64.51,67.41s28.94,67.4,64.51,67.4,64.51-30.23,64.51-67.4S172.82,94.61,137.25,94.61Z"/>
    <path class="cls-56"
          d="M353.79,201.27a58.29,58.29,0,0,1-23.71-5,60.66,60.66,0,0,1-19.36-13.64,63.66,63.66,0,0,1-13.06-20.23,66.6,66.6,0,0,1,0-49.55,63.54,63.54,0,0,1,13.06-20.23A60.66,60.66,0,0,1,330.08,79a58.72,58.72,0,0,1,47.42,0,60.77,60.77,0,0,1,19.36,13.64,63.69,63.69,0,0,1,13.05,20.23,66.47,66.47,0,0,1,0,49.55,63.8,63.8,0,0,1-13.05,20.23,60.77,60.77,0,0,1-19.36,13.64A58.29,58.29,0,0,1,353.79,201.27Zm0-125.86c-32.83,0-59.54,27.91-59.54,62.21s26.71,62.22,59.54,62.22,59.54-27.91,59.54-62.22S386.62,75.41,353.79,75.41Z"/>
    <path class="cls-56"
          d="M426.48,327.84a42.56,42.56,0,0,1-31-13.41,47.21,47.21,0,0,1,0-64.71,42.48,42.48,0,0,1,61.93,0,47.24,47.24,0,0,1,0,64.71A42.56,42.56,0,0,1,426.48,327.84Zm0-90.08c-23.39,0-42.42,19.88-42.42,44.32s19,44.32,42.42,44.32,42.42-19.88,42.42-44.32S449.87,237.76,426.48,237.76Z"/>
    <path class="cls-56"
          d="M65.72,405.74A53.22,53.22,0,0,1,27,389a59.05,59.05,0,0,1,0-80.9,53.12,53.12,0,0,1,77.43,0,59.05,59.05,0,0,1,0,80.9A53.24,53.24,0,0,1,65.72,405.74Zm0-113c-29.43,0-53.37,25-53.37,55.77S36.29,404.3,65.72,404.3s53.38-25,53.38-55.77S95.15,292.76,65.72,292.76Z"/>
    <path class="cls-56"
          d="M254.2,180.06c-14.85,0-26.94-12.62-26.94-28.14s12.09-28.15,26.94-28.15,26.94,12.63,26.94,28.15S269.05,180.06,254.2,180.06Zm0-54.85c-14.1,0-25.56,12-25.56,26.71s11.46,26.71,25.56,26.71,25.56-12,25.56-26.71S268.3,125.21,254.2,125.21Z"/>
    <path class="cls-56"
          d="M47.42,267.88c-14.85,0-26.93-12.63-26.93-28.15s12.08-28.14,26.93-28.14,26.94,12.62,26.94,28.14S62.27,267.88,47.42,267.88Zm0-54.86c-14.09,0-25.56,12-25.56,26.71s11.47,26.71,25.56,26.71S73,254.46,73,239.73,61.52,213,47.42,213Z"/>
    <path class="cls-56"
          d="M442.05,212.07c-15.81,0-28.66-13.43-28.66-29.94s12.85-29.94,28.66-29.94,28.65,13.43,28.65,29.94S457.85,212.07,442.05,212.07Zm0-58.45c-15.05,0-27.29,12.79-27.29,28.51s12.24,28.51,27.29,28.51,27.28-12.79,27.28-28.51S457.09,153.62,442.05,153.62Z"/>
    <ellipse class="cls-31" cx="322.72" cy="106.82" rx="12.79" ry="13.36"/>
    <path class="cls-2"
          d="M322.59,102.12S318.13,98,315,102c-4.34,5.43,7.63,12.34,7.63,12.34s12.18-7.13,7.92-12.62C327.29,97.53,322.59,102.12,322.59,102.12Z"/>
    <ellipse class="cls-31" cx="387.24" cy="334.18" rx="12.79" ry="13.36"/>
    <path class="cls-2"
          d="M387.11,329.48s-4.46-4.11-7.62-.16c-4.34,5.43,7.62,12.33,7.62,12.33S399.3,334.53,395,329C391.81,324.89,387.11,329.48,387.11,329.48Z"/>
    <ellipse class="cls-31" cx="106.99" cy="314.31" rx="12.79" ry="13.36"/>
    <path class="cls-2"
          d="M106.87,309.62s-4.47-4.12-7.63-.17c-4.34,5.43,7.63,12.34,7.63,12.34s12.18-7.13,7.92-12.62C111.57,305,106.87,309.62,106.87,309.62Z"/>
    <path class="cls-31" d="M101.82,277.63a7.62,7.62,0,1,1-7.62-7.95A7.8,7.8,0,0,1,101.82,277.63Z"/>
    <path class="cls-2"
          d="M94.13,274.83s-2.66-2.45-4.54-.09c-2.58,3.23,4.54,7.34,4.54,7.34s7.25-4.24,4.71-7.51C96.93,272.1,94.13,274.83,94.13,274.83Z"/>
    <path class="cls-31" d="M444.39,125.21a9,9,0,1,1-9-9.44A9.25,9.25,0,0,1,444.39,125.21Z"/>
    <path class="cls-2"
          d="M435.26,121.89s-3.15-2.91-5.38-.12c-3.07,3.84,5.38,8.72,5.38,8.72s8.61-5,5.6-8.92C438.58,118.64,435.26,121.89,435.26,121.89Z"/>
    <path class="cls-31" d="M298.79,198.52a9,9,0,1,1-9-9.44A9.25,9.25,0,0,1,298.79,198.52Z"/>
    <path class="cls-2"
          d="M289.66,195.2s-3.15-2.91-5.39-.12c-3.06,3.84,5.39,8.72,5.39,8.72s8.61-5,5.6-8.92C293,192,289.66,195.2,289.66,195.2Z"/>
    <ellipse class="cls-30" cx="233.69" cy="160.28" rx="12.79" ry="13.36"/>
    <path class="cls-2"
          d="M233.4,151.48c1.66-.24,3.09,4.06,3,5.44s3.08-.18,4.63,1,1.08,7.41,0,7.83-5.47.48-6.88-.3a4.07,4.07,0,0,0-2.37-.63l-.72-6.5a5.6,5.6,0,0,0,1.85-1.18C233.86,156.26,233.4,151.48,233.4,151.48ZM226,166.72c.4.35,4.92,1.49,5.15-.9s-.91-7.47-.91-7.47-3.15-.17-4.24.42C225.6,159,225.62,166.36,226,166.72Z"/>
    <ellipse class="cls-30" cx="119.78" cy="363.55" rx="12.79" ry="13.36"/>
    <path class="cls-2"
          d="M119.5,354.75c1.66-.24,3.09,4.06,3,5.43s3.09-.18,4.63,1,1.09,7.41,0,7.83-5.47.48-6.88-.3a4,4,0,0,0-2.36-.63l-.73-6.5a5.49,5.49,0,0,0,1.85-1.18C120,359.53,119.5,354.75,119.5,354.75ZM112.12,370c.4.36,4.92,1.5,5.15-.89s-.92-7.47-.92-7.47-3.14-.17-4.23.41C111.7,362.26,111.72,369.63,112.12,370Z"/>
    <ellipse class="cls-30" cx="384.06" cy="280.29" rx="11.72" ry="12.25"/>
    <path class="cls-2"
          d="M383.8,272.22c1.52-.21,2.83,3.73,2.73,5s2.83-.17,4.24.93,1,6.79,0,7.18-5,.43-6.3-.28a3.8,3.8,0,0,0-2.17-.58l-.67-6a5,5,0,0,0,1.7-1.07C384.22,276.61,383.8,272.22,383.8,272.22Zm-6.76,14c.37.33,4.51,1.37,4.72-.82s-.84-6.85-.84-6.85-2.88-.15-3.88.38C376.65,279.11,376.67,285.86,377,286.19Z"/>
    <ellipse class="cls-30" cx="185.31" cy="212.3" rx="9.93" ry="10.37"/>
    <path class="cls-2"
          d="M185.08,205.47c1.29-.19,2.4,3.15,2.31,4.22s2.4-.14,3.6.79.84,5.75,0,6.08-4.25.37-5.34-.24a3.22,3.22,0,0,0-1.84-.49l-.56-5a4.33,4.33,0,0,0,1.43-.91C185.44,209.18,185.08,205.47,185.08,205.47Zm-5.72,11.83c.31.28,3.81,1.16,4-.7a26.76,26.76,0,0,0-.71-5.8,9.64,9.64,0,0,0-3.28.33C179,211.3,179.05,217,179.36,217.3Z"/>
    <ellipse class="cls-38" cx="66.89" cy="226" rx="12.79" ry="13.36"/>
    <path class="cls-2"
          d="M60.78,233.08C58.9,221.27,67.55,221,67.55,221v-3.5l6.85,7.16-6.6,6.9v-4s-3.32.15-4.58,2S60.78,233.08,60.78,233.08Z"/>
    <ellipse class="cls-38" cx="263.41" cy="361.9" rx="12.79" ry="13.36"/>
    <path class="cls-2"
          d="M257.31,369c-1.89-11.81,6.76-12.1,6.76-12.1v-3.5l6.86,7.16-6.61,6.9v-4s-3.32.15-4.57,2S257.31,369,257.31,369Z"/>
    <ellipse class="cls-56" cx="219.81" cy="114.24" rx="3.43" ry="3.59"/>
    <ellipse class="cls-56" cx="219.81" cy="130.38" rx="3.43" ry="3.59"/>
    <ellipse class="cls-56" cx="206.94" cy="122.58" rx="3.43" ry="3.59"/>
    <path class="cls-56"
          d="M219.81,131.09a.67.67,0,0,1-.34-.09l-12.87-7.8a.71.71,0,0,1-.34-.61.73.73,0,0,1,.32-.62l12.87-8.34a.67.67,0,0,1,.94.23.74.74,0,0,1-.22,1l-11.89,7.71,11.87,7.19a.73.73,0,0,1,.25,1A.66.66,0,0,1,219.81,131.09Z"/>
    <ellipse class="cls-56" cx="472.66" cy="372.2" rx="3.43" ry="3.59"/>
    <ellipse class="cls-56" cx="472.66" cy="388.34" rx="3.43" ry="3.59"/>
    <ellipse class="cls-56" cx="459.8" cy="380.55" rx="3.43" ry="3.59"/>
    <path class="cls-56"
          d="M472.66,389.06a.74.74,0,0,1-.34-.1l-12.87-7.79a.72.72,0,0,1-.34-.61.73.73,0,0,1,.32-.62l12.87-8.35a.68.68,0,0,1,.95.24.72.72,0,0,1-.23,1l-11.89,7.71,11.88,7.2a.73.73,0,0,1,.25,1A.69.69,0,0,1,472.66,389.06Z"/>
    <rect class="cls-24" x="238.58" y="78.77" width="9.56" height="8.99" rx="2.12"/>
    <rect class="cls-24" x="255.96" y="78.77" width="9.56" height="8.99" rx="2.12"/>
    <rect class="cls-24" x="273.35" y="78.77" width="9.56" height="8.99" rx="2.12"/>
</svg>