<?xml version="1.0" encoding="utf-8"?>
<!-- Generator: Adobe Illustrator 25.0.0, SVG Export Plug-In . SVG Version: 6.00 Build 0)  -->
<svg xmlns:xlink="http://www.w3.org/1999/xlink" version="1.1" id="Layer_1" xmlns="http://www.w3.org/2000/svg" x="0px"
     y="0px"
     viewBox="0 0 500 500" style="enable-background:new 0 0 500 500;" xml:space="preserve">
<style type="text/css">
	.st0{fill:#FFFFFF;}
	.st1{opacity:9.000000e-02;fill:#03093E;enable-background:new    ;}
	.st2{fill:#BCDAE5;}
	.st3{fill:none;stroke:#173040;stroke-linecap:round;stroke-linejoin:round;}
	.st4{fill:#79A3B3;}
	.st5{opacity:0.15;fill:#03203E;enable-background:new    ;}
	.st6{fill:#8FB8C7;}
	.st7{fill:#F8DA84;}
	.st8{clip-path:url(#SVGID_2_);}
	.st9{fill:#A84DA7;}
	.st10{fill:#B861B7;}
	.st11{fill:none;stroke:#D47DD3;stroke-linecap:round;stroke-linejoin:round;}
	.st12{fill:none;stroke:#B861B7;stroke-linecap:round;stroke-linejoin:round;}
	.st13{fill:#00AF66;}
	.st14{clip-path:url(#SVGID_4_);}
	.st15{fill:none;stroke:#009C5B;stroke-linecap:round;stroke-linejoin:round;}
	.st16{clip-path:url(#SVGID_6_);}
	.st17{fill:none;stroke:#00C774;stroke-linecap:round;stroke-linejoin:round;}
	.st18{clip-path:url(#SVGID_8_);}
	.st19{clip-path:url(#SVGID_10_);}
	.st20{fill:#173040;}
	.st21{fill:#543730;}
	.st22{clip-path:url(#SVGID_12_);}
	.st23{fill:none;stroke:#7A5046;stroke-linecap:round;stroke-linejoin:round;}
	.st24{clip-path:url(#SVGID_14_);}
	.st25{fill:none;stroke:#BCDAE5;stroke-linecap:round;stroke-linejoin:round;}
	.st26{clip-path:url(#SVGID_16_);}
	.st27{fill:none;stroke:#FFFFFF;stroke-linecap:round;stroke-linejoin:round;}
	.st28{clip-path:url(#SVGID_18_);}
	.st29{clip-path:url(#SVGID_20_);}
	.st30{clip-path:url(#SVGID_22_);}
	.st31{fill:#009C5B;stroke:#009C5B;stroke-linecap:round;stroke-linejoin:round;}
	.st32{clip-path:url(#SVGID_24_);}
	.st33{clip-path:url(#SVGID_26_);}
	.st34{opacity:0.15;fill:#03093E;enable-background:new    ;}
	.st35{clip-path:url(#SVGID_28_);}
	.st36{clip-path:url(#SVGID_30_);}
	.st37{fill:#F67D4E;}
	.st38{fill:#E66635;}
	.st39{fill:none;stroke:#E66635;stroke-linecap:round;stroke-linejoin:round;}
	.st40{fill:none;stroke:#F67D4E;stroke-linecap:round;stroke-linejoin:round;}
	.st41{clip-path:url(#SVGID_32_);}
	.st42{clip-path:url(#SVGID_34_);}
	.st43{clip-path:url(#SVGID_36_);}
	.st44{fill:#DE3C14;}
	.st45{clip-path:url(#SVGID_38_);}
	.st46{fill:none;stroke:#E65F3E;stroke-linecap:round;stroke-linejoin:round;}
	.st47{clip-path:url(#SVGID_40_);}
	.st48{clip-path:url(#SVGID_42_);}
	.st49{fill:#CF9669;}
	.st50{fill:none;stroke:#BA7D4C;stroke-linejoin:round;}
	.st51{fill:#E1B592;}
	.st52{fill:none;stroke:#CF9669;stroke-linecap:round;stroke-linejoin:round;}
	.st53{clip-path:url(#SVGID_44_);}
	.st54{clip-path:url(#SVGID_46_);}
	.st55{clip-path:url(#SVGID_48_);}
	.st56{clip-path:url(#SVGID_50_);}
	.st57{fill:#CCDBDE;}
	.st58{fill:none;stroke:#C1CFD6;stroke-linecap:round;stroke-linejoin:round;}
	.st59{opacity:0.3;fill:#F8DA84;enable-background:new    ;}
	.st60{font-family:'Caveat-Bold';}
	.st61{font-size:21px;}
	.st62{font-family:'Caveat-Regular';}
	.st63{font-size:12px;}
</style>
    <g>
	<g id="BACKGROUND">
		<rect y="0" class="st0" width="500" height="500"/>
        <path class="st1" d="M60.6,338.3c-23.9,57.8,41.9,154.2,206.5,141.5s205.7-89.7,183.6-157.7S324.9,290.9,259.2,292
			S92.3,261.6,60.6,338.3z"/>
        <path class="st1" d="M437.5,452.5c4.3-11.9,23.2-2,18.7,8.7S432.8,465.6,437.5,452.5z"/>
        <path class="st2" d="M84,366c4.3-11.9,23.2-2,18.7,8.7S79.2,379.1,84,366z"/>
        <path class="st1" d="M84,40.3c4.3-11.9,23.2-2,18.7,8.7S79.2,53.4,84,40.3z"/>
        <path class="st1" d="M35.8,304.8c1.7-4.7,9.2-0.8,7.4,3.5S33.9,310,35.8,304.8z"/>
        <path class="st1" d="M452.5,274.4c1.7-4.7,9.2-0.8,7.5,3.5S450.6,279.5,452.5,274.4z"/>
        <path class="st1" d="M295.2,42.9c1.7-4.7,9.2-0.8,7.4,3.5S293.3,48.1,295.2,42.9z"/>
        <path class="st1" d="M48.2,445.4c1.7-4.7,9.2-0.8,7.4,3.5S46.3,450.6,48.2,445.4z"/>
        <path class="st0" d="M43.2,428.1c4.7-0.7,3,5.8,0,5.6S39.6,428.6,43.2,428.1z"/>
        <path class="st0" d="M126.8,32.1c4.7-0.7,3,5.8,0,5.6S123.3,32.6,126.8,32.1z"/>
        <path class="st0" d="M436.5,270.7c4.7-0.7,3,5.8,0,5.6S433,271.2,436.5,270.7z"/>
        <path class="st0" d="M471.9,167.2c4.7-0.7,3,5.8,0,5.6S468.4,167.7,471.9,167.2z"/>
        <path class="st0" d="M47.6,323.2c4.7-0.7,3,5.8,0,5.6S44.1,323.8,47.6,323.2z"/>
        <path class="st0" d="M409.3,330.2c4.7-0.7,3,5.8,0,5.6S405.8,330.7,409.3,330.2z"/>
        <path class="st0" d="M109.5,467.2c4.7-0.7,3,5.8,0,5.6S106,467.7,109.5,467.2z"/>
        <path class="st2" d="M433.8,346.1c4.7-0.7,3,5.8,0,5.6S430.3,346.6,433.8,346.1z"/>
        <circle class="st3" cx="60" cy="166.9" r="2.1"/>
        <circle class="st3" cx="412.2" cy="386.7" r="2.1"/>
        <path class="st3" d="M464.4,424.7c0-1.1-0.9-2.1-2.1-2.1s-2.1,0.9-2.1,2.1s0.9,2.1,2.1,2.1h0C463.4,426.8,464.4,425.9,464.4,424.7
			z"/>
        <circle class="st3" cx="94.5" cy="84.7" r="2.1"/>
        <circle class="st3" cx="340.6" cy="41.5" r="2.1"/>
        <circle class="st3" cx="98.2" cy="409.4" r="2.1"/>

        <ellipse transform="matrix(0.9998 -1.998796e-02 1.998796e-02 0.9998 -7.8132 0.724)" class="st3" cx="32.3"
                 cy="391.2" rx="2.1" ry="2.1"/>
        <path class="st3" d="M394.9,172.6c0-1.1-0.9-2.1-2.1-2.1c-1.1,0-2.1,0.9-2.1,2.1c0,1.1,0.9,2.1,2.1,2.1l0,0
			C393.9,174.6,394.9,173.7,394.9,172.6z"/>
        <path class="st3" d="M467.7,37.8c0-1.1-0.9-2.1-2.1-2.1s-2.1,0.9-2.1,2.1s0.9,2.1,2.1,2.1c0,0,0,0,0,0
			C466.7,39.9,467.7,39,467.7,37.8z"/>
	</g>
        <g id="OBJECTS">
		<path class="st4" d="M125.1,300.9c-7.5-0.9-15-1.8-22.1-4.3s-13.8-6.7-18-13s-5.4-14.8-1.8-21.4c3.8-7.1,12.2-10.8,20.2-10.8
			s15.7,3,22.9,6.5l-1.2,10.7c-6.5-4.2-14.1-6.3-21.9-6c-3.3,0.1-7,1-8.8,3.9c-1.6,2.6-0.9,6.1,0.6,8.8c2.5,4.6,6.9,7.9,11.7,10
			s10,3.1,15.1,4.1L125.1,300.9z"/>
            <path class="st5" d="M121.7,289.2c-2.6-0.5-5.1-1-7.6-1.6c-0.1,1.8-0.1,3.6-0.1,5.3c-12.8-3.3-24.2-10.4-32.8-20.4
			c0.3,4,1.7,7.8,3.9,11.1c4.2,6.3,10.9,10.5,18,13s14.7,3.4,22.1,4.3L121.7,289.2z"/>
            <path class="st5" d="M115.6,258.5c-16.1-3-23.6,5.8-22.1,12.2l0,0c-0.2-1.5,0.1-3.1,0.8-4.5c1.7-2.9,5.4-3.7,8.8-3.9
			c7.7-0.3,15.4,1.8,21.9,6l1.2-10.7c-3.3-1.7-6.7-3.1-10.2-4.3C115.9,254.9,115.7,256.6,115.6,258.5z"/>
            <path class="st4" d="M376.5,293.7c7.5-0.9,15-1.8,22.1-4.3s13.9-6.7,18-13s5.4-14.8,1.8-21.4c-3.8-7.1-12.2-10.8-20.2-10.8
			s-15.7,2.9-22.9,6.5l1.2,10.7c6.5-4.2,14.1-6.3,21.9-6c3.3,0.1,7,1,8.8,3.9c1.6,2.6,0.9,6.1-0.5,8.8c-2.5,4.6-6.9,7.9-11.7,10
			s-10,3.1-15.1,4.1L376.5,293.7z"/>
            <path class="st5" d="M376.6,261.3c6.5-4.2,14.1-6.3,21.9-6c3.1,0.1,6.5,0.9,8.4,3.3l-0.1-0.1c-3-5.5-10.4-6.7-16.5-6.7
			c-0.5-2.5-0.9-4.7-1.3-6.4c-4.7,1.3-9.3,3.1-13.6,5.3L376.6,261.3z"/>
            <path class="st5" d="M416.7,276.4c2.4-3.6,3.7-7.7,3.9-12c-6,9.3-14.9,16.3-25.3,19.9c-0.2-2.1-0.5-4.2-0.7-6.2
			c-4.7,1.8-9.6,3.1-14.6,3.9l-3.4,11.6c7.5-0.9,15-1.8,22.1-4.3S412.5,282.6,416.7,276.4z"/>
            <path class="st4" d="M377.4,217.3c9.3,68.8,12.5,127.2,9.7,196.8c-1,25.3-16.6,46.1-37,49.3c-63.8,10-128.8,8.6-192.1-4.1
			c-19.1-3.8-33.7-22.9-35.6-46.6c-5.4-69.3-5.3-127.6-0.2-195.7L377.4,217.3z"/>
            <path class="st5" d="M387.9,346c-10.5,16.7-24.2,31.2-40.3,42.5c-23.3,16.6-50.7,27.1-78.7,33.2c-47.2,10.4-97,8.9-145.8-3.4
			c3.6,21,17.4,37.4,34.9,40.9c63.3,12.7,128.3,14.1,192.1,4.1c20.4-3.2,36-24,37-49.3C388,390.4,388.3,368,387.9,346z"/>
            <path class="st6" d="M250.7,169.9c-31.4,0-123.3,3.8-128.3,44.6c-2.1,17.4,10.8,29,24.7,35.5c52.8,24.5,152.3,39.8,214.4-6.1
			C408.2,209.4,346.9,169.9,250.7,169.9z"/>
            <path class="st0" d="M250.2,175c-33.3-0.5-67.5,2.4-98.3,15.4c-6.1,2.6-12.2,5.7-17,10.5s-8.1,11.4-7.8,18.2
			c0.3,6.4,3.9,12.2,8.5,16.5s10.3,7.2,15.9,9.8c58.9,27.5,129,32.4,188.4,6.1c8.8-3.9,17.5-8.6,23.6-16.2s8.7-18.7,4.3-27.4
			c-3.7-7.3-11.4-11.5-18.8-14.6C318.7,180.4,285.5,175.5,250.2,175z"/>
            <path class="st7" d="M361.1,238.1c0.4-2,0.4-4,0.1-6c-1-6.4-6.1-11.5-12-14.2s-12.4-3.5-18.8-4.1c-55.6-5.4-112.5-5-166.6,9.1
			c-5.3,1.4-10.8,3-15,6.7c-3.4,3-5.6,7.7-4.9,12c2.4,1.4,4.9,2.6,7.5,3.8c58.9,27.5,129,32.4,188.4,6.1
			C347.6,248.1,355.3,244.1,361.1,238.1z"/>
            <g>
			<defs>
				<path id="SVGID_1_" d="M127.1,219.1L114,237.2l-56.7,58.6c0,0-39.7-1.1-41.5-2.1S6.9,43.9,6.9,43.9s125.3-19.5,252.9-21.5
					s222,27.4,222,27.4L495.1,238l-29.3,76.1l-95.8-97c-0.1,6.6-2.3,13-6.5,18.2c-6,7.6-14.8,12.4-23.6,16.2
					c-59.4,26.3-129.6,21.4-188.4-6.1c-5.7-2.6-11.3-5.6-15.9-9.8S127.4,225.5,127.1,219.1c0-0.3,0-0.7,0-1"/>
			</defs>
                <clipPath id="SVGID_2_">
				<use xlink:href="#SVGID_1_" style="overflow:visible;"/>
			</clipPath>
                <g class="st8">
				<path class="st1" d="M412.4,59.9c-8.9-4.9-20.5-4.1-28.9,1.7s-13.4,16-13.3,26.1c0.3,10.3,5,20,12.8,26.7
					c5.5,4.7,12.7,7.8,19.9,7.6c13.5-0.4,24.8-12.8,26.4-26.2S425.7,67.2,412.4,59.9z"/>
                    <path class="st1" d="M457.5,119c6.9-11.9,16.3-22.2,27.5-30.2l-3.6-6.6c-10.6,7-19.5,16.4-26,27.3c5.9-14.9,13.6-29.1,22.8-42.2
					c0.1-0.9-5.8-5.4-5.8-5.4c-7.2,10.5-13.4,21.6-18.5,33.2c1-9.5,1.1-19.1,0.4-28.6c-2.4-1.3-5.2-1.8-8-1.2
					c1.6,15.5,0.7,31.2-2.7,46.4c-8.8-3.4-18.6-4.6-27.5-1.6c-10.8,3.6-19.5,14.6-17.9,25.9c1.2,8.6,7.7,15.4,11.9,23
					c6.3,11.5,7.4,25.8,5.2,39.8c2-9.2,11.7-14.5,20.9-16.8s19-3,26.8-8.2c9.8-6.5,14.2-19.5,12.1-31.1
					C473.5,133.5,467.7,125.7,457.5,119z"/>
                    <path class="st9" d="M407.3,57.2c-9.1-4.6-20.7-3.3-28.9,2.7s-12.8,16.4-12.3,26.6c0.7,10.3,5.7,19.8,13.8,26.2
					c5.7,4.5,12.9,7.4,20.2,6.9c13.5-0.9,24.3-13.7,25.5-27.1S420.9,64.1,407.3,57.2z"/>
                    <path class="st10" d="M408.6,68.7c-5.8-5.1-14.7-5.9-21.5-2.4c-6.9,3.8-11.2,10.9-11.4,18.7c-0.1,7.8,3.6,15.2,9.8,20
					c4,3.1,9.2,5,14,3.7s8.2-5.3,10.4-9.6C414.3,90.3,417.6,76.6,408.6,68.7z"/>
                    <path class="st11" d="M407.9,75.7c-3.1-5.1-9-7.7-14.9-6.6c-5.8,1.3-10.4,5.6-12.1,11.3c-1.6,5.7-0.4,11.7,3.1,16.5
					c2.8,3.8,7.4,6.8,12.1,6.4c5.2-0.4,9.5-4.4,11.7-9.1C410.5,88.7,411.3,81.9,407.9,75.7z"/>
                    <path class="st11" d="M402.3,76.4c3.5,3.9,5.3,9.6,3.7,14.6s-7.3,8.7-12.4,7.3c-2.8-0.8-5.2-2.7-6.6-5.2c-2.6-4.2-3-9.8-0.4-14
					S397,70.5,402.3,76.4z"/>
                    <path class="st11" d="M401.5,83.6c-1.8-2.8-5.6-3.6-8.4-1.8c-2.8,1.8-3.6,5.6-1.8,8.4c1.6,2.5,4.9,3.5,7.6,2.2
					c3.1-1.4,4.4-5,3-8.1C401.8,84.1,401.7,83.9,401.5,83.6z"/>
                    <path class="st12" d="M404.8,60.7c-6.3-3.2-14.1-2.1-20,1.7s-9.8,10.2-11.6,17c-2,7.3-1.6,15.3,1.7,22.1s9.8,12.1,17.3,13.2
					c8.1,1.3,16.6-2.5,21.6-9s6.7-15.2,5-23.3S413.8,65.2,404.8,60.7z"/>
                    <path class="st5"
                          d="M423.2,101.8c-18-1.8-26.4,10.2-29.8,17.4c2.2,0.5,4.5,0.6,6.7,0.5C410.4,119,419.2,111.3,423.2,101.8z"/>
                    <path class="st13" d="M434.2,129.7c8.5-22,11.5-45.8,8.8-69.2c2.7-0.6,5.6-0.2,8,1.1c2.1,24.2-1.3,48.6-9.9,71.4
					C438.7,132.2,436.4,131.1,434.2,129.7z"/>
                    <g>
					<defs>
						<path id="SVGID_3_" d="M434.2,129.7c8.5-22,11.5-45.8,8.8-69.2c2.7-0.6,5.6-0.2,8,1.1c2.1,24.2-1.3,48.6-9.9,71.4
							C438.7,132.2,436.4,131.1,434.2,129.7z"/>
					</defs>
                        <clipPath id="SVGID_4_">
						<use xlink:href="#SVGID_3_" style="overflow:visible;"/>
					</clipPath>
                        <g class="st14">
						<path class="st15" d="M446.3,58.3c3.1,25.3-0.5,51-10.5,74.5"/>
                            <path class="st15" d="M449.1,57c3.2,25.8-0.5,51.9-10.6,75.9"/>
					</g>
				</g>
                    <path class="st5" d="M441.4,104.9c-1.6,8.5-4,16.7-7.1,24.8c2.1,1.4,4.5,2.5,6.9,3.2c3.1-8.2,5.5-16.6,7.2-25.1
					C446.1,106.7,443.7,105.7,441.4,104.9z"/>
                    <path class="st13" d="M441.9,116.9c5.5-21.5,14.7-41.8,27.1-60.2c0,0,5.9,4.4,5.8,5.3c-12,17.4-21.2,36.6-27.3,56.9
					C445.9,118.4,444.3,117.5,441.9,116.9z"/>
                    <g>
					<defs>
						<path id="SVGID_5_" d="M441.9,116.9c5.5-21.5,14.7-41.8,27.1-60.2c0,0,5.9,4.4,5.8,5.3c-12,17.4-21.2,36.6-27.3,56.9
							C445.9,118.4,444.3,117.5,441.9,116.9z"/>
					</defs>
                        <clipPath id="SVGID_6_">
						<use xlink:href="#SVGID_5_" style="overflow:visible;"/>
					</clipPath>
                        <g class="st16">
						<path class="st17" d="M474,55.3c-13.5,19.9-24,41.7-31.3,64.6"/>
                            <path class="st17" d="M478,57.6c-7.4,6-12.2,14.6-16.5,23.2c-6.5,13.1-12.1,26.6-16.7,40.5"/>
					</g>
				</g>
                    <path class="st5" d="M445.7,104.1c-1.4,4.2-2.7,8.5-3.8,12.8c2.4,0.7,3.9,1.6,5.6,2c1.2-4.1,2.6-8.1,4-12.1
					C449.4,105.7,447.4,104.8,445.7,104.1z"/>
                    <path class="st13" d="M481.8,83.4l-3.7-6.6c-13.7,9.2-24.9,22.8-31.8,40.2c1.2,1.7,2.9,3,4.9,3.8
					C457.7,106.5,467.9,93.9,481.8,83.4z"/>
                    <g>
					<defs>
						<path id="SVGID_7_" d="M481.8,83.4l-3.7-6.6c-13.7,9.2-24.9,22.8-31.8,40.2c1.2,1.7,2.9,3,4.9,3.8
							C457.7,106.5,467.9,93.9,481.8,83.4z"/>
					</defs>
                        <clipPath id="SVGID_8_">
						<use xlink:href="#SVGID_7_" style="overflow:visible;"/>
					</clipPath>
                        <g class="st18">
						<path class="st15" d="M482.6,77.4c-15.7,10.8-28.2,25.6-36,43"/>
                            <path class="st15" d="M448.4,124.2c6.2-18.4,18.8-34,35.5-43.9"/>
					</g>
				</g>
                    <path class="st5" d="M446.3,117c1.2,1.7,2.9,3,4.9,3.8c1.4-3.1,2.9-6,4.6-8.9c-2.1-1.2-4-2.3-5.8-3.2
					C448.8,111.4,447.5,114.1,446.3,117z"/>
                    <path class="st9" d="M444.5,109.4c-10.2-5.1-22.3-7.5-33.1-3.7s-19.4,14.9-17.6,26.1c1.3,8.6,7.9,15.3,12.1,22.9
					c6.5,11.4,7.7,25.7,5.7,39.7c1.9-9.2,11.5-14.6,20.6-17s18.9-3.2,26.7-8.5c9.7-6.6,14-19.7,11.7-31.2S459.8,117,444.5,109.4z"/>
                    <g>
					<defs>
						<path id="SVGID_9_" d="M444.5,109.4c-10.2-5.1-22.3-7.5-33.1-3.7s-19.4,14.9-17.6,26.1c1.3,8.6,7.9,15.3,12.1,22.9
							c6.5,11.4,7.7,25.7,5.7,39.7c1.9-9.2,11.5-14.6,20.6-17s18.9-3.2,26.7-8.5c9.7-6.6,14-19.7,11.7-31.2S459.8,117,444.5,109.4z"
                        />
					</defs>
                        <clipPath id="SVGID_10_">
						<use xlink:href="#SVGID_9_" style="overflow:visible;"/>
					</clipPath>
                        <g class="st19">
						<path class="st12" d="M416.1,99.9c-1.8,2.4-1.8,5.9-0.6,8.6c1.3,2.7,3.2,5.1,5.6,7.1c6.5,5.8,14.1,10.6,22.7,12.3
							c8.5,1.7,18-0.1,24.5-5.8"/>
                            <path class="st12" d="M423,99.4c1,8.5,8.3,15.3,16.4,18.2s17,2.4,25.6,1.4"/>
                            <path class="st12" d="M402.3,104.5c1.6,8.2,6.5,15.6,12.8,21.2s14,9.3,21.9,12.2c7.2,2.6,14.8,4.5,21.8,7.7
							s13.7,7.9,17.3,14.8"/>
                            <path class="st12"
                                  d="M389.9,122.3c4.9,8.8,13.6,14.8,22.6,19.4s18.5,8.2,26.9,13.8s15.8,13.8,17.5,23.7"/>
                            <path class="st12" d="M395.4,146.1c19.9,2,38,16.2,44.6,35"/>
                            <path class="st12" d="M401.6,155.9c12.4,6.1,20.8,18.3,22.1,32.1"/>
					</g>
				</g>
                    <path class="st5" d="M441.7,160.2c-11.4,2.8-23.6,1.4-34.5-2.9c5.3,10.9,6.3,24.1,4.4,37.2c1.9-9.2,11.5-14.6,20.6-17
					s18.9-3.2,26.7-8.5c8.9-6.1,13.2-17.6,12.1-28.4C463.9,150.3,453.5,157.3,441.7,160.2z"/>
                    <path class="st1" d="M490.8,236.3c0.1-0.5,0.1-0.9,0.1-1.4c0,0,0,0,0-0.1l0,0c0-4.1-1.6-8-4.4-11c-3.5-3.7-8-6.6-19.1-10.3
					c-14.3-4.7-29.7-4.6-44,0.1c-6.4,2.2-13.4,6.4-14.1,13.1c-1.1,14.3,5.6,30.7,17.3,39c12,8.3,27.4,10,40.9,4.2
					C480.1,264.5,489.3,250.9,490.8,236.3z"/>
                    <path class="st0"
                          d="M402.4,226.1c1,14.3,10.2,29.5,23,36c13.1,6.4,28.6,5.7,41-2c12.1-7.7,19.2-23.3,17.9-38.4L402.4,226.1z"/>
                    <path class="st5" d="M466.4,260.1c7.6-4.8,13.2-12.8,16-21.8c-9.4,8.7-21.1,14.6-33.7,16.9c-11.6,2-23.5,1.2-34.7-2.2
					c3.2,3.7,7,6.7,11.3,9C438.5,268.5,454,267.8,466.4,260.1z"/>
                    <path class="st20" d="M457.8,204.2c-14.8-2.4-30.1-0.1-43.4,6.8c-6,3.1-12.2,8.3-11.9,15.1c0.4,7.5,8.4,12.1,15.6,14.3
					c17.7,5.5,37.5,5.7,54.2-2.4c5.5-2.7,11.1-7,12-13.1c0.8-5.1-2-10.2-6-13.4S469.3,206.1,457.8,204.2z"/>
                    <path class="st0" d="M446.1,206.9c-11,0.1-21.9,2.7-31.7,7.6c-3.8,1.8-7.7,4.4-8.8,8.3c-1,3.4,0.7,7.2,3.4,9.7s6.2,4,9.8,5.2
					c17.1,5.8,36.8,5.5,52.8-2.5c3-1.5,6-3.4,7.7-6.2c2.5-4.2,1.5-9.7-1.6-13.5S461.2,206.3,446.1,206.9z"/>
                    <path class="st21" d="M478.6,229.9c0-0.3-0.1-0.7-0.2-1c-1.2-4.7-6.2-7.3-10.9-8.6c-15.1-4.3-31.5-1.9-46.4,3.2
					c-2.8,0.8-5.5,2.2-7.8,4c-1.8,1.5-3.1,3.6-3.5,5.9c2.7,2,5.7,3.5,8.8,4.4c17.1,5.8,36.8,5.5,52.8-2.5
					C474.2,234,476.7,232.1,478.6,229.9z"/>
                    <g>
					<defs>
						<path id="SVGID_11_" d="M478.6,229.9c0-0.3-0.1-0.7-0.2-1c-1.2-4.7-6.2-7.3-10.9-8.6c-15.1-4.3-31.5-1.9-46.4,3.2
							c-2.8,0.8-5.5,2.2-7.8,4c-1.8,1.5-3.1,3.6-3.5,5.9c2.7,2,5.7,3.5,8.8,4.4c17.1,5.8,36.8,5.5,52.8-2.5
							C474.2,234,476.7,232.1,478.6,229.9z"/>
					</defs>
                        <clipPath id="SVGID_12_">
						<use xlink:href="#SVGID_11_" style="overflow:visible;"/>
					</clipPath>
                        <g class="st22">
						<path class="st23" d="M420.4,242c-2.6-1.4-2.9-5.2-1.4-7.7s4.2-4,6.9-5.2c10.1-4.7,22-7.3,32.5-3.6c4.2,1.5,8,3.9,12,5.7
							s8.6,3,12.9,1.9"/>
                            <path class="st23" d="M429.9,243.2c11.8-10.4,29.1-11.6,42.2-2.9"/>
					</g>
				</g>
                    <path class="st1" d="M246.1,217.7c-1.8,5-8.2,6.7-13.4,5.9s-10.1-3.4-15.3-4.2c-9.7-1.4-19.8,4.2-24.5,12.8s-4.4,19.5,0,28.2
					s12.6,15.3,21.7,18.8c8.2,3.1,17.5,3.9,25.6,0.6s14.6-11,15-19.8c0.3-7.3-3.4-14-6.3-20.7S243.8,224.9,246.1,217.7z"/>
                    <path class="st0" d="M239.7,214.6c-1.2,5.1-7.3,7.6-12.6,7.4s-10.4-2.2-15.7-2.4c-9.8-0.2-19.1,6.5-22.8,15.6
					s-2.1,19.9,3.3,28.1c5.4,8.2,14.2,13.8,23.7,16.2c8.5,2.2,17.8,1.8,25.5-2.3s13.2-12.6,12.6-21.4c-0.5-7.3-5-13.6-8.7-19.8
					S238.2,222,239.7,214.6z"/>
                    <g>
					<defs>
						<path id="SVGID_13_" d="M239.7,214.6c-1.2,5.1-7.3,7.6-12.6,7.4s-10.4-2.2-15.7-2.4c-9.8-0.2-19.1,6.5-22.8,15.6
							s-2.1,19.9,3.3,28.1c5.4,8.2,14.2,13.8,23.7,16.2c8.5,2.2,17.8,1.8,25.5-2.3s13.2-12.6,12.6-21.4c-0.5-7.3-5-13.6-8.7-19.8
							S238.2,222,239.7,214.6z"/>
					</defs>
                        <clipPath id="SVGID_14_">
						<use xlink:href="#SVGID_13_" style="overflow:visible;"/>
					</clipPath>
                        <g class="st24">
						<path class="st25" d="M226.3,220c-19.2,0.7-34.2,16.9-33.5,36.1c0.3,7.2,2.8,14.2,7.2,19.9"/>
                            <path class="st25" d="M244.3,231.5c5.8,10.4,3.9,24-3.2,33.5s-18.5,15.2-30.3,16.9"/>
                            <path class="st25"
                                  d="M230.1,219.4c-5,5.2-11.6,8.8-16.6,14.1c-7.5,8-10.8,19.8-9,32.2c0.4,2.3,0.8,4.6,1,6.9l1.7,5.6"/>
                            <path class="st25" d="M242.4,226c-4.6,9.9-3.4,21.9-8.2,31.7c-5.2,10.7-16.5,16.8-27.1,22.3"/>
                            <path class="st25" d="M236.1,216.1c-7.1,21.7-23.8,40.1-26.5,62.8"/>
                            <path class="st25" d="M208.9,216.5c-18.1,10.1-26.4,31.7-19.6,51.3"/>
					</g>
				</g>
                    <path class="st5" d="M216,262.5c-11.6-3.2-22-10.8-29.3-19.7c-0.6,7.2,1.2,14.4,5.2,20.4c5.4,8.2,14.2,13.8,23.7,16.2
					c8.5,2.2,17.8,1.8,25.5-2.3c7.1-3.9,12.4-11.4,12.6-19.5C242.2,264.1,228.7,265.8,216,262.5z"/>
                    <path class="st1" d="M277,243c-6.6,13.3-11.1,27.6-13.5,42.2c8.4,1.5,17.5,2.6,24.9-1.6c7.8-4.5,11.7-14.5,9.6-23.2
					S288.4,244.6,277,243z"/>
                    <path class="st0" d="M273.6,241.1c-7.2,13-12.4,27-15.5,41.5c8.3,1.9,17.4,3.4,25-0.5c8-4.1,12.4-13.9,10.7-22.7
					S284.8,243.3,273.6,241.1z"/>
                    <path class="st2" d="M289,262.2c-0.7-4.7-3-9.1-6.5-12.4c-2.9-2.8-6.3-5-10-6.5c-6.1,11.5-10.7,23.8-13.7,36.5
					c2.8,0.9,5.8,1.2,8.8,1c6.2-0.1,13-1.1,17.4-5.5C288.2,271.8,289.7,267,289,262.2z"/>
                    <g>
					<defs>
						<path id="SVGID_15_" d="M289,262.2c-0.7-4.7-3-9.1-6.5-12.4c-2.9-2.8-6.3-5-10-6.5c-6.1,11.5-10.7,23.8-13.7,36.5
							c2.8,0.9,5.8,1.2,8.8,1c6.2-0.1,13-1.1,17.4-5.5C288.2,271.8,289.7,267,289,262.2z"/>
					</defs>
                        <clipPath id="SVGID_16_">
						<use xlink:href="#SVGID_15_" style="overflow:visible;"/>
					</clipPath>
                        <g class="st26">
						<path class="st27"
                              d="M268.8,246c4.4,2.4,8,5.9,10.5,10.2c2,3.6,3.2,7.9,1.9,11.8c-1.5,4.2-5.6,7-10,8.1s-8.9,0.6-13.3,0.2"/>
                            <path class="st27" d="M256.6,271c2.7,0.6,5.5,0.8,8.2,0.5c2.8-0.3,5.3-1.7,6.9-4c1.6-2.6,1.5-6,0.5-8.8
							c-1.2-2.8-2.9-5.4-4.9-7.7"/>
                            <path class="st27" d="M260.1,265.1c2.9,0.8,5.8-1,6.6-3.8c0.5-2-0.1-4.1-1.7-5.4"/>
					</g>
				</g>
                    <path class="st1" d="M189.8,218.5c14.8,0.7,29.7-0.9,44.1-4.6c-2-8.3-4.7-17.1-11.5-22.2c-7.2-5.4-18-4.9-25.1,0.5
					S186.8,207.4,189.8,218.5z"/>
                    <path class="st0" d="M183.6,215.4c14.8,1.4,29.7,0.5,44.2-2.4c-1.6-8.4-3.9-17.3-10.4-22.7c-6.9-5.7-17.7-5.8-25.1-0.7
					S181.1,204.3,183.6,215.4z"/>
                    <path class="st2" d="M196.7,192.9c-4,2.6-7.1,6.4-8.7,10.9c-1.4,3.8-2.1,7.8-2,11.8c13,1,26.1,0.3,38.9-2.1
					c-0.4-2.9-1.3-5.8-2.6-8.4c-2.6-5.6-6.2-11.5-12-13.7C205.8,189.8,200.8,190.4,196.7,192.9z"/>
                    <g>
					<defs>
						<path id="SVGID_17_" d="M196.7,192.9c-4,2.6-7.1,6.4-8.7,10.9c-1.4,3.8-2.1,7.8-2,11.8c13,1,26.1,0.3,38.9-2.1
							c-0.4-2.9-1.3-5.8-2.6-8.4c-2.6-5.6-6.2-11.5-12-13.7C205.8,189.8,200.8,190.4,196.7,192.9z"/>
					</defs>
                        <clipPath id="SVGID_18_">
						<use xlink:href="#SVGID_17_" style="overflow:visible;"/>
					</clipPath>
                        <g class="st28">
						<path class="st27"
                              d="M190,218c0.4-5,2.2-9.7,5.1-13.7c2.5-3.3,6-6.1,10.1-6.5c4.4-0.4,8.7,2.3,11.4,5.9s4.2,7.9,5.6,12.1"/>
                            <path class="st27" d="M217.8,219c-0.5-2.7-1.5-5.3-2.8-7.7c-1.4-2.4-3.8-4.1-6.5-4.7c-3-0.5-6.1,1-8.2,3.1
							c-2.1,2.2-3.8,4.8-5.1,7.6"/>
                            <path class="st27" d="M210.9,218.2c-0.5-2.9-3.2-4.9-6.1-4.5c-2,0.3-3.7,1.8-4.3,3.7"/>
					</g>
				</g>
                    <path class="st1" d="M257.5,243.6c-3.8-13.6-4.3-27.9-1.5-41.7c5.5,0.3,11,1.1,15.9,3.6s8.9,7.1,9.8,12.5
					c0.9,5.9-2.1,11.8-6.5,15.8S265,240.1,257.5,243.6z"/>
                    <path class="st0" d="M257.6,240.4c-6-12.8-8.8-26.8-8.4-40.8c5.4-0.6,11.1-0.7,16.3,1s10,5.5,11.7,10.7c1.9,5.6-0.1,12-3.9,16.6
					S264.4,235.8,257.6,240.4z"/>
                    <path class="st2" d="M249.1,202.5c0,12,2.4,23.8,7.1,34.8c6.9-2.7,12.5-7.8,16-14.3c1.6-3.1,2.7-6.8,1.8-10.2s-4-6.1-7.2-7.9
					C261.4,202.1,255.1,201.3,249.1,202.5z"/>
                    <g>
					<defs>
						<path id="SVGID_19_" d="M249.1,202.5c0,12,2.4,23.8,7.1,34.8c6.9-2.7,12.5-7.8,16-14.3c1.6-3.1,2.7-6.8,1.8-10.2
							s-4-6.1-7.2-7.9C261.4,202.1,255.1,201.3,249.1,202.5z"/>
					</defs>
                        <clipPath id="SVGID_20_">
						<use xlink:href="#SVGID_19_" style="overflow:visible;"/>
					</clipPath>
                        <g class="st29">
						<path class="st27" d="M248.1,206.9c5.9-1.7,12.3-0.7,17.4,2.7c2.3,1.6,4.4,3.8,4.6,6.6s-1.6,5.4-3.6,7.5
							c-4.1,4.1-9.1,7.3-14.6,9.1"/>
                            <path class="st27"
                                  d="M248,210.9c3.1-0.4,6.2-0.8,9.2,0c3,0.8,5.8,3,6.4,6c0.5,2.8-1,5.6-3.2,7.4c-2.3,1.7-4.8,3-7.5,3.8"/>
                            <path class="st27"
                                  d="M248.6,215.1c1.6,0,3.2-0.5,4.9-0.5s3.4,0.6,4.1,2.1c0.4,1,0.3,2.1-0.2,3c-1.2,2.6-4.1,3.9-6.7,5"/>
					</g>
				</g>
                    <path class="st1" d="M372.6,167c-0.2-1.8-1.5-3.4-3.2-4.1c-1.7-0.6-4,0.4-4.3,2.2c0.5-10.2,2.6-20.6-1.5-29.4
					c-1.4-3-3.9-5.9-7.2-6c-2.9-0.1-5.4,2-7.1,4.3c-3.2,4.5-5.1,9.9-5.4,15.4c-0.3,5.5,0.3,11.1,1.6,16.5c-0.9-2.5-3.2-4.4-5.3-4.2
					c-2.2,0.3-4,1.8-4.7,3.9c-0.7,2-0.9,4.2-0.6,6.4c0.7,7.7,3,15.1,6.9,21.7c-1.9-1.4-2.9-2.8-4.2-3.7c-1.4-1-3.2-1-4.6-0.1
					c-2,1.6-1.2,4.8-0.2,7.1c4.4,9.6,10.7,18.2,17,26.7c-1,4.3-2.1,8.6-3.4,12.9c0,0,3.5,0.9,4.1,0.9c1.1-4.3,2-8.6,2.8-12.9
					c8.4-7.3,15.9-16.5,18.6-27.6c0.5-1.6,0.6-3.2,0.4-4.9c-0.3-1.6-1.4-3-2.9-3.7c-1.6-0.6-3.4,0.3-4,1.9c2.4-6.2,5-12,6.5-18
					C372.7,170.7,372.9,168.8,372.6,167z"/>
                    <path class="st13" d="M353.4,226.1c-6.5-9.6-13.1-19.2-17.4-30c-1-2.4-1.6-5.6,0.5-7.1c1.5-0.8,3.3-0.7,4.6,0.3
					c1.3,1,2.2,2.4,4,3.9c-3.6-6.8-5.6-14.3-5.9-22c-0.2-2.2,0.1-4.3,0.9-6.4c0.8-2.1,2.7-3.5,4.9-3.7c2.2-0.1,4.3,1.9,5.1,4.4
					c-1.1-5.4-1.3-11-0.8-16.5c0.5-5.5,2.6-10.8,6.1-15.2c1.8-2.2,4.4-4.2,7.3-4c3.3,0.2,5.7,3.3,7,6.4c3.7,9.1,1.1,19.4,0.1,29.5
					c0.4-1.8,2.7-2.7,4.4-2c1.7,0.8,2.8,2.4,3,4.3c0.1,1.8-0.1,3.7-0.8,5.4c-1.8,6-4.7,11.6-7.4,17.7c0.7-1.6,2.4-2.3,4-1.7
					c1.5,0.7,2.5,2.2,2.7,3.8c0.2,1.6,0,3.3-0.6,4.8C371.6,209.7,362.8,219,353.4,226.1z"/>
                    <g>
					<defs>
						<path id="SVGID_21_" d="M353.4,226.1c-6.5-9.6-13.1-19.2-17.4-30c-1-2.4-1.6-5.6,0.5-7.1c1.5-0.8,3.3-0.7,4.6,0.3
							c1.3,1,2.2,2.4,4,3.9c-3.6-6.8-5.6-14.3-5.9-22c-0.2-2.2,0.1-4.3,0.9-6.4c0.8-2.1,2.7-3.5,4.9-3.7c2.2-0.1,4.3,1.9,5.1,4.4
							c-1.1-5.4-1.3-11-0.8-16.5c0.5-5.5,2.6-10.8,6.1-15.2c1.8-2.2,4.4-4.2,7.3-4c3.3,0.2,5.7,3.3,7,6.4c3.7,9.1,1.1,19.4,0.1,29.5
							c0.4-1.8,2.7-2.7,4.4-2c1.7,0.8,2.8,2.4,3,4.3c0.1,1.8-0.1,3.7-0.8,5.4c-1.8,6-4.7,11.6-7.4,17.7c0.7-1.6,2.4-2.3,4-1.7
							c1.5,0.7,2.5,2.2,2.7,3.8c0.2,1.6,0,3.3-0.6,4.8C371.6,209.7,362.8,219,353.4,226.1z"/>
					</defs>
                        <clipPath id="SVGID_22_">
						<use xlink:href="#SVGID_21_" style="overflow:visible;"/>
					</clipPath>
                        <g class="st30">
						<path class="st15" d="M360.8,172.9c2.1-11.1,6.6-21.7,13.1-30.9"/>
                            <path class="st15" d="M359.4,185.6c-9.7-5.1-19-11.1-27.5-18"/>
                            <path class="st15" d="M358.4,196c7.8-10.6,14.3-22.1,19.3-34.3"/>
                            <path class="st15" d="M355.8,209.1c-9-3-17-8.3-23.3-15.4"/>
                            <path class="st15" d="M355.4,217c9.4-7.2,18.1-15.2,26-24.1"/>
					</g>
				</g>
                    <path class="st31"
                          d="M358.9,149.4c2.3,29.5-1.5,59.1-11.2,87.1c0,0,3.5,1,4.1,1C360.5,208.9,362.9,178.9,358.9,149.4z"/>
                    <path class="st1" d="M339.2,268c-5.5-5.3-10.5-11.1-14.8-17.4c3.2-9.2,5.5-18.3,3.9-27.3c-0.3-1.6-0.9-3.4-2.3-4.1
					c-1.3-0.5-2.8-0.3-3.8,0.6c-1,0.9-1.9,2-2.5,3.1c0.2-10.1,0.8-19.4,0.9-28.8c0.1-1.2-0.1-2.3-0.4-3.4c-0.3-1.1-1.2-2-2.4-2.3
					c-2-0.4-3.7,1.6-4.8,3.3c0.5-10.6,1.4-19-2.2-26.1c-1.1-2.2-2.8-4.4-5.2-5c-2.5-0.6-5.2,0.3-7,2.1c-1.7,1.9-3,4.1-3.7,6.6
					c-3.3,9.6-3.2,20,0.2,29.5c-2-1.5-3.6-2-4.8-1.5c-1.2,0.6-2.1,1.8-2.2,3.1c-0.2,1.3-0.1,2.7,0.2,3.9c2.2,9.8,7.3,18.8,14.6,25.7
					c-3.6-1.4-6.4-1.7-7.8,0.2s0,4.6,1.5,6.5c6.4,8,15.1,13.9,24.9,16.9c3.9,6.1,8.4,11.8,13.4,17
					C334.8,270.7,338.7,268.4,339.2,268z"/>
                    <path class="st13" d="M325.5,253c-10.2-3.6-19.1-10.4-25.3-19.3c-1.4-2-2.6-4.7-1-6.6s4.3-1.2,7.8,0.4
					c-6.9-7.4-11.3-16.7-12.8-26.6c-0.3-1.3-0.3-2.7,0-4c0.3-1.3,1.2-2.4,2.5-2.9c1.3-0.4,2.9,0.2,4.7,1.8c-2.7-9.7-2-20.1,1.9-29.4
					c0.9-2.4,2.3-4.5,4.2-6.3c1.9-1.7,4.6-2.4,7.1-1.6c2.3,0.8,3.9,3.1,4.8,5.4c3,7.3,1.5,15.6,0.3,26.1c1.2-1.6,3-3.5,5-2.9
					c1.1,0.4,2,1.3,2.2,2.5c0.2,1.2,0.3,2.3,0.1,3.5c-0.7,9.3-2,18.6-2.9,28.6c0.7-1.2,1.7-2.2,2.8-3c1.1-0.8,2.6-1,3.9-0.4
					c1.4,0.8,1.9,2.6,2,4.2C333.9,232.8,330.1,242.9,325.5,253z"/>
                    <g>
					<defs>
						<path id="SVGID_23_" d="M325.5,253c-10.2-3.6-19.1-10.4-25.3-19.3c-1.4-2-2.6-4.7-1-6.6s4.3-1.2,7.8,0.4
							c-6.9-7.4-11.3-16.7-12.8-26.6c-0.3-1.3-0.3-2.7,0-4c0.3-1.3,1.2-2.4,2.5-2.9c1.3-0.4,2.9,0.2,4.7,1.8
							c-2.7-9.7-2-20.1,1.9-29.4c0.9-2.4,2.3-4.5,4.2-6.3c1.9-1.7,4.6-2.4,7.1-1.6c2.3,0.8,3.9,3.1,4.8,5.4c3,7.3,1.5,15.6,0.3,26.1
							c1.2-1.6,3-3.5,5-2.9c1.1,0.4,2,1.3,2.2,2.5c0.2,1.2,0.3,2.3,0.1,3.5c-0.7,9.3-2,18.6-2.9,28.6c0.7-1.2,1.7-2.2,2.8-3
							c1.1-0.8,2.6-1,3.9-0.4c1.4,0.8,1.9,2.6,2,4.2C333.9,232.8,330.1,242.9,325.5,253z"/>
					</defs>
                        <clipPath id="SVGID_24_">
						<use xlink:href="#SVGID_23_" style="overflow:visible;"/>
					</clipPath>
                        <g class="st32">
						<path class="st15" d="M321.8,245l-29.5-18.7"/>
                            <path class="st15" d="M291.9,201.5c5.5,9.4,13.4,17.2,22.7,22.8"/>
                            <path class="st15" d="M319,238.5c6.3-7.3,11.3-15.5,15-24.3"/>
                            <path class="st15" d="M312.3,212.4c7-8.2,12.9-17.3,17.6-27"/>
                            <path class="st15" d="M298.6,168.3c3.2,11.8,7.2,23.4,12,34.7"/>
					</g>
				</g>
                    <path class="st31"
                          d="M310.3,189.2c-2.3,29.4,6.9,58.5,25.7,81.1c0,0,4-2.1,4.5-2.4C321.7,247.1,310.8,219.1,310.3,189.2z"/>
                    <path class="st1" d="M158,214.4c-4.6-12.2-10-24.1-16.1-35.7c-13.9-26.2-28.9-52.3-52.5-69.5c-3.8-2.8-8.5-5.3-13-6
					c-3.7-10.6-3.9-22.6,0.8-32.5c-1.7-0.9-2.9-1.7-4.2-2.3c-1.3,2.7-2.7,5.3-4,8c0.3-3.5,0.7-6.6,1.2-9.6c-0.5-0.3-1.1-0.6-1.7-0.9
					c-4,12-3.1,25.7,2,37.8c-0.8,0.2-1.6,0.6-2.3,1c-3.6-6-6.5-14.2-8.2-24.8C57.2,64,44.1,51.8,44.1,51.8l-0.8,0.5l2.8,5.2
					l-3.9-4.4l-2.2,2.2l4.8,6.9l-6.2-4.9l-1.7,2.2c0,0,12.1,6.8,17.6,25.9c2.3,7.9,5.7,15.3,10.2,22.1l0,0c-16.5-15-30-33-39.9-53
					c-1.6,0-3.1,0.2-4.6,0.8c0.7,3,1.4,6.1,2,9.1c-1.8-2.5-3.4-5.1-4.9-7.8c-0.7,0.4-1.4,0.8-2.2,1.2c11,22,27.2,41,47.2,55.3
					c-0.8,4.5,0.2,9.7,1.8,14c7.4,19.8,23.6,34.9,40,48.1s34,25.7,46.2,43c1.5,2.2,4,4.7,6.4,3.6S158.9,217,158,214.4z"/>
                    <path class="st13" d="M27.7,48.9c0.5,3.1,1.1,6.1,1.6,9.2c-1.7-2.6-3.2-5.2-4.6-8c-0.7,0.3-1.5,0.7-2.2,1.1
					C33.7,75.8,51.3,97,73.4,112.7c1-0.6,1.6-1.8,1.5-3.1c-0.2-1.9-2-3.9-3.6-5.5c-0.4-0.3-0.7-0.7-1.1-1.1
					C54.2,87.3,41.4,68.7,32.3,48.2C30.7,48.2,29.2,48.4,27.7,48.9z"/>
                    <g>
					<defs>
						<path id="SVGID_25_" d="M27.7,48.9c0.5,3.1,1.1,6.1,1.6,9.2c-1.7-2.6-3.2-5.2-4.6-8c-0.7,0.3-1.5,0.7-2.2,1.1
							C33.7,75.8,51.3,97,73.4,112.7c1-0.6,1.6-1.8,1.5-3.1c-0.2-1.9-2-3.9-3.6-5.5c-0.4-0.3-0.7-0.7-1.1-1.1
							C54.2,87.3,41.4,68.7,32.3,48.2C30.7,48.2,29.2,48.4,27.7,48.9z"/>
					</defs>
                        <clipPath id="SVGID_26_">
						<use xlink:href="#SVGID_25_" style="overflow:visible;"/>
					</clipPath>
                        <g class="st33">
						<path class="st17" d="M24.6,45.2C29.8,59.1,38,71.6,47.5,83s20.2,21.6,30.9,31.8"/>
                            <path class="st17" d="M29,44.1c9,26.7,26.3,49.7,49.5,65.7"/>
					</g>
				</g>
                    <path class="st34" d="M73.4,112.6c1-0.6,1.6-1.8,1.5-3.1c-0.2-1.9-2-3.9-3.6-5.5c-0.4-0.3-0.7-0.7-1.1-1.1
					c-0.9-0.9-1.7-1.7-2.6-2.6c-1.3,1.7-2.3,3.6-2.9,5.6C67.5,108.3,70.4,110.5,73.4,112.6z"/>
                    <path class="st13" d="M75.5,110.3c0,0-10-10.8-14.8-30S44.1,53.7,44.1,53.7l1.7-2.1l6,5.1l-4.5-7.1l2.3-2.1l3.7,4.5l-2.6-5.3
					l0.8-0.5c0,0,12.6,12.7,14.6,28.5s6.6,26.4,12.4,32.5L75.5,110.3z"/>
                    <g>
					<defs>
						<path id="SVGID_27_" d="M75.5,110.3c0,0-10-10.8-14.8-30S44.1,53.7,44.1,53.7l1.7-2.1l6,5.1l-4.5-7.1l2.3-2.1l3.7,4.5
							l-2.6-5.3l0.8-0.5c0,0,12.6,12.7,14.6,28.5s6.6,26.4,12.4,32.5L75.5,110.3z"/>
					</defs>
                        <clipPath id="SVGID_28_">
						<use xlink:href="#SVGID_27_" style="overflow:visible;"/>
					</clipPath>
                        <g class="st35">
						<path class="st17"
                              d="M43.8,49.8c6.4,7.6,13.1,14.7,16.9,23.9c2,4.8,3.4,9.6,5.1,14.5c2.9,8.6,7.6,18.2,15,23.9"/>
                            <path class="st17"
                                  d="M46.3,46.4c7.1,4.8,11.8,12.6,15,20.6c3.2,8,5,16.5,7.8,24.6s6.8,16.1,13.3,21.8"/>
					</g>
				</g>
                    <path class="st34"
                          d="M78.6,107.3c-2.8-3.1-5.1-6.6-6.7-10.5c-1.4,0.7-2.6,1.7-3.7,2.8c2,3.8,4.4,7.4,7.2,10.7L78.6,107.3z"/>
                    <path class="st13" d="M77,62.1c-0.6,3-1.1,6.1-1.6,9.6c1.5-2.6,2.9-5.2,4.4-7.8c1.2,0.7,2.4,1.5,4,2.5
					c-6,11.6-5.2,26.4,0.2,38.4c-1.4,0.9-3,1.6-4.6,2c-7.8-14-9.4-31.3-4-45.6C75.9,61.5,76.5,61.8,77,62.1z"/>
                    <g>
					<defs>
						<path id="SVGID_29_" d="M77,62.1c-0.6,3-1.1,6.1-1.6,9.6c1.5-2.6,2.9-5.2,4.4-7.8c1.2,0.7,2.4,1.5,4,2.5
							c-6,11.6-5.2,26.4,0.2,38.4c-1.4,0.9-3,1.6-4.6,2c-7.8-14-9.4-31.3-4-45.6C75.9,61.5,76.5,61.8,77,62.1z"/>
					</defs>
                        <clipPath id="SVGID_30_">
						<use xlink:href="#SVGID_29_" style="overflow:visible;"/>
					</clipPath>
                        <g class="st36">
						<path class="st17" d="M82.8,108.9C72,93.7,70.5,73.8,79,57.1"/>
                            <path class="st17" d="M86.4,108.9c-13.3-13.7-13-35.6,0.7-48.9c0.4-0.3,0.7-0.7,1.1-1"/>
					</g>
				</g>
                    <path class="st34" d="M79.3,106.8c1.6-0.4,3.2-1.1,4.6-2c-1.4-3.2-2.5-6.6-3.2-10c-2.1,0-4.1,0.3-6.1,0.9
					C75.8,99.5,77.4,103.2,79.3,106.8z"/>
                    <path class="st37" d="M144.1,177c5.6,11.8,10.5,23.9,14.7,36.3c0.9,2.7,1.3,6.4-1.3,7.5s-4.8-1.6-6.2-3.9
					c-11.5-17.7-28.6-30.9-44.4-44.8s-31.4-29.7-38-49.7c-2.5-7.7-2.8-17.7,3.9-22s15.6,0.1,21.8,5.1
					C117.3,123.6,131.3,150.2,144.1,177z"/>
                    <path class="st38" d="M147.6,184.5c-0.8,3.3-2.1,6.4-4,9.2c-1.6,2.5-3.3,4.9-4.8,7.5c2.4,2.6,4.8,5.3,7,8.1
					c2.6-5,4.5-10.4,5.6-16C150.2,190.4,148.9,187.4,147.6,184.5z"/>
                    <path class="st38" d="M122.7,185.8c2.2,2,4.5,4,6.7,6c4.6-7.4,8.1-15.5,10.3-24c-1.4-2.8-2.8-5.6-4.2-8.3
					C134,169.3,129.5,178.5,122.7,185.8z"/>
                    <path class="st38" d="M95.6,145.5c-1.3,2.5-2.7,4.9-4.3,7.2c-0.6,0.8-1.3,1.6-2.1,2.3c2.8,3.1,5.8,6.1,8.9,9
					c3.4-5.1,6.3-10.6,10-15.6s8.4-9.6,14-12.1c-2.6-3.9-5.3-7.7-8.2-11.3C106.3,130.5,100.1,137.4,95.6,145.5z"/>
                    <path class="st38" d="M102.9,168.6c1.3,1.2,2.6,2.3,3.9,3.5c1.6,1.4,3.2,2.8,4.9,4.2c2.9-3.8,5.1-8.4,7.5-12.7
					c2.8-5.3,6.1-10.6,10.8-14.2c-1.3-2.4-2.7-4.7-4.1-7C115.8,148.6,107.8,157.8,102.9,168.6z"/>
                    <path class="st38" d="M70.6,127.2c2,4.7,4.4,9.2,7.2,13.5c10.4-7.2,19.1-16.6,25.4-27.5c-2.3-2.3-4.7-4.4-7.1-6.5
					C89.4,115.5,80.7,122.5,70.6,127.2z"/>
                    <path class="st39" d="M82.4,144.1c3.4-3.8,6.3-8,9.3-12.1c3.9-5.4,8.2-10.9,13.5-14.9"/>
                    <path class="st39" d="M116.1,178.4c3.2-4,5.5-8.7,8.1-13.2c1.9-3.5,4.3-6.7,7.1-9.5"/>
                    <path class="st39" d="M141.9,175.5c-1.5,3.9-3.6,7.7-6,11.1"/>
                    <path class="st39" d="M149.8,212.1c1.3-1.7,2.4-3.5,3.3-5.4"/>
                    <path class="st40" d="M106.9,143.4c2.4-4.5,5.7-8.4,9.7-11.6"/>
                    <path class="st34" d="M144.1,177c-6-12.4-12.1-24.8-19.3-36.3c-2.5,5.4-1.9,12-0.3,17.9c2,7.2,5.4,13.9,7.4,21.1
					c1.5,5,1.8,10.3,0.9,15.4c6.9,6.5,13.1,13.8,18.4,21.7c1.5,2.2,3.8,4.9,6.2,3.9s2.2-4.8,1.3-7.5
					C154.7,200.9,149.8,188.8,144.1,177z"/>
                    <path class="st1" d="M168.5,233.1c-10.9-34.6,6.8-73.6-4.8-108c-2-5.9-5.7-12-10.7-15.2c0.9-4.2,1.4-8.5,2-12.8
					c1.2-8.9,1.8-18.1,6.2-26.3c-0.1-0.5-1.1-1.3-2.6-2.2c-0.4,0.7-0.8,1.5-1.1,2.2c-1.8,4.1-2.9,8.5-5.2,12.4
					c0.9-3.9,1.2-7.2,1.8-10.4c0.3-2,0.8-4,1.6-5.9c-1.9-1-3.6-1.8-3.6-1.8c-3.7,7.6-5.1,16.1-5.2,24.4c0,6.1,0.3,12.2,1.1,18.2
					c-0.5-0.1-1-0.2-1.5-0.2c-0.6-6.5-2.6-13-4.3-19.3c-2.4-9-4.2-18.8-1-27.5c-0.3-0.8-1.8-1.6-3.5-2.3c-1.5,3-2.7,6.1-3.7,9.3
					c-0.7-3.5-0.6-7,0.1-10.5c-1.5-0.4-2.6-0.7-2.6-0.7c-3.7,9.4-1.9,20,1.2,29.6c2.4,7.5,5.7,14.8,7.8,22.5
					c-0.3,0.1-0.6,0.3-0.8,0.4c-4-13-11.9-24.4-22.7-32.7c-1.3,1-2.4,2.1-3.5,3.4c2,2,4,4.2,5.8,6.4c-2.8-1.1-5.4-2.2-7.9-3.2
					c-0.6,1.2-1.1,2.4-1.5,3.7c11.6,4.8,20.8,14.1,25.6,25.8c-2.5,2.8-4.1,6.2-4.7,9.9c-1.2,7,0.7,14.1,2.5,20.9
					c6,22.2,15.4,43.7,19.5,69.1c1.4,8.5,4.3,16.8,8.7,24.2c1.3,2.2,3.7,4.7,6,3.5S169.3,235.6,168.5,233.1z"/>
                    <path class="st13" d="M168.1,70c-4.7,8-5.7,17.2-7.2,26c-0.9,6.1-2.3,12.2-4.1,18.1c-1,0.3-2,0-2.7-0.8
					c-0.7-8.4-1.4-16.8-1-25.2s2.2-16.8,6.2-24.2c0,0,1.6,0.9,3.5,2c-0.9,1.8-1.5,3.8-1.9,5.8c-0.7,3.2-1.1,6.5-2.2,10.4
					c2.4-3.8,3.7-8.2,5.7-12.2c0.4-0.7,0.8-1.5,1.2-2.2C167,68.6,168,69.5,168.1,70z"/>
                    <g>
					<defs>
						<path id="SVGID_31_" d="M168.1,70c-4.7,8-5.7,17.2-7.2,26c-0.9,6.1-2.3,12.2-4.1,18.1c-1,0.3-2,0-2.7-0.8
							c-0.7-8.4-1.4-16.8-1-25.2s2.2-16.8,6.2-24.2c0,0,1.6,0.9,3.5,2c-0.9,1.8-1.5,3.8-1.9,5.8c-0.7,3.2-1.1,6.5-2.2,10.4
							c2.4-3.8,3.7-8.2,5.7-12.2c0.4-0.7,0.8-1.5,1.2-2.2C167,68.6,168,69.5,168.1,70z"/>
					</defs>
                        <clipPath id="SVGID_32_">
						<use xlink:href="#SVGID_31_" style="overflow:visible;"/>
					</clipPath>
                        <g class="st41">
						<path class="st17" d="M162.2,60.8c-5.2,8.2-6.2,18.4-6.4,28.2s0.4,19.7-2.2,29.1"/>
                            <path class="st17" d="M168.4,65.8c-7.3,17.5-11.8,36.1-13.3,55"/>
					</g>
				</g>
                    <path class="st34" d="M153.1,101.8c0.2,3.8,0.5,7.7,0.9,11.5c0.7,0.7,1.7,1,2.7,0.8c1-3,1.8-6,2.4-9
					C157.4,103.6,155.3,102.5,153.1,101.8z"/>
                    <path class="st13" d="M151.6,114.3c0,0.1,0.1,0.1-4.6-1c-1.2-10-5.3-19.4-8-29.1s-4-20.4,0-29.6c0,0,1.1,0.3,2.6,0.8
					c-0.9,3.4-1.1,7-0.6,10.4c1.1-3.1,2.5-6.2,4.1-9.1c1.7,0.7,3.1,1.6,3.4,2.4c-3.6,8.6-2.2,18.4-0.1,27.5S153.1,105.1,151.6,114.3
					z"/>
                    <g>
					<defs>
						<path id="SVGID_33_" d="M151.6,114.3c0,0.1,0.1,0.1-4.6-1c-1.2-10-5.3-19.4-8-29.1s-4-20.4,0-29.6c0,0,1.1,0.3,2.6,0.8
							c-0.9,3.4-1.1,7-0.6,10.4c1.1-3.1,2.5-6.2,4.1-9.1c1.7,0.7,3.1,1.6,3.4,2.4c-3.6,8.6-2.2,18.4-0.1,27.5
							S153.1,105.1,151.6,114.3z"/>
					</defs>
                        <clipPath id="SVGID_34_">
						<use xlink:href="#SVGID_33_" style="overflow:visible;"/>
					</clipPath>
                        <g class="st42">
						<path class="st17" d="M149,116.2c-0.7-11.6-5.1-22.6-7.6-33.9s-3-24,3.3-33.7"/>
                            <path class="st17" d="M148.4,53.8c-5.3,9.7-7.3,21.9-3,33.8c3.7,10.2,6.4,20.9,5.9,31.8"/>
					</g>
				</g>
                    <path class="st34" d="M144.8,102.8c1,3.4,1.7,6.9,2.2,10.5c4.7,1.1,4.7,1.1,4.6,1c0.6-4.2,0.6-8.6-0.1-12.8
					C149.2,101.2,146.8,101.6,144.8,102.8z"/>
                    <path class="st13" d="M117.8,80.1c2.4,1.1,5,2.3,7.7,3.5c-1.7-2.3-3.6-4.5-5.5-6.6c1.1-1.2,2.3-2.3,3.6-3.3
					c12.3,10.3,20.5,24.7,22.9,40.5c-1.6,0.4-3.2,0.9-4.3,1.2c-3.4-13.8-13.1-25.9-26.1-31.8C116.6,82.5,117.1,81.3,117.8,80.1z"/>
                    <g>
					<defs>
						<path id="SVGID_35_" d="M117.8,80.1c2.4,1.1,5,2.3,7.7,3.5c-1.7-2.3-3.6-4.5-5.5-6.6c1.1-1.2,2.3-2.3,3.6-3.3
							c12.3,10.3,20.5,24.7,22.9,40.5c-1.6,0.4-3.2,0.9-4.3,1.2c-3.4-13.8-13.1-25.9-26.1-31.8C116.6,82.5,117.1,81.3,117.8,80.1z"
                        />
					</defs>
                        <clipPath id="SVGID_36_">
						<use xlink:href="#SVGID_35_" style="overflow:visible;"/>
					</clipPath>
                        <g class="st43">
						<path class="st17" d="M114.3,79.9c15.9,6.4,27.5,20.6,30.6,37.5"/>
                            <path class="st17" d="M118.2,71.1c13.9,11.7,23.7,27.6,28,45.3"/>
					</g>
				</g>
                    <path class="st34" d="M139.5,107.5c1.1,2.6,2.1,5.3,2.8,8c1.1-0.3,2.7-0.8,4.3-1.2c-0.6-3.7-1.5-7.4-2.7-10.9
					C142.2,104.6,140.7,105.9,139.5,107.5z"/>
                    <path class="st37" d="M153.9,211.1c1,8.6,3.6,16.9,7.7,24.6c1.2,2.3,3.5,4.8,5.9,3.8s1.9-4.5,1.3-7c-9.5-35,9.7-73.3-0.4-108.1
					c-2.6-9.1-9.4-18.9-18.8-18.2c-7.1,0.5-12.5,7.2-13.9,14.1s0.1,14.1,1.7,21C142.4,163.7,150.9,185.5,153.9,211.1z"/>
                    <path class="st38" d="M153.9,210.7c0,0.1,0,0.2,0,0.3c0.4,3.6,1.2,7.2,2.1,10.7c3.3-1.9,6.7-3.7,10.2-5.3
					c-0.2-4.1-0.3-8.2-0.1-12.4C162.3,206.3,157.6,207.7,153.9,210.7z"/>
                    <path class="st38" d="M149.5,186.8c0.6,2.6,1.2,5.3,1.8,7.9c5.1-1.2,10.5-0.9,15.5,0.7c0.2-1.8,0.4-3.6,0.6-5.4
					C161.9,187,155.6,185.9,149.5,186.8z"/>
                    <path class="st38" d="M159.5,231.1c0.7,1.5,1.4,3,2.1,4.5c0.3,0.6,0.7,1.2,1.2,1.8c1.9-1.7,3.9-3.2,6.1-4.5
					c0-0.2-0.1-0.4-0.1-0.5c-0.7-2.5-1.2-5.1-1.6-7.7C164.2,226.3,161.6,228.5,159.5,231.1z"/>
                    <path class="st38" d="M160.7,129.1c-4.6-2.6-9-5.4-14-7c-3.6-1.4-7.6-1.5-11.4-0.5c-0.9,5.9,0.2,12,1.5,17.9
					c6.1-1.9,13,0.2,19.1,2.4c4.9,1.8,10.3,3.7,15.4,3.6c-0.1-4-0.4-8-1-12C167,132.4,163.8,130.9,160.7,129.1z"/>
                    <path class="st38" d="M144.6,168.6c0.9,3,1.7,6.1,2.5,9.2c7.4,1.5,14.4,4.5,20.6,8.9c0.3-2.2,0.5-4.3,0.8-6.5
					C161.7,173.8,153.2,169.6,144.6,168.6z"/>
                    <path class="st38" d="M139.4,149.9c1,3.9,2.1,7.8,3.2,11.7c9.6-0.7,19.2,1.7,27.4,6.8c0.4-3.6,0.8-7.3,1-10.9
					C161.9,150.9,150.5,148.2,139.4,149.9z"/>
                    <path class="st40" d="M136.7,128.9c4.9-0.3,9.8,0.8,14.2,3.2"/>
                    <path class="st39" d="M141.2,147.2c5.5-0.6,11.3,0.8,16.7,2.2c3.6,1.1,7.3,1.9,11.1,2.4"/>
                    <path class="st39" d="M152.4,167.2c5.5,0.2,10.9,1.7,15.8,4.3"/>
                    <path class="st39" d="M150.6,183.5l4.4,0.1"/>
                    <path class="st39" d="M154.1,202c3.4-0.8,6.9-1.5,10.4-2"/>
                    <path class="st39" d="M159.3,226.5c2-1.3,4-2.6,6.1-3.8"/>
                    <path class="st40" d="M156.3,216.7l4-1.7"/>
                    <path class="st34" d="M171.3,145.8c-6.1,7.2-9.1,17.1-9.9,26.7c-1,11.8,0.6,23.6,0.8,35.4c0.1,4-0.1,8.2-1.9,11.8
					c-0.9,1.7-2.1,3.2-3.6,4.3c1.3,4,2.9,8,4.9,11.7c1.2,2.3,3.5,4.8,5.9,3.8s1.9-4.5,1.3-7C161.1,204.5,171.9,174.5,171.3,145.8z"
                    />
                    <path class="st1" d="M35.2,241.8c8.1-4.7,18.2-4.4,25.9,0.9c7.6,5.5,11.2,14.9,9.4,24.1c-2.2,9.1-9.6,16-18.8,17.6
					c-9.3,1.2-18.4-3.3-23-11.5C24.3,264.8,21.9,249.7,35.2,241.8z"/>
                    <path class="st44" d="M28.6,237.6c8.1-4.7,18.2-4.4,25.9,0.9c7.6,5.5,11.3,14.9,9.4,24.1c-2.2,9.1-9.6,16-18.9,17.6
					c-9.3,1.2-18.4-3.3-23-11.5C17.7,260.6,15.4,245.6,28.6,237.6z"/>
                    <g>
					<defs>
						<path id="SVGID_37_" d="M28.6,237.6c8.1-4.7,18.2-4.4,25.9,0.9c7.6,5.5,11.3,14.9,9.4,24.1c-2.2,9.1-9.6,16-18.9,17.6
							c-9.3,1.2-18.4-3.3-23-11.5C17.7,260.6,15.4,245.6,28.6,237.6z"/>
					</defs>
                        <clipPath id="SVGID_38_">
						<use xlink:href="#SVGID_37_" style="overflow:visible;"/>
					</clipPath>
                        <g class="st45">
						<path class="st46"
                              d="M60.8,239.7c-1.4,6.3-4.5,12.4-9.4,16.6c-4.9,4.2-11.8,6.4-18,4.8c-7-1.8-12.4-7.8-19.5-8.7"/>
                            <path class="st46" d="M69.5,257.9c-12.7,17.2-36.5,21.7-54.7,10.4"/>
					</g>
				</g>
                    <path class="st34" d="M62.1,267.5c-6.8,2.9-14.4,4-21.7,3c-7.8-1.1-15.1-4.4-21.1-9.5c0.6,2.6,1.5,5.2,2.8,7.6
					c4.6,8.2,13.7,12.8,23,11.5C52.4,279,58.8,274.3,62.1,267.5z"/>
                    <path class="st13" d="M27.3,250.1c3.2-0.7,6.2-1.9,9-3.5c0.9,3.8,3.2,7.1,6.5,9.2c0.1-3.2-0.2-6.4-0.8-9.5
					c3.2-0.5,5.7-0.8,8.2-1.4c-1.6-2.1-3.7-3.8-6.1-4.8c2.7-1.9,4.6-4.6,5.5-7.8c-3.9,0.6-7.5,2.7-9.9,5.9c-0.4-3.6-1.9-7.2-4.8-9.5
					c-0.8,3.2-1.2,6.4-1.2,9.7c-3.5-1-7.2-0.8-10.6,0.3c2.6,1.3,5.2,2.8,7.7,4.4C29.4,245.4,28.2,247.7,27.3,250.1z"/>
                    <path class="st13" d="M39.9,242.6c-0.3-4.7,0.7-9.5,2.8-13.7c0,0-2.9-1.2-3.2-1c-1.7,4.6-2.4,9.5-2.1,14.4
					C38.3,242.5,39.1,242.6,39.9,242.6z"/>
                    <path class="st1"
                          d="M51,181.7c-10.6-4.4-24.2,1-28.9,11.4s0.2,24.2,10.5,29.3s24.2,0.6,29.6-9.5S64.3,187.2,51,181.7z"/>
                    <path class="st44"
                          d="M47.9,175.4c-10.6-4.4-24.2,1-28.9,11.4s0.2,24.2,10.5,29.3s24.2,0.6,29.6-9.5S61.3,180.9,47.9,175.4z"/>
                    <g>
					<defs>
						<path id="SVGID_39_" d="M47.9,175.4c-10.6-4.4-24.2,1-28.9,11.4s0.2,24.2,10.5,29.3s24.2,0.6,29.6-9.5S61.3,180.9,47.9,175.4z
							"/>
					</defs>
                        <clipPath id="SVGID_40_">
						<use xlink:href="#SVGID_39_" style="overflow:visible;"/>
					</clipPath>
                        <g class="st47">
						<path class="st46" d="M23.5,178.4c-0.3,3-0.1,6,0.6,9c0.7,3,2.3,5.7,4.7,7.6c4.3,3.4,10.4,3.2,15.9,2.5s11.3-1.6,17.5,1.7
							l2.5,1.8"/>
                            <path class="st46" d="M19.6,180.2C17.5,197.9,30.2,214,48,216c2.6,0.3,5.2,0.3,7.8,0"/>
					</g>
				</g>
                    <path class="st34" d="M60.2,188.4c-3.6,6.7-9,12.2-15.7,15.9c-6.9,3.8-14.9,5.4-22.4,5.8c1.9,2.6,4.4,4.7,7.3,6.1
					c10.3,5.1,24.2,0.6,29.6-9.5C62,201,62.4,194.4,60.2,188.4z"/>
                    <path class="st13"
                          d="M37.9,180.4c-2.4-4.2-2.4-9.4,0.1-13.6c0,0,2.9,0.7,2.9,1.1c-2.4,3.6-2.7,8.2-0.7,12L37.9,180.4z"/>
                    <path class="st13" d="M27.2,185.8c2.9-0.2,5.7-1,8.3-2.3c-0.1,3.2,0.4,6.3,1.3,9.3c1.6-2.4,2.9-5,3.9-7.6
					c2.3,1.6,4.8,2.9,7.4,4.1c-0.3-2.6-1.3-5-2.8-7.2c2.3-0.2,4.5-0.9,6.5-2.1c-2.2-1.4-4.8-2-7.3-1.6c-0.1-2.7,0.2-5.3,1.1-7.8
					c-3.1,1.1-5.4,3.5-6.4,6.6c-1.2-3.2-3.8-5.5-7.1-6.4c0.6,2.6,1.3,5.2,1.7,8.3C31,180.7,28.7,183,27.2,185.8z"/>
                    <path class="st1" d="M99.2,207c-8.6-3.7-18.5-2.1-25.6,4c-6.9,6.4-9.3,16.2-6.4,25.1c3.3,8.8,11.5,14.7,20.9,15.1
					c9.4,0.1,17.9-5.5,21.4-14.2C112.8,228.5,113.3,213.3,99.2,207z"/>
                    <path class="st44" d="M99.2,200.6c-8.6-3.7-18.5-2.1-25.6,4c-6.9,6.4-9.3,16.2-6.3,25.1c3.3,8.8,11.5,14.7,20.9,15.1
					c9.4,0.1,17.9-5.6,21.4-14.2C112.8,222.1,113.3,206.9,99.2,200.6z"/>
                    <g>
					<defs>
						<path id="SVGID_41_" d="M99.2,200.6c-8.6-3.7-18.5-2.1-25.6,4c-6.9,6.4-9.3,16.2-6.3,25.1c3.3,8.8,11.5,14.7,20.9,15.1
							c9.4,0.1,17.9-5.6,21.4-14.2C112.8,222.1,113.3,206.9,99.2,200.6z"/>
					</defs>
                        <clipPath id="SVGID_42_">
						<use xlink:href="#SVGID_41_" style="overflow:visible;"/>
					</clipPath>
                        <g class="st48">
						<path class="st46"
                              d="M67.5,206.6c2.2,6.1,6,11.7,11.3,15.3s12.4,4.9,18.5,2.6c6.7-2.6,11.4-9.2,18.3-11.1"/>
                            <path class="st46" d="M61,225.8c14.7,15.5,38.9,17.1,55.5,3.7"/>
					</g>
				</g>
                    <path class="st34" d="M109.5,230.6c1-2.5,1.6-5.2,1.8-7.9c-5.3,5.8-12.1,10-19.8,12c-7.2,1.9-14.8,1.7-22-0.4
					c4.1,6.3,11,10.1,18.5,10.5C97.4,244.9,105.9,239.3,109.5,230.6z"/>
                    <path class="st13" d="M102,212.8c-3.2-0.3-6.4-1.1-9.4-2.4c-0.4,3.9-2.3,7.5-5.3,10c-0.5-3.2-0.6-6.4-0.4-9.6
					c-3.2-0.1-5.8-0.1-8.3-0.4c1.3-2.3,3.1-4.2,5.4-5.5c-2.9-1.5-5.2-4-6.4-7.1c4,0.1,7.8,1.8,10.6,4.6c0-3.7,1-7.4,3.7-10
					c1.2,3,2,6.2,2.3,9.5c3.3-1.4,7-1.7,10.6-1c-2.5,1.7-4.8,3.4-7.1,5.4C99.3,208.4,100.7,210.5,102,212.8z"/>
                    <path class="st13" d="M88.5,206.9c-0.3-4.7-1.8-9.3-4.5-13.2c0,0,2.8-1.6,3.1-1.4c2.2,4.4,3.6,9.1,3.9,14.1
					C90.2,206.6,89.4,206.8,88.5,206.9z"/>
                    <path class="st1" d="M184.2,168.1c-11.3-25.2-15-53.2-10.4-80.4c1.4-8.6,3.9-17.4,9.5-24S198.5,53,206.7,56
					c6.9,2.6,11.2,9.3,14.6,15.8c11.3,21.9,16.9,46.3,16.2,71c-0.3,9.6-1.6,19.3-6.2,27.7s-13.1,15.1-22.7,15.4
					S189,178.7,184.2,168.1z"/>
                    <path class="st49" d="M190,160.3c-12.1-24.8-16.5-52.7-12.7-80.1c1.2-8.6,3.4-17.5,8.8-24.3s14.9-11.1,23.1-8.3
					c7,2.4,11.5,8.9,15.1,15.3c11.9,21.6,18.2,45.9,18.3,70.5c0,9.6-1,19.4-5.4,27.9s-12.7,15.4-22.2,16S195.1,170.8,190,160.3z"/>
                    <path class="st50" d="M202.9,93.8c-1.7-1.3-4.1-0.9-5.4,0.8c0,0,0,0,0,0.1c-1.1,1.9-0.6,4.3,1.3,5.4c1.9,1.1,4.2,0.6,5.5-1.1
					C205.4,97.3,204.8,95.4,202.9,93.8z"/>
                    <path class="st50" d="M216.1,105.2c-1.1-0.5-2.4-0.1-2.9,0.9c-0.5,1.1-0.2,2.4,0.9,3c1,0.5,2.3,0.2,3-0.7c0.7-1,0.5-2.3-0.5-3
					C216.3,105.3,216.2,105.2,216.1,105.2z"/>
                    <path class="st50" d="M191.5,69.2c-1.1-0.5-2.3-0.1-2.9,0.9c-0.5,1.1-0.2,2.4,0.9,3c1,0.5,2.3,0.3,3-0.7c0.7-1,0.4-2.3-0.5-3
					C191.7,69.4,191.6,69.3,191.5,69.2z"/>
                    <path class="st50" d="M189.2,119c-1.1-0.5-2.4-0.1-2.9,0.9c-0.5,1.1-0.2,2.4,0.9,3c1,0.5,2.3,0.2,3-0.7c0.7-1,0.4-2.3-0.5-3
					C189.5,119.1,189.4,119.1,189.2,119z"/>
                    <path class="st50" d="M203.5,128.7c-1.1-0.5-2.3-0.1-2.9,0.9c-0.5,1.1-0.2,2.4,0.9,3c1,0.5,2.3,0.3,3-0.7c0.7-1,0.4-2.3-0.5-3
					C203.8,128.8,203.6,128.7,203.5,128.7z"/>
                    <path class="st50" d="M217,158.7c-1.1-0.5-2.3-0.1-2.9,0.9c-0.5,1.1-0.2,2.4,0.9,3c1,0.5,2.3,0.3,3-0.7c0.7-1,0.4-2.3-0.5-3
					C217.3,158.9,217.1,158.8,217,158.7z"/>
                    <path class="st50" d="M205.8,150.4c-1.1-0.5-2.3-0.1-2.9,0.9c-0.5,1.1-0.2,2.4,0.9,3c1,0.5,2.3,0.2,3-0.7c0.7-1,0.4-2.3-0.5-3
					C206,150.6,205.9,150.5,205.8,150.4z"/>
                    <path class="st50" d="M232.1,129.1c-1.7-0.8-3.8-0.2-4.7,1.5c-0.8,1.7-0.2,3.8,1.4,4.8c1.7,0.9,3.8,0.4,4.9-1.1
					c1.1-1.6,0.6-3.8-1-4.8C232.5,129.3,232.3,129.2,232.1,129.1z"/>
                    <path class="st50" d="M218.5,71.6c-1.7-0.8-3.8-0.2-4.7,1.5c-0.8,1.7-0.2,3.8,1.4,4.8c1.7,0.9,3.8,0.4,4.9-1.1
					c1.1-1.6,0.6-3.8-1-4.8C218.9,71.8,218.7,71.7,218.5,71.6z"/>
                    <path class="st1" d="M237.2,161.4c4.4-8.5,5.4-18.3,5.4-27.9c0-7-0.5-13.9-1.5-20.8c-1.7,8-3.9,15.9-7.6,23.1
					c-4.6,9.1-11.8,17.2-21.1,21.2c-7.7,3.3-17,3.4-24.3-1.2c0.7,1.5,1.4,3,2.1,4.4c5.1,10.4,15.4,17.7,24.9,17.1
					S232.8,169.9,237.2,161.4z"/>
                    <path class="st1" d="M252.8,45.8c-9.3-3.2-20,2.2-24.9,10.7s-4.8,19.1-1.9,28.5c2.9,9.5,8.7,18.4,17.3,23.5s20.1,5.5,28.3-0.1
					c10.3-7.1,12.8-21.9,8.7-33.7S267.9,51,252.8,45.8z"/>
                    <path class="st51" d="M250.1,40c-9.1-3.7-20.1,1.2-25.4,9.4s-5.7,18.8-3.4,28.3c2.4,9.7,7.8,18.8,16.1,24.3s19.8,6.5,28.2,1.3
					c10.6-6.6,13.9-21.2,10.4-33.2S264.9,45.9,250.1,40z"/>
                    <path class="st52" d="M265.1,60.2c-2-0.8-4.2,0.1-5.1,2c0,0,0,0.1,0,0.1c-0.6,2.1,0.5,4.3,2.5,5c2.1,0.6,4.2-0.5,5.1-2.4
					C268.4,63,267.3,61.3,265.1,60.2z"/>
                    <path class="st52" d="M248.8,79.5c-1.1-0.3-2.3,0.4-2.6,1.5c-0.2,1.2,0.4,2.3,1.5,2.7c1.1,0.3,2.3-0.3,2.8-1.4
					c0.4-1.1-0.2-2.4-1.3-2.8C249.1,79.5,249,79.5,248.8,79.5z"/>
                    <path class="st52" d="M270.7,78.7c-1.2-0.3-2.3,0.4-2.6,1.6c-0.3,1.2,0.4,2.3,1.5,2.7c1.1,0.3,2.3-0.3,2.8-1.4
					c0.4-1.1-0.1-2.4-1.2-2.8C271,78.8,270.9,78.8,270.7,78.7z"/>
                    <path class="st52" d="M247.6,47c-1.2-0.2-2.3,0.4-2.6,1.6c-0.2,1.2,0.4,2.3,1.5,2.7c1.1,0.3,2.3-0.3,2.8-1.4
					c0.4-1.1-0.2-2.4-1.3-2.8C247.8,47.1,247.7,47,247.6,47z"/>
                    <path class="st52" d="M257.3,97.3c-1.2-0.3-2.3,0.4-2.6,1.6c-0.2,1.2,0.4,2.3,1.5,2.7c1.1,0.3,2.3-0.3,2.8-1.4
					c0.4-1.1-0.2-2.4-1.3-2.8C257.6,97.4,257.5,97.4,257.3,97.3z"/>
                    <path class="st52" d="M227.9,58.3c-1.2-0.3-2.3,0.4-2.6,1.6c-0.2,1.2,0.4,2.3,1.5,2.7c1.1,0.3,2.3-0.3,2.8-1.4
					c0.4-1.1-0.2-2.4-1.3-2.8C228.2,58.4,228.1,58.3,227.9,58.3z"/>
                    <path class="st52" d="M237.7,80.9c-1.9-0.4-3.7,0.7-4.3,2.5c-0.4,1.9,0.7,3.7,2.5,4.3c1.8,0.5,3.8-0.5,4.5-2.2
					c0.7-1.8-0.3-3.8-2.1-4.5C238.1,81,237.9,80.9,237.7,80.9z"/>
                    <path class="st52" d="M241,69.6c-1.9-0.4-3.7,0.7-4.3,2.5c-0.4,1.9,0.7,3.7,2.5,4.3c1.8,0.5,3.8-0.5,4.5-2.2
					c0.7-1.8-0.3-3.8-2.1-4.5C241.4,69.7,241.2,69.6,241,69.6z"/>
                    <path class="st1" d="M276,70.1c-1.1-3.7-2.5-7.2-4.4-10.6c-1.8,9.3-6.6,17.7-13.8,23.8c-8.2,6.8-18.6,10.4-29.3,10.2
					c2.4,3.3,5.4,6.2,8.8,8.5c8.3,5.4,19.8,6.5,28.2,1.3C276.2,96.8,279.6,82.1,276,70.1z"/>
                    <path class="st1" d="M307.2,82.9c-3.9,0-7.6,1.2-10.7,3.5c0.1,4.5,2.2,8.7,3.5,13s1.5,9.6-1.6,12.8c-1.9,1.9-4.5,2.7-6.8,4
					c-6.4,3.4-10.5,11.1-9,18.2s9.1,12.6,18.2,12.7c2.7,5.6,10.2,7.8,16.1,5.8s10.2-7.3,12.8-13.5c3.8-0.5,7.4-1.9,10.5-4.1
					c3.1-2.2,5.3-5.6,5.9-9.4c0.9-6.3-3.6-12.5-9.2-15.6s-12.4-1.8-16.6-3.1C312.3,104.6,310,93.9,307.2,82.9z"/>
                    <path class="st0" d="M302.1,76.7c-3.8,0.1-7.6,1.5-10.6,3.9c0.2,4.5,2.6,8.6,4,12.9s1.9,9.5-1.1,12.9c-1.8,2-4.4,2.9-6.7,4.2
					c-6.2,3.7-10.1,11.5-8.3,18.5c1.8,7,9.5,12.2,18.6,12c2.9,5.5,10.5,7.4,16.3,5.2s9.9-7.7,12.2-14c3.8-0.7,7.4-2.2,10.4-4.5
					c3.1-2.3,5.1-5.8,5.6-9.6c0.6-6.4-4.1-12.3-9.8-15.2s-12.4-1.3-16.7-2.5C308.1,98.2,305.3,87.6,302.1,76.7z"/>
                    <g>
					<defs>
						<path id="SVGID_43_" d="M302.1,76.7c-3.8,0.1-7.6,1.5-10.6,3.9c0.2,4.5,2.6,8.6,4,12.9s1.9,9.5-1.1,12.9
							c-1.8,2-4.4,2.9-6.7,4.2c-6.2,3.7-10.1,11.5-8.3,18.5c1.8,7,9.5,12.2,18.6,12c2.9,5.5,10.5,7.4,16.3,5.2s9.9-7.7,12.2-14
							c3.8-0.7,7.4-2.2,10.4-4.5c3.1-2.3,5.1-5.8,5.6-9.6c0.6-6.4-4.1-12.3-9.8-15.2s-12.4-1.3-16.7-2.5
							C308.1,98.2,305.3,87.6,302.1,76.7z"/>
					</defs>
                        <clipPath id="SVGID_44_">
						<use xlink:href="#SVGID_43_" style="overflow:visible;"/>
					</clipPath>
                        <g class="st53">
						<path class="st25" d="M298.8,144.2c-4.2-5.6-6.8-15.7-6.7-22.7"/>
                            <path class="st25" d="M320.9,109.8c3.9,6.9,6.4,16.2,5.9,24.1"/>
                            <path class="st25" d="M299.2,110.4c0,14.3,6.1,27.9,16.7,37.5"/>
                            <path class="st25" d="M326.1,107.1c7.6,6.6,11.4,16.6,10.2,26.6"/>
                            <path class="st25" d="M310.7,114c5.9,9.8,9.6,20.7,10.9,32"/>
                            <path class="st25" d="M292.5,143.2c-6.3-5.2-9.2-13.5-7.6-21.5"/>
					</g>
				</g>
                    <path class="st5" d="M341.3,111.5c-2.1,5.2-7.4,8.8-12.8,10.7c-6,2.1-12.5,2.6-18.6,4.6c-5.2,1.7-9.9,4.5-15.1,6.2
					c-3.9,1.2-7.8,2-11.8,2.4c4,3.9,9.4,5.9,15,5.7c2.9,5.5,10.5,7.4,16.3,5.2s9.9-7.7,12.2-14c3.8-0.7,7.4-2.2,10.5-4.5
					c3.1-2.3,5.1-5.8,5.6-9.6C342.8,115.8,342.3,113.5,341.3,111.5z"/>
                    <path class="st1" d="M269.8,152.2c-3.5-2.2-7.1-4.4-9.6-7.6s-3.9-7.8-2.3-11.6c1-2.4,3.4-4.3,5.9-4c2.7,0.4,4.4,3.1,5.7,5.5
					c1.8,3.5,3.6,7,5.5,10.4c0.7,1.1,1.1,2.3,1.4,3.6c0.3,1.3-0.1,2.6-1,3.6C274.4,153,272.4,153.8,269.8,152.2z"/>
                    <path class="st0" d="M271.5,149.6c-3.5-2.2-7.1-4.4-9.6-7.6s-3.9-7.8-2.3-11.6c1-2.4,3.4-4.3,5.9-4c2.7,0.4,4.4,3.1,5.7,5.5
					c1.8,3.5,3.6,7,5.5,10.4c0.7,1.1,1.1,2.4,1.4,3.6c0.3,1.3-0.1,2.6-1,3.6C276.1,150.4,274.1,151.2,271.5,149.6z"/>
                    <g>
					<defs>
						<path id="SVGID_45_" d="M271.5,149.6c-3.5-2.2-7.1-4.4-9.6-7.6s-3.9-7.8-2.3-11.6c1-2.4,3.4-4.3,5.9-4
							c2.7,0.4,4.4,3.1,5.7,5.5c1.8,3.5,3.6,7,5.5,10.4c0.7,1.1,1.1,2.4,1.4,3.6c0.3,1.3-0.1,2.6-1,3.6
							C276.1,150.4,274.1,151.2,271.5,149.6z"/>
					</defs>
                        <clipPath id="SVGID_46_">
						<use xlink:href="#SVGID_45_" style="overflow:visible;"/>
					</clipPath>
                        <g class="st54">
						<path class="st25" d="M268.9,126.3c-4,6.6-1.9,15.2,4.8,19.2c2.1,1.3,4.5,2,7,2"/>
					</g>
				</g>
                    <path class="st5" d="M278,146c-0.3-1.3-0.7-2.5-1.4-3.6l-2.9-5.4c-2.2,3.6-5.8,6.2-10,7.1c2.4,2.1,5,4,7.8,5.6
					c2.6,1.6,4.6,0.7,5.5-0.1C277.9,148.6,278.3,147.3,278,146z"/>
                    <path class="st1" d="M348.1,81.3c1.7,3.8,3.5,7.6,3.8,11.7s-1.1,8.6-4.5,10.9c-2.1,1.4-5.2,1.7-7.1,0s-1.9-5-1.6-7.7l1.2-11.7
					c0.1-1.3,0.3-2.5,0.8-3.7c0.5-1.2,1.5-2.1,2.8-2.4C344.7,78.1,346.8,78.5,348.1,81.3z"/>
                    <path class="st0" d="M344.9,77.3c1.7,3.8,3.5,7.6,3.8,11.7s-1.1,8.6-4.5,10.9c-2.1,1.4-5.2,1.7-7.1,0s-1.9-5-1.6-7.7l1.2-11.7
					c0.1-1.3,0.3-2.5,0.8-3.7c0.5-1.2,1.5-2.1,2.8-2.4C341.5,74.1,343.6,74.5,344.9,77.3z"/>
                    <g>
					<defs>
						<path id="SVGID_47_" d="M344.9,77.3c1.7,3.8,3.5,7.6,3.8,11.7s-1.1,8.6-4.5,10.9c-2.1,1.4-5.2,1.7-7.1,0s-1.9-5-1.6-7.7
							l1.2-11.7c0.1-1.3,0.3-2.5,0.8-3.7c0.5-1.2,1.5-2.1,2.8-2.4C341.5,74.1,343.6,74.5,344.9,77.3z"/>
					</defs>
                        <clipPath id="SVGID_48_">
						<use xlink:href="#SVGID_47_" style="overflow:visible;"/>
					</clipPath>
                        <g class="st55">
						<path class="st25" d="M336.6,77.1c5.4,6.3,4.7,15.8-1.6,21.2c-0.3,0.2-0.5,0.4-0.8,0.6"/>
					</g>
				</g>
                    <path class="st5" d="M348.7,89c-0.1-1.1-0.3-2.3-0.6-3.4c-3.3,4-7.8,6.8-12.8,7.9c-0.2,2.4,0,4.9,1.7,6.4c1.9,1.7,5,1.4,7.1,0
					C347.6,97.6,349,93.1,348.7,89z"/>
                    <path class="st1" d="M321,64.5c-2.8,0.9-4.4,4.1-4.4,7s1.3,5.8,2.7,8.4c1.6,3,3.3,5.8,5.2,8.6c0.9,1.3,2.2,2.8,3.8,2.6
					s2.6-2,3.2-3.6c1.4-4.4,2-9,1.7-13.6c0-2.8-0.9-5.6-2.4-8C329.1,63.6,326.4,62.7,321,64.5z"/>
                    <path class="st0" d="M318.6,61.3c-2.8,0.9-4.4,4.1-4.4,7s1.3,5.8,2.7,8.4c1.6,3,3.3,5.8,5.2,8.6c0.9,1.3,2.2,2.8,3.8,2.6
					s2.6-2,3.1-3.6c1.4-4.4,2-9,1.7-13.6c0-2.8-0.9-5.6-2.4-8C326.6,60.5,323.9,59.6,318.6,61.3z"/>
                    <g>
					<defs>
						<path id="SVGID_49_" d="M318.6,61.3c-2.8,0.9-4.4,4.1-4.4,7s1.3,5.8,2.7,8.4c1.6,3,3.3,5.8,5.2,8.6c0.9,1.3,2.2,2.8,3.8,2.6
							s2.6-2,3.1-3.6c1.4-4.4,2-9,1.7-13.6c0-2.8-0.9-5.6-2.4-8C326.6,60.5,323.9,59.6,318.6,61.3z"/>
					</defs>
                        <clipPath id="SVGID_50_">
						<use xlink:href="#SVGID_49_" style="overflow:visible;"/>
					</clipPath>
                        <g class="st56">
						<path class="st25" d="M320.4,60c7.5,6.9,7.9,18.6,1,26.1c-0.4,0.5-0.9,0.9-1.3,1.3"/>
					</g>
				</g>
                    <path class="st5" d="M329,84.3c1.4-4.4,2-9,1.7-13.6c-0.1-1.4-0.3-2.8-0.7-4.2c-1.1,3.3-2.7,6.5-4.7,9.4
					c-1.6,2.2-3.7,3.9-6.1,5.1c0.9,1.5,1.8,2.9,2.8,4.3s2.2,2.8,3.8,2.6S328.5,86,329,84.3z"/>
			</g>
		</g>
            <path class="st1" d="M356.4,444.4c-15.8,4.2-32,7.1-48.3,8.7c-50.1,4.8-100.8,4.8-151.2,2.9c-5.2-50.1-6.8-100.5-4.9-150.8
			c66.7-5.4,133.6-7.3,200.5-5.7c1.6,30.6,3.7,61.1,6,91.7c1.2,15.7,2.5,30.5,2.5,45.4c0,2.7-0.4,5.9-3.4,7.4
			C357.3,444.2,356.8,444.3,356.4,444.4z"/>
            <path class="st0" d="M346.3,439.4c-16,3.8-32.3,6.2-48.7,7.4c-50.4,3.6-101.2,2.5-151.6-0.6c-3.1-49.1-2.6-98.3,1.4-147.3
			c66.9-3.7,134-4,201-1c0.3,29.9,1.1,59.8,2.2,89.7c0.6,15.3,1.2,29.8,0.6,44.4c-0.1,2.7-0.6,5.8-3.6,7.1
			C347.1,439.2,346.7,439.3,346.3,439.4z"/>
            <path class="st57" d="M346.3,439.4c-16,3.8-32.3,6.2-48.7,7.4c-50.4,3.6-101.2,2.5-151.6-0.6c62.9,3.6,126.1-0.6,188-12.4
			c1.5,1.9,3.4,3.5,5.5,4.7C341.6,439.6,344,439.9,346.3,439.4z"/>
            <path class="st58" d="M156.6,344.4c59.9-2.1,119.8-2.6,179.8-1.3"/>
            <path class="st58" d="M158.1,370.8l176-0.4"/>
            <path class="st58" d="M159.2,396.9l174.9-1.2"/>
            <path class="st58" d="M160.2,422.3l172.4-1.2"/>
            <path class="st59" d="M282.1,304.6c0.2,0,0.4-0.2,0.5-0.4c0.1-0.2,0.1-0.4,0-0.6c-0.2-0.4-1.3-1.9-1.8-2.6l1.8-2.5
			c0.1-0.2,0.2-0.4,0.1-0.6c-0.1-0.2-0.2-0.3-0.4-0.4l-1.4-0.4l1.2-1.7c0.2-0.3,0.2-0.7-0.1-0.9l-1.9-1.5l2.1-1.6
			c0.2-0.1,0.3-0.3,0.3-0.6c0-0.2-0.1-0.4-0.3-0.5l-2.3-1.2l1.9-3c0.1-0.2,0.1-0.5,0-0.7c-0.1-0.2-0.3-0.3-0.6-0.3
			c-21.6-0.3-43.6,0-65.2,0.9c-0.2,0-0.4,0.1-0.6,0.4c-0.1,0.2-0.1,0.5,0,0.6l1.9,2.8l-2.2,2.7c-0.1,0.1-0.2,0.3-0.1,0.5
			c0,0.2,0.1,0.3,0.3,0.4l2.7,1.8l-2.3,2.2c-0.2,0.2-0.2,0.6,0,0.9l2.4,2.9l-2.3,2.8c-0.2,0.2-0.2,0.4-0.1,0.7
			c0.1,0.2,0.3,0.4,0.5,0.4c9.7,0.8,19.5,1.2,29.3,1.2C257.8,306.5,270,305.8,282.1,304.6z"/>
            <text transform="matrix(1 0 0 1 176.83 321.26)" class="st20 st60 st61">Lorem ipsum dolor</text>
            <text transform="matrix(1 0 0 1 160.2 340.66)"
                  class="st20 st62 st63">1. Lorem ipsum dolor sit amet, cons </text>
            <text transform="matrix(1 0 0 1 160.2 350.66)" class="st20 st62 st63">ectetuer adipiscing elit.</text>
            <text transform="matrix(1 0 0 1 160.2 368.55)" class="st20 st62 st63">2. </text>
            <text transform="matrix(1 0 0 1 170.88 368.55)" class="st20 st62 st63">S</text>
            <text transform="matrix(1 0 0 1 176.47 368.55)" class="st20 st62 st63">ed diam nonummy nibh euis</text>
            <text transform="matrix(1 0 0 1 285.3 368.55)" class="st20 st62 st63">m</text>
            <text transform="matrix(1 0 0 1 292.26 368.55)" class="st20 st62 st63">od </text>
            <text transform="matrix(1 0 0 1 160.2 378.55)" class="st20 st62 st63">t</text>
            <text transform="matrix(1 0 0 1 164.23 378.55)" class="st20 st62 st63">incidunt.</text>
            <text transform="matrix(1 0 0 1 160.2 394.34)" class="st20 st62 st63">3. </text>
            <text transform="matrix(1 0 0 1 170.88 394.34)" class="st20 st62 st63">U</text>
            <text transform="matrix(1 0 0 1 177.26 394.34)"
                  class="st20 st62 st63">t laoreet dolore magna aliquam erat </text>
            <text transform="matrix(1 0 0 1 160.2 404.34)" class="st20 st62 st63">volutpat.</text>
            <text transform="matrix(1 0 0 1 160.2 420.25)" class="st20 st62 st63">4.</text>
            <text transform="matrix(1 0 0 1 167.98 420.25)" class="st20 st62 st63">U</text>
            <text transform="matrix(1 0 0 1 174.36 420.25)" class="st20 st62 st63">t wisi enim ad minim veniam, </text>
            <text transform="matrix(1 0 0 1 292.14 420.25)" class="st20 st62 st63">q</text>
            <text transform="matrix(1 0 0 1 296.54 420.25)" class="st20 st62 st63">uis </text>
            <text transform="matrix(1 0 0 1 160.2 430.25)" class="st20 st62 st63">nostrud exerci ta</text>
            <text transform="matrix(1 0 0 1 228.77 430.25)" class="st20 st62 st63">t</text>
            <text transform="matrix(1 0 0 1 232.8 430.25)" class="st20 st62 st63">ion ullamcorper suscipit.</text>
	</g>
</g>
</svg>
